<?xml version="1.0" standalone="no"?>
<!DOCTYPE svg PUBLIC "-//W3C//DTD SVG 20010904//EN"
 "http://www.w3.org/TR/2001/REC-SVG-20010904/DTD/svg10.dtd">
<svg version="1.0" xmlns="http://www.w3.org/2000/svg"
 width="512.000000pt" height="512.000000pt" viewBox="0 0 512.000000 512.000000"
 preserveAspectRatio="xMidYMid meet">
<metadata>
Created by potrace 1.16, written by Peter Selinger 2001-2019
</metadata>
<g transform="translate(0.000000,512.000000) scale(0.100000,-0.100000)"
fill="#ffffff" stroke="none">
<path d="M0 5062 c0 -60 19 -101 78 -164 29 -31 72 -37 93 -12 11 13 4 32 -41
125 l-54 109 -38 0 -38 0 0 -58z"/>
<path d="M360 5118 c0 -30 131 -283 162 -313 6 -5 -6 19 -26 55 -21 36 -60
110 -87 165 -27 55 -49 97 -49 93z"/>
<path d="M486 5063 c14 -32 52 -102 84 -157 33 -55 60 -103 60 -107 0 -4 -12
-10 -26 -13 -40 -10 -74 -50 -74 -87 0 -32 45 -118 136 -259 57 -87 93 -120
140 -127 36 -4 46 0 114 54 42 32 104 82 138 112 72 63 72 62 11 181 -56 108
-89 145 -144 159 -36 9 -51 9 -77 -3 -31 -14 -88 -59 -88 -70 0 -2 53 -16 118
-31 64 -15 127 -31 139 -36 24 -9 39 -48 29 -74 -8 -22 -36 -19 -197 20 -79
19 -154 37 -166 40 -13 3 -23 1 -23 -4 0 -5 43 -73 95 -152 93 -139 109 -174
82 -185 -33 -12 -67 20 -169 162 -58 82 -112 161 -118 176 -18 37 -5 75 33 99
31 19 62 20 118 3 12 -3 19 3 23 21 10 38 87 114 124 121 39 8 39 14 6 45 -34
31 -54 70 -62 122 l-7 42 -54 3 -53 3 7 -33 c11 -48 43 -108 78 -145 25 -27
28 -35 17 -48 -7 -8 -20 -15 -30 -15 -41 0 -150 156 -150 215 0 24 -2 25 -70
25 l-70 0 26 -57z m292 -60 c56 -84 53 -116 -5 -47 -31 37 -70 124 -55 124 4
0 31 -35 60 -77z m252 -464 c21 -37 11 -66 -31 -97 -37 -28 -46 -30 -97 -25
-57 6 -72 15 -72 44 0 28 25 49 65 56 22 3 52 16 68 29 30 25 52 23 67 -7z"/>
<path d="M625 5083 c7 -38 63 -148 71 -140 3 3 -7 26 -21 53 -14 26 -28 65
-31 86 -4 21 -11 38 -16 38 -6 0 -7 -15 -3 -37z"/>
<path d="M870 5101 c0 -27 40 -82 79 -108 24 -16 49 -23 84 -23 80 0 131 42
151 123 6 23 3 27 -16 27 -13 0 -41 -14 -62 -30 -50 -38 -80 -38 -116 0 -31
34 -74 42 -63 13 6 -17 5 -17 -14 0 -25 22 -43 22 -43 -2z m100 -56 c18 -22
78 -30 117 -16 44 16 54 7 14 -13 -43 -23 -103 -20 -135 5 -26 20 -34 39 -17
39 5 0 14 -7 21 -15z"/>
<path d="M990 5116 c0 -3 7 -12 16 -20 21 -21 47 -20 75 4 l24 19 -57 1 c-32
0 -58 -2 -58 -4z"/>
<path d="M1270 5089 c0 -72 -62 -154 -142 -189 -42 -18 -64 -21 -112 -17 l-60
5 40 -17 c42 -19 60 -43 149 -198 26 -46 52 -83 58 -83 6 0 63 31 127 69 226
136 459 223 712 265 20 4 39 14 43 24 15 36 55 156 55 164 0 4 -16 8 -35 8
-25 0 -39 -6 -50 -24 -23 -35 -75 -56 -140 -56 l-57 0 7 -65 c5 -43 4 -65 -3
-65 -6 0 -17 -3 -26 -6 -14 -5 -16 7 -16 99 0 82 -3 106 -14 110 -8 3 -20 -1
-28 -10 -7 -9 -29 -23 -48 -32 -20 -9 -36 -24 -38 -36 -7 -50 -34 -106 -51
-103 -20 5 -17 26 14 90 17 35 20 48 10 48 -7 0 -27 11 -43 25 -17 14 -34 25
-39 25 -5 0 -17 -26 -26 -57 -21 -77 -84 -172 -146 -222 -79 -62 -85 -62 -149
2 l-55 56 50 55 c42 46 83 123 83 156 0 3 -16 6 -35 7 -32 1 -35 -1 -35 -28z
m473 -119 c-6 -65 -27 -100 -59 -100 -12 0 -14 5 -8 18 6 15 37 107 50 151 3
9 8 11 14 5 6 -6 7 -36 3 -74z m-153 -45 c30 -15 39 -38 20 -50 -10 -6 -65 19
-75 35 -7 12 2 30 16 30 6 0 23 -7 39 -15z m-10 -84 c0 -11 -48 -51 -61 -51
-14 0 -10 22 8 42 17 19 53 25 53 9z"/>
<path d="M1401 5073 c-15 -59 -31 -90 -76 -143 l-36 -43 24 -25 25 -25 30 22
c71 50 144 156 159 232 4 23 2 29 -11 29 -9 0 -19 -8 -22 -17 -32 -96 -118
-223 -150 -223 -21 0 -18 5 29 52 40 41 87 117 102 166 6 20 3 22 -28 22 -33
0 -35 -2 -46 -47z"/>
<path d="M1903 5113 c15 -2 39 -2 55 0 15 2 2 4 -28 4 -30 0 -43 -2 -27 -4z"/>
<path d="M2181 5105 c8 -9 33 -18 55 -22 50 -7 43 0 -21 21 -43 14 -48 14 -34
1z"/>
<path d="M2540 5059 c182 -62 231 -69 281 -44 31 17 93 94 83 104 -4 3 -9 0
-12 -8 -12 -34 -69 -82 -107 -91 -35 -8 -59 -3 -203 45 -89 30 -174 55 -190
54 -15 0 52 -27 148 -60z"/>
<path d="M2562 5115 c17 -17 186 -66 211 -61 32 6 87 42 87 57 0 15 -36 10
-69 -8 -29 -17 -33 -17 -79 0 -45 15 -163 25 -150 12z"/>
<path d="M2966 5061 c-31 -69 -32 -83 -8 -104 17 -15 301 -137 320 -137 11 0
36 57 46 107 7 32 7 32 -51 49 -46 13 -66 15 -98 6 -43 -11 -57 -8 -49 12 6
17 48 36 77 36 15 0 28 12 42 38 17 31 26 37 57 40 29 2 39 -1 48 -18 23 -42
23 -121 1 -200 -12 -41 -21 -79 -21 -85 0 -6 20 -21 45 -33 40 -20 45 -25 45
-56 0 -19 -4 -37 -9 -40 -5 -3 -46 12 -92 33 -107 49 -303 121 -330 121 -13 0
-19 -5 -17 -16 2 -10 57 -37 148 -73 80 -32 189 -79 244 -104 l98 -47 -6 -34
c-6 -33 -4 -36 49 -71 30 -20 58 -41 61 -46 11 -19 24 -8 49 41 32 62 58 66
114 15 22 -20 49 -35 63 -35 51 0 377 -306 552 -517 67 -82 68 -83 94 -69 70
37 70 37 21 107 -25 35 -57 85 -72 111 -29 50 -53 69 -76 60 -7 -2 -48 30 -95
76 -44 44 -125 118 -179 165 -101 87 -175 172 -163 184 16 16 296 30 330 17 8
-3 29 -28 47 -55 17 -27 38 -49 46 -49 16 0 161 149 236 243 74 92 144 241
163 350 6 34 4 37 -17 37 -21 0 -26 -8 -41 -69 -23 -99 -64 -174 -134 -250
-94 -100 -230 -175 -276 -150 -19 10 -16 13 34 33 30 13 71 32 90 44 47 29
149 137 181 193 30 50 67 152 67 181 0 33 -18 19 -25 -19 -3 -21 -24 -75 -46
-120 -76 -159 -233 -276 -404 -302 -120 -18 -195 -23 -195 -14 0 4 39 22 87
38 48 16 132 51 187 79 152 74 246 180 284 319 10 37 -3 55 -14 20 -39 -115
-120 -223 -213 -282 -157 -101 -500 -169 -642 -128 -31 9 -62 24 -69 32 -10
12 -14 64 -15 188 -2 177 -7 207 -32 207 -11 0 -13 -7 -9 -27 14 -64 9 -238
-8 -282 -24 -65 -21 -106 11 -130 60 -48 198 -66 356 -48 63 7 67 6 67 -13 0
-11 -6 -20 -13 -20 -7 0 -50 -5 -96 -11 -110 -13 -205 1 -291 44 -92 46 -100
63 -70 166 20 71 22 95 17 179 -10 153 0 142 -132 142 -110 0 -112 0 -123 -25
-6 -14 -15 -25 -20 -25 -17 0 -21 13 -11 32 24 44 -21 1 -82 -80 -56 -75 -65
-83 -88 -77 -14 3 -34 14 -44 24 -18 17 -18 20 7 81 33 81 27 89 -8 11z m1324
-1007 c0 -16 -16 -19 -25 -4 -8 13 4 32 16 25 5 -4 9 -13 9 -21z"/>
<path d="M3605 5070 c3 -30 5 -86 5 -123 0 -60 3 -71 26 -94 27 -27 39 -27
182 -7 45 7 43 9 46 -55 0 -16 4 -32 8 -36 10 -10 223 52 293 85 34 16 82 47
107 69 46 41 118 162 118 197 0 11 -18 -17 -39 -61 -64 -134 -167 -206 -371
-259 l-95 -24 -3 36 c-5 54 -18 65 -71 58 -136 -19 -148 -19 -170 3 -18 18
-21 34 -22 104 0 45 -4 100 -9 122 -9 37 -9 36 -5 -15z"/>
<path d="M3727 5083 c7 -47 9 -49 27 -34 20 17 36 6 36 -25 0 -39 23 -38 111
1 45 21 94 38 110 39 26 1 69 30 69 48 0 4 -81 8 -179 8 l-180 0 6 -37z m171
-11 c2 -12 -1 -22 -6 -22 -15 0 -34 28 -27 40 10 17 30 6 33 -18z"/>
<path d="M4186 5084 c-21 -26 -25 -39 -17 -47 24 -24 13 -40 -25 -34 -27 5
-43 1 -63 -13 -14 -11 -46 -30 -71 -42 -44 -23 -45 -24 -45 -73 l0 -50 35 1
c90 2 258 120 306 215 36 73 34 79 -33 79 -54 0 -60 -2 -87 -36z"/>
<path d="M4791 5071 c-19 -87 -59 -191 -106 -271 -50 -86 -189 -257 -239 -295
-19 -15 -36 -38 -39 -55 -4 -16 -13 -46 -22 -66 l-15 -37 -38 34 c-20 19 -15
10 12 -18 48 -51 51 -52 69 -35 11 9 34 47 53 84 21 41 49 79 74 99 30 24 42
42 46 70 7 42 37 78 49 59 4 -6 14 -39 22 -73 7 -34 26 -82 41 -106 15 -24 36
-60 47 -80 22 -39 60 -57 53 -24 -2 10 -11 17 -21 15 -20 -3 -24 24 -4 31 6 3
2 6 -9 6 -15 1 -33 18 -54 51 l-32 50 38 43 c22 23 84 98 139 166 55 68 137
169 183 224 68 85 82 108 82 137 l0 35 -159 3 -159 4 -11 -51z m213 -8 c4 -4
-26 -19 -66 -33 l-73 -25 3 -40 c5 -83 -16 -138 -99 -265 -69 -105 -99 -135
-99 -100 0 18 115 190 127 190 26 0 47 64 50 150 l2 85 68 21 c82 26 78 26 87
17z m-244 -277 c0 -10 -63 -106 -67 -102 -5 5 24 75 38 93 11 12 29 18 29 9z"/>
<path d="M2196 5048 c-9 -12 -16 -34 -15 -48 1 -21 2 -19 9 10 5 18 16 40 26
47 10 7 13 13 6 13 -6 0 -18 -10 -26 -22z"/>
<path d="M2311 5047 c-24 -62 -32 -106 -29 -152 l3 -50 75 -2 c171 -4 412 -37
462 -64 33 -18 41 -46 27 -100 -16 -63 -10 -70 96 -99 99 -27 249 -87 356
-141 60 -30 79 -44 75 -55 -3 -9 -6 -20 -6 -25 0 -16 -19 -10 -115 35 -161 76
-428 166 -494 166 -9 0 -31 15 -48 34 -37 38 -53 43 -180 52 -52 4 -94 12 -96
18 -8 21 12 56 33 56 40 0 272 -41 291 -51 11 -5 22 -24 26 -40 3 -18 9 -27
15 -21 12 12 -7 59 -29 71 -29 15 -317 59 -437 67 l-109 7 6 61 c4 33 9 73 13
89 4 16 2 27 -4 27 -6 0 -12 -12 -14 -27 -2 -22 -9 -29 -33 -33 -29 -5 -30 -7
-39 -83 -7 -59 -6 -81 3 -86 7 -5 11 -25 9 -52 l-3 -44 105 0 105 0 5 -30 c5
-28 9 -30 50 -33 135 -7 460 -69 483 -92 7 -6 -4 -41 -18 -58 -1 -2 -58 7
-126 20 -104 19 -156 22 -324 21 -129 0 -221 -6 -260 -14 -56 -13 -60 -16 -63
-44 -4 -51 7 -58 74 -45 139 27 419 24 577 -7 24 -5 27 -3 27 21 0 32 22 43
55 28 21 -10 23 -15 15 -42 -10 -36 -29 -62 -40 -55 -4 2 -12 -7 -19 -22 -10
-23 -16 -25 -49 -20 -198 31 -368 31 -570 0 -56 -8 -105 -13 -108 -10 -3 3 -8
33 -11 67 -7 70 -25 87 -53 50 -11 -15 -23 -21 -34 -17 -20 8 -21 50 -1 67 22
18 20 44 -2 35 -42 -18 -78 -17 -97 4 -18 20 -18 22 -2 40 10 10 32 22 51 25
44 9 57 26 49 66 -7 32 -8 32 -49 26 -24 -3 -85 -19 -136 -35 -51 -17 -95 -29
-97 -26 -2 2 -6 21 -9 43 l-5 40 58 22 c33 12 95 31 139 42 171 42 155 34 155
76 -1 20 -7 48 -16 62 l-15 25 8 -25 c4 -14 7 -40 8 -59 l0 -35 -90 -21 c-129
-30 -256 -75 -262 -92 -4 -11 45 -183 74 -259 5 -15 -52 -48 -71 -41 -7 3 -19
27 -26 54 -15 54 -49 134 -50 116 0 -7 9 -35 20 -63 11 -28 20 -55 20 -60 0
-5 -57 -43 -127 -85 -94 -57 -128 -73 -134 -63 -10 15 12 41 58 69 19 12 32
23 29 26 -3 3 -31 -13 -63 -36 -33 -23 -69 -41 -81 -41 -27 0 -27 -6 -2 -48
l21 -33 32 20 c100 64 167 85 167 52 0 -5 -44 -33 -97 -61 -54 -29 -127 -73
-163 -98 -163 -116 -381 -345 -502 -527 -111 -168 -229 -444 -253 -595 -16
-107 -22 -119 -62 -122 -58 -5 -71 -33 -84 -175 -15 -172 14 -448 60 -565 12
-31 47 -40 37 -10 -3 9 -19 55 -35 102 -41 117 -54 234 -49 421 5 183 13 205
78 215 43 7 49 17 65 124 23 146 127 396 240 579 106 171 342 421 511 543 98
70 256 156 261 141 2 -6 29 -48 59 -94 31 -46 65 -102 76 -123 l20 -40 -22
-18 c-36 -29 -52 -18 -85 57 -17 39 -34 76 -38 83 -14 21 -52 13 -97 -19 -76
-55 -300 -250 -300 -262 0 -6 7 -18 15 -27 13 -15 7 -26 -65 -119 -44 -56 -80
-108 -80 -114 1 -14 17 5 80 93 69 96 191 220 217 220 12 0 34 -12 48 -27 45
-48 47 -57 16 -87 l-27 -26 -24 25 c-30 32 -40 31 -72 -2 -55 -59 -66 -123
-22 -123 11 0 12 4 4 19 -16 30 -12 47 16 80 32 38 40 39 58 2 15 -28 14 -30
-31 -82 -25 -30 -47 -56 -49 -58 -1 -2 -15 6 -30 18 -32 26 -37 23 -99 -65
-72 -101 -53 -114 25 -16 23 28 46 52 51 52 23 0 19 -33 -9 -67 -16 -21 -59
-88 -96 -150 -81 -135 -87 -141 -121 -119 -13 9 -31 16 -40 16 -20 0 -70 -111
-99 -220 -19 -69 -27 -85 -42 -85 -16 0 -19 7 -19 45 1 25 4 63 8 85 9 49 -3
19 -28 -67 -10 -37 -21 -58 -30 -58 -19 0 -19 41 0 95 9 26 11 43 4 51 -11 13
-2 44 13 44 5 0 17 -4 26 -9 14 -7 24 5 59 80 l41 88 -34 22 c-19 11 -34 23
-34 26 0 12 73 133 80 133 20 0 20 -22 1 -49 -12 -16 -21 -37 -21 -48 0 -10
10 1 24 27 23 44 32 49 71 35 11 -3 8 1 -7 10 -16 8 -28 21 -28 28 0 32 205
271 225 263 9 -3 11 2 7 17 -5 19 -12 14 -65 -43 -67 -72 -177 -216 -177 -232
0 -5 -9 -7 -19 -3 -22 7 -51 -31 -118 -155 -85 -156 -138 -308 -166 -471 -17
-96 -20 -93 107 -103 50 -4 98 -12 108 -17 18 -10 24 -34 11 -42 -5 -3 -59 0
-122 7 -123 13 -125 12 -119 -41 3 -26 7 -28 53 -33 28 -3 55 -9 61 -13 7 -4
11 -35 11 -82 -1 -74 -2 -75 -27 -75 -42 0 -48 -14 -33 -76 13 -51 13 -58 -6
-97 -19 -38 -19 -46 -7 -82 8 -22 16 -55 18 -74 3 -33 2 -34 -87 -80 -108 -55
-108 -56 -44 -186 39 -80 61 -107 76 -91 3 3 -11 56 -32 117 -41 120 -40 130
16 144 25 6 27 3 58 -87 44 -131 160 -357 235 -462 35 -49 101 -129 145 -177
67 -73 81 -92 76 -112 -4 -16 -1 -28 12 -38 17 -13 17 -13 4 4 -12 16 -12 20
0 32 12 13 25 6 94 -51 111 -90 220 -164 242 -164 37 0 45 -15 19 -39 -30 -28
-26 -31 -200 103 -90 70 -136 100 -136 89 0 -21 39 -63 54 -57 14 5 133 -102
124 -111 -4 -4 -20 2 -36 14 -37 26 -36 26 -56 -4 -16 -24 -15 -25 22 -50 l37
-25 26 31 26 31 50 -36 c28 -20 55 -36 61 -36 6 0 27 14 46 30 l34 31 129 -68
c70 -37 131 -71 134 -76 12 -18 -13 -67 -42 -84 -30 -18 -38 -38 -17 -45 10
-4 8 -31 -5 -119 -10 -63 -20 -128 -23 -146 -4 -25 5 -46 41 -102 25 -39 54
-75 65 -81 10 -5 41 -10 69 -10 l50 0 19 53 c38 102 82 248 77 256 -2 5 -54
21 -115 36 -89 22 -113 25 -125 15 -18 -15 -20 -88 -4 -123 22 -49 104 -73
145 -42 45 34 72 5 39 -42 -34 -49 -128 -37 -196 24 -36 32 -39 40 -39 87 0
100 29 176 81 212 34 23 43 25 65 15 18 -8 24 -18 22 -34 -2 -18 -9 -22 -38
-20 -27 2 -19 -3 35 -21 119 -39 119 -39 132 -6 13 36 17 36 148 10 l100 -19
18 24 c10 14 25 25 33 25 9 0 14 12 14 36 0 34 1 36 28 30 15 -4 37 -18 49
-31 19 -21 31 -25 82 -25 33 0 72 5 86 10 l27 10 -7 84 c-9 110 -4 126 44 126
46 0 77 20 68 45 -5 10 -13 15 -23 11 -77 -30 -441 -32 -569 -4 -60 13 -60 13
-59 48 1 40 29 106 48 113 7 3 32 1 57 -4 79 -15 311 -22 389 -11 42 6 102 23
134 37 31 14 61 23 66 20 4 -3 11 -59 15 -126 4 -67 11 -117 16 -112 5 5 4 59
-2 122 -9 93 -9 115 2 125 20 18 214 96 238 96 14 0 27 -13 41 -39 11 -22 24
-43 30 -46 14 -9 139 63 237 136 84 64 213 186 213 203 0 19 -77 96 -95 96
-10 0 -45 -26 -79 -57 -145 -136 -272 -211 -527 -312 -102 -41 -150 -53 -245
-66 -246 -33 -486 10 -724 130 -152 76 -236 139 -368 272 -105 106 -123 129
-118 149 4 14 -1 35 -14 56 -11 18 -20 36 -20 39 0 3 16 27 36 53 l35 46 -36
60 c-177 291 -227 610 -146 923 17 65 38 131 47 148 8 17 13 33 10 36 -15 15
-64 -136 -90 -276 -20 -106 -20 -289 -1 -410 9 -52 14 -95 13 -96 -11 -11 -78
-32 -82 -27 -2 4 -7 24 -11 45 -4 20 -11 37 -16 37 -11 0 -4 -39 28 -160 28
-109 108 -283 177 -384 26 -39 45 -77 43 -85 -4 -19 -100 125 -152 229 -50
100 -111 288 -126 388 -7 53 -10 143 -6 240 5 141 9 171 43 292 20 74 36 152
35 173 -1 30 2 37 18 37 36 0 44 -24 27 -77 -20 -63 -56 -237 -46 -226 4 4 15
46 24 92 10 46 28 113 42 148 13 36 24 69 24 73 0 4 -13 13 -30 20 -34 14 -37
22 -15 40 12 10 28 7 80 -12 75 -26 73 -13 26 -150 -45 -132 -64 -245 -64
-388 1 -197 43 -354 155 -571 73 -143 160 -254 269 -346 243 -204 507 -294
823 -280 139 6 232 25 353 73 142 56 312 173 425 291 l57 60 -45 47 c-24 25
-44 55 -44 66 0 11 31 54 70 95 45 49 82 102 105 150 55 115 112 363 87 379
-6 4 -8 28 -6 59 3 28 1 77 -4 107 -9 52 -10 49 -11 -53 -1 -104 -2 -107 -21
-97 -17 9 -20 21 -21 83 0 40 -5 81 -10 92 -7 14 -8 4 -4 -35 3 -30 5 -74 5
-96 0 -37 3 -43 31 -55 l32 -13 -6 -71 c-8 -87 -47 -226 -87 -305 -17 -33 -62
-96 -100 -141 -39 -44 -70 -90 -70 -101 0 -26 -60 -108 -113 -153 -59 -51 -68
-43 -13 12 44 43 74 92 106 172 7 18 33 62 56 98 83 123 146 282 160 401 6 54
4 61 -14 71 -11 6 -25 11 -30 11 -4 0 -16 -35 -26 -77 -50 -216 -152 -370
-369 -561 -20 -18 -37 -39 -37 -48 0 -17 70 -174 78 -174 3 0 16 10 30 23 23
22 24 22 38 3 22 -31 17 -51 -26 -90 -22 -20 -43 -36 -46 -36 -7 0 0 43 11 71
4 11 0 18 -13 21 -22 6 -83 143 -84 189 -1 34 -12 36 -55 9 -40 -24 -41 -33
-7 -72 32 -39 74 -121 74 -146 0 -27 -27 -48 -101 -78 -114 -47 -114 -47 -149
-7 -36 40 -36 64 0 74 23 6 23 7 3 8 -33 2 -53 -9 -53 -28 0 -22 67 -101 86
-101 8 0 53 16 101 35 48 19 91 35 96 35 4 0 7 -12 5 -28 -2 -22 -14 -32 -58
-54 -130 -64 -381 -108 -539 -94 -219 20 -431 98 -590 216 -84 62 -205 187
-259 267 -47 70 -47 69 -28 76 9 4 32 -19 65 -63 174 -233 540 -446 781 -453
64 -2 78 16 16 21 -104 8 -306 71 -348 109 -25 22 -23 37 20 126 22 44 33 77
26 77 -21 0 -158 95 -221 154 -185 171 -288 373 -315 616 -13 119 -3 247 28
368 12 47 13 67 5 75 -19 19 -12 55 25 130 76 149 190 286 327 391 77 58 259
152 276 142 5 -4 15 -31 21 -62 10 -45 15 -54 28 -49 42 17 155 36 242 40 52
3 110 8 128 10 25 3 32 0 32 -13 0 -25 -67 -95 -83 -86 -6 4 -9 4 -5 0 4 -5
-13 -32 -38 -62 -24 -30 -44 -59 -44 -65 0 -5 7 -23 15 -40 9 -16 13 -34 10
-38 -3 -5 -29 -14 -58 -21 -50 -11 -53 -10 -74 15 -13 14 -23 30 -23 35 0 12
53 40 75 40 12 0 13 3 5 13 -6 6 -16 20 -23 30 -11 16 -15 16 -64 2 -28 -8
-71 -24 -94 -35 l-43 -19 -13 30 -13 30 -40 -22 c-22 -12 -51 -35 -65 -49 -25
-26 -26 -31 -17 -78 l9 -50 -59 -63 c-32 -34 -58 -66 -58 -71 0 -4 -7 -8 -15
-8 -26 0 -16 -14 32 -47 59 -40 74 -33 26 11 l-37 34 63 65 c34 36 76 71 92
78 28 11 32 10 63 -20 28 -27 37 -31 52 -22 48 27 48 27 25 59 -29 41 -27 48
21 73 40 20 42 20 55 3 7 -10 13 -31 13 -47 0 -24 3 -28 18 -22 9 4 42 11 72
17 89 17 92 20 75 103 -6 27 -1 36 53 88 67 63 74 65 164 41 109 -28 136 -42
131 -69 -4 -17 1 -25 16 -30 45 -14 169 -105 223 -163 32 -35 73 -95 94 -137
20 -41 39 -73 42 -70 12 11 -73 158 -121 211 -54 59 -128 119 -186 148 -44 23
-28 45 20 26 153 -64 339 -324 391 -550 13 -58 6 -70 -44 -70 l-28 0 0 -102
c0 -115 -26 -246 -62 -309 -20 -37 -23 -38 -40 -22 -10 9 -20 14 -23 11 -3 -3
4 -13 15 -23 19 -17 19 -18 -10 -76 -17 -32 -30 -62 -30 -66 0 -12 61 87 77
124 14 36 33 42 53 18 17 -21 -17 -70 -127 -185 -84 -87 -112 -106 -114 -75
-2 16 -3 22 -11 45 -27 79 -29 91 -17 124 10 28 9 37 -3 55 -15 21 -13 26 18
79 19 31 43 84 53 117 15 48 23 61 41 63 32 5 47 -13 28 -35 -14 -17 -38 -76
-38 -94 0 -8 64 -39 81 -39 19 0 70 232 55 248 -4 4 -35 9 -69 12 l-62 5 -3
45 c-3 51 18 93 38 74 8 -8 8 -18 -1 -37 -20 -43 -6 -59 48 -55 l48 3 -3 50
c-4 79 -22 145 -59 215 -33 63 -38 59 -12 -7 12 -29 11 -38 -9 -79 -13 -26
-27 -43 -32 -38 -4 5 -20 40 -35 78 l-28 70 27 23 c15 13 36 23 47 23 19 0 24
18 19 65 -5 48 -101 149 -229 240 -53 38 -55 39 -160 42 l-106 3 -46 -49 -45
-49 75 -12 c42 -7 92 -22 111 -33 19 -12 58 -30 85 -39 48 -17 96 -59 153
-132 12 -16 25 -27 28 -23 3 3 -20 35 -50 71 -60 71 -65 85 -38 108 52 46 60
45 125 -23 49 -52 87 -110 87 -133 0 -2 -20 -16 -45 -30 -53 -32 -56 -46 -21
-133 24 -58 25 -65 16 -194 -12 -195 -54 -300 -164 -417 l-64 -67 35 -62 c28
-51 32 -66 23 -83 -11 -21 -98 -70 -125 -70 -18 0 -20 23 -4 48 9 14 7 27 -10
60 -12 23 -22 42 -24 42 -1 0 -27 -9 -57 -21 -30 -12 -86 -24 -125 -28 -68 -6
-70 -7 -73 -35 l-4 -29 89 6 c48 3 98 9 110 12 18 6 23 2 29 -19 3 -14 12 -30
20 -37 22 -18 17 -27 -23 -38 -89 -25 -193 -33 -266 -23 -93 14 -169 38 -197
60 l-22 18 41 51 40 51 61 -19 c73 -22 80 -23 80 -6 0 7 -36 23 -84 38 -47 14
-82 21 -80 15 6 -15 -47 -96 -63 -96 -22 0 -46 46 -35 67 17 31 50 56 67 50
26 -10 17 -3 -50 47 -107 79 -201 214 -220 317 -10 57 -15 60 -65 45 -40 -12
-45 -17 -48 -45 -4 -40 14 -47 63 -26 21 8 39 14 40 13 1 -2 8 -23 15 -47 8
-24 27 -64 43 -89 26 -42 28 -50 18 -78 -6 -17 -8 -39 -5 -48 6 -16 -30 -66
-47 -66 -5 0 -24 14 -44 31 -63 56 -150 279 -143 366 3 37 4 38 47 41 23 2 56
-1 72 -7 29 -10 29 -10 29 30 l0 39 -74 0 c-41 0 -77 4 -81 9 -7 12 14 150 26
174 6 9 17 17 26 17 12 0 14 -7 10 -30 -6 -25 -3 -30 13 -30 14 0 20 -7 20
-21 0 -16 -4 -19 -20 -14 -18 6 -20 2 -20 -36 l0 -42 50 6 c66 8 70 11 70 57
0 41 9 54 33 44 12 -4 13 -13 6 -42 -5 -20 -9 -73 -9 -117 -1 -145 52 -267
161 -369 213 -201 504 -204 706 -7 134 131 185 282 162 486 -21 180 -100 306
-237 378 -104 55 -169 70 -281 65 -86 -3 -105 -8 -171 -39 -131 -63 -236 -168
-292 -290 -13 -27 -28 -49 -34 -49 -14 0 -196 79 -208 90 -20 19 75 186 166
292 26 31 48 62 48 68 0 14 -66 -62 -124 -144 -61 -85 -111 -193 -137 -295
-19 -74 -21 -104 -16 -230 7 -204 41 -295 160 -427 50 -55 54 -63 35 -82 -9
-9 -25 2 -69 47 -63 65 -119 158 -150 250 -15 43 -27 62 -42 67 -35 11 -49 40
-21 46 13 2 16 25 19 143 3 145 14 204 59 317 70 173 213 336 382 435 35 20
64 40 64 44 0 15 -39 97 -48 103 -8 5 -67 -10 -80 -19 -1 -1 2 -14 8 -29 8
-21 6 -29 -8 -40 -9 -8 -53 -43 -97 -78 -100 -80 -190 -187 -255 -304 -28 -51
-57 -95 -64 -97 -18 -7 -45 -120 -56 -239 -20 -211 26 -391 149 -578 38 -58
197 -230 213 -230 5 0 -24 36 -64 80 -40 44 -73 85 -73 91 0 6 10 18 21 26 20
13 27 8 125 -103 123 -139 158 -176 182 -189 25 -14 14 -97 -12 -88 -9 3 0 -6
19 -20 20 -13 72 -36 116 -50 85 -27 271 -52 304 -42 38 12 60 -3 60 -41 l0
-34 -112 0 c-126 0 -245 22 -348 64 -35 14 -66 26 -70 26 -4 0 -12 -12 -19
-26 -17 -38 -3 -49 105 -84 113 -36 247 -58 369 -61 150 -3 136 -11 133 77
l-3 77 78 18 c44 11 83 17 87 14 11 -7 33 -75 27 -82 -3 -2 -15 -2 -27 2 -12
4 -19 9 -16 12 8 8 -13 43 -26 43 -6 0 -4 -8 5 -18 10 -10 14 -21 11 -25 -3
-3 4 -11 17 -17 24 -14 78 -2 112 24 22 17 17 54 -13 104 l-19 31 -47 -14
c-26 -8 -50 -13 -53 -12 -3 1 -16 -4 -29 -12 -106 -58 -399 -53 -569 10 -57
22 -57 22 -54 85 2 37 -1 43 -32 62 -19 11 -49 41 -67 67 l-32 47 17 37 c11
26 14 49 10 73 -7 35 -5 38 80 136 2 2 13 -2 25 -8 l21 -11 -25 -34 c-32 -42
-32 -46 0 -94 23 -35 25 -45 18 -99 l-6 -60 65 -32 66 -32 -6 -47 -5 -48 63
-14 c83 -18 254 -16 348 5 70 15 74 15 88 -1 14 -17 14 -17 7 2 -4 11 -9 38
-12 61 l-4 40 91 48 c87 47 163 96 147 96 -4 0 -36 -17 -70 -38 -35 -21 -89
-51 -119 -67 -31 -16 -60 -39 -66 -51 -12 -27 -77 -43 -208 -51 -98 -6 -123 1
-123 38 0 17 8 19 79 19 43 0 102 5 131 10 68 13 205 71 295 126 42 25 73 38
76 32 4 -6 11 -8 17 -5 5 4 17 -2 26 -12 16 -18 16 -20 -16 -44 -18 -14 -62
-40 -96 -57 -35 -17 -62 -34 -59 -36 2 -3 44 14 93 38 248 118 405 406 405
744 0 61 -5 140 -11 174 -23 129 -88 272 -168 370 -70 85 -71 87 -36 63 39
-28 91 -84 186 -203 42 -52 93 -111 113 -130 20 -19 48 -52 61 -72 78 -121 41
68 -41 217 -36 65 -139 195 -155 195 -5 0 -26 -11 -46 -25 -20 -14 -41 -25
-46 -25 -15 0 -103 96 -124 135 -24 44 -10 65 32 46 20 -9 25 -16 20 -35 -4
-17 3 -33 28 -62 33 -38 33 -38 60 -21 14 10 26 21 26 26 0 23 -184 157 -301
220 -110 59 -209 89 -342 102 l-117 12 0 30 0 30 88 -6 c228 -16 470 -120 672
-287 33 -28 60 -46 60 -41 0 11 -107 99 -183 150 -146 99 -371 176 -545 188
l-93 6 3 31 3 31 85 -3 c96 -3 232 -35 345 -83 107 -44 232 -126 362 -236 92
-77 112 -99 107 -115 -4 -13 2 -28 19 -46 46 -50 125 -181 155 -259 62 -165
77 -250 77 -448 -1 -198 -8 -235 -46 -214 -18 9 -20 16 -13 47 5 21 8 106 9
191 0 145 1 154 20 162 16 6 16 8 3 8 -42 2 -43 -3 -39 -159 4 -182 -6 -246
-66 -407 l-46 -123 23 -25 c38 -41 75 -33 104 22 18 35 25 35 96 -2 51 -26 33
0 -19 29 l-50 26 16 48 c25 74 29 76 81 47 31 -18 49 -22 56 -15 7 7 4 10 -10
10 -20 0 -44 17 -44 32 0 5 17 7 38 4 36 -5 36 -5 10 6 -40 17 -34 30 10 23
l37 -5 -40 19 -40 18 -9 -28 c-7 -23 -15 -29 -37 -29 -16 0 -29 2 -29 3 0 2 8
37 19 78 71 281 9 581 -177 865 -42 64 -59 98 -56 115 4 18 -8 37 -48 80 -29
30 -64 63 -78 72 l-24 17 38 39 c44 45 46 75 4 41 l-27 -21 -51 22 c-54 23
-58 30 -35 49 8 7 15 16 15 20 0 11 -131 95 -216 138 -89 44 -205 83 -307 102
-62 11 -69 11 -88 -6 -17 -16 -41 -20 -135 -22 l-114 -4 -10 27 c-5 14 -10 42
-10 60 l0 34 103 4 102 3 -113 1 c-253 2 -545 -97 -762 -258 -141 -104 -316
-297 -402 -443 -19 -32 -32 -44 -43 -40 -8 3 -15 9 -15 13 0 19 127 196 198
277 221 250 476 394 819 463 382 77 735 -13 1082 -273 41 -31 78 -56 83 -56 5
0 5 -8 -1 -17 -7 -15 12 -41 100 -137 60 -66 131 -151 156 -190 46 -70 123
-226 158 -319 17 -46 17 -48 -1 -68 -28 -31 -89 -60 -101 -48 -6 6 -2 -27 8
-73 33 -150 34 -340 3 -449 -3 -11 10 -20 46 -33 46 -17 49 -20 44 -44 -15
-70 -48 -170 -66 -201 -16 -29 -17 -38 -7 -57 22 -41 -51 -189 -168 -342 -38
-51 -35 -67 25 -107 68 -47 86 -26 22 25 -23 18 -40 39 -38 47 4 22 121 182
133 182 20 1 95 -79 95 -101 0 -27 -38 -88 -54 -88 -23 0 -65 40 -59 55 7 20
22 19 45 -2 27 -24 22 0 -6 26 l-24 22 -16 -22 c-9 -13 -16 -29 -16 -36 0 -14
98 -90 120 -93 41 -6 55 15 25 40 -13 11 -12 17 6 50 19 34 20 42 9 76 -7 21
-32 55 -55 76 l-42 39 28 69 c46 115 87 240 106 330 24 113 24 335 0 440 -9
41 -18 84 -20 95 -2 11 -9 30 -16 43 -10 19 -9 28 8 56 30 48 54 161 48 228
-4 40 -17 81 -47 140 -70 138 -77 147 -145 179 -67 31 -229 164 -220 180 12
18 29 8 106 -65 56 -54 91 -79 129 -93 59 -20 62 -24 129 -143 112 -200 143
-349 145 -702 1 -203 3 -227 18 -231 24 -7 29 25 29 187 1 91 -5 167 -15 216
-26 124 -23 132 63 146 38 6 42 9 37 30 -31 123 -174 423 -270 566 -98 147
-347 428 -379 428 -7 0 20 -34 61 -75 72 -71 74 -75 60 -97 -8 -13 -40 -41
-71 -62 l-57 -40 -43 32 c-248 184 -438 274 -687 328 -132 29 -438 26 -580 -6
-172 -38 -153 -41 -179 29 -12 34 -26 61 -32 61 -5 0 -66 -25 -135 -57 -90
-41 -128 -53 -136 -45 -20 20 -1 39 84 85 47 26 93 59 107 78 22 29 23 35 11
63 -37 89 4 129 46 46 13 -25 25 -48 26 -52 2 -4 29 2 61 14 34 12 61 17 67
12 4 -5 10 -31 12 -58 3 -48 2 -49 -32 -61 -35 -12 -50 -39 -33 -56 6 -6 33
-1 68 11 33 11 112 28 177 37 97 13 119 20 124 35 6 20 9 20 104 18 146 -3
340 -33 454 -71 99 -34 246 -106 253 -126 11 -31 34 -52 121 -109 82 -55 94
-70 106 -126 4 -16 13 -28 22 -28 17 0 104 57 104 68 0 4 -21 29 -48 55 -37
36 -52 45 -70 41 -12 -4 -22 -2 -22 3 0 5 -16 28 -36 52 l-37 42 -21 -20 c-28
-26 -68 -27 -90 -2 -13 14 -17 32 -14 67 l3 48 -60 25 c-33 14 -62 27 -65 29
-10 8 70 72 90 72 43 0 218 -100 362 -207 180 -134 412 -379 455 -481 7 -18
18 -30 23 -27 6 3 10 1 10 -6 0 -6 20 -42 45 -80 24 -37 63 -106 87 -153 29
-60 48 -86 60 -86 24 0 23 -17 -1 -30 -36 -19 -47 -10 -80 63 -74 168 -253
414 -437 603 -78 79 -190 174 -206 174 -6 0 2 -10 18 -22 136 -103 390 -391
512 -582 37 -57 99 -185 127 -261 10 -28 28 -59 41 -70 25 -22 43 -75 26 -75
-6 0 -14 9 -17 20 -3 11 -11 20 -16 20 -11 0 -12 3 6 -45 8 -24 19 -38 27 -36
29 9 51 5 61 -11 14 -22 -7 -48 -39 -48 -23 0 -24 -3 -18 -42 8 -50 20 -69 30
-44 3 9 26 30 49 46 37 25 44 27 49 14 4 -10 -6 -27 -27 -48 -67 -62 -71 -74
-69 -220 3 -143 -16 -275 -63 -445 -19 -72 -23 -97 -14 -107 6 -8 9 -27 6 -43
-10 -51 -77 -213 -138 -334 -32 -65 -59 -123 -59 -129 0 -15 -66 -123 -113
-185 -30 -41 -38 -59 -34 -80 3 -15 1 -36 -4 -46 -12 -22 -2 -57 15 -57 7 0
33 28 57 61 24 34 58 80 74 103 61 82 142 202 179 263 21 35 43 63 51 63 13 0
68 121 100 219 l18 54 -34 29 c-31 27 -32 29 -9 23 66 -18 68 -17 85 8 45 70
95 370 95 577 0 168 -18 370 -32 370 -5 0 -7 -12 -4 -27 33 -156 35 -446 6
-618 -23 -136 -57 -275 -72 -292 -6 -7 -21 -13 -34 -13 -23 0 -23 1 -9 41 60
169 89 471 66 687 -20 194 -89 429 -175 600 -20 39 -36 82 -36 95 0 13 -20 52
-45 88 -25 35 -45 69 -45 74 0 6 17 25 37 43 44 39 28 32 -38 -15 -26 -18 -53
-33 -62 -33 -8 0 -46 39 -83 88 -122 156 -291 310 -469 429 -105 70 -265 153
-296 153 -12 0 -39 -16 -60 -35 -44 -39 -58 -42 -119 -20 -23 8 -60 15 -80 15
-21 0 -45 3 -54 6 -25 10 -19 42 12 61 15 9 33 23 39 32 12 13 19 13 66 -2 30
-9 59 -17 64 -17 6 0 18 21 27 47 9 25 23 55 33 65 32 36 113 11 113 -35 1
-16 14 -28 52 -46 144 -67 419 -273 594 -443 67 -65 125 -118 129 -118 4 0 40
20 80 44 l73 44 44 -61 c55 -77 144 -225 152 -253 4 -13 0 -27 -12 -37 -16
-15 -20 -12 -57 54 -38 69 -60 84 -83 56 -8 -9 1 -30 35 -81 33 -49 42 -71 34
-79 -19 -19 -12 -37 13 -37 15 0 37 15 61 41 33 37 36 44 30 82 l-6 42 40 -43
c102 -110 224 -441 268 -726 24 -152 25 -516 1 -543 -8 -10 -28 -74 -43 -143
-41 -187 -126 -419 -173 -472 -34 -39 -102 -10 -102 44 0 34 23 52 58 45 28
-6 29 -5 70 116 95 278 116 411 116 712 0 223 -1 249 -27 365 -42 197 -127
433 -160 446 -7 2 -32 -3 -55 -13 l-41 -18 38 -85 c21 -47 50 -123 66 -170 15
-47 34 -93 42 -102 8 -9 12 -21 9 -26 -3 -6 3 -63 14 -127 57 -331 -5 -821
-134 -1068 -25 -48 -46 -94 -46 -101 0 -15 54 -53 120 -84 55 -27 56 -26 109
95 60 138 118 315 146 449 14 65 33 142 43 169 14 41 17 86 17 240 0 105 -4
218 -9 253 l-8 63 28 -7 27 -7 -6 74 c-3 41 -15 121 -27 177 -23 113 -111 394
-117 375 -3 -7 16 -72 41 -145 45 -133 78 -277 91 -395 6 -53 5 -63 -8 -63
-22 0 -23 1 -47 145 -23 134 -48 228 -102 373 -20 53 -28 86 -21 93 5 5 126
68 269 140 243 123 308 159 291 159 -3 0 -135 -66 -292 -146 -201 -103 -285
-151 -285 -162 0 -10 15 -60 34 -112 19 -52 41 -119 49 -147 15 -50 15 -53 -2
-63 -17 -8 -23 2 -56 98 -93 272 -218 479 -431 716 -191 212 -187 206 -168
227 9 11 23 19 30 19 14 0 208 -204 274 -288 23 -30 84 -118 136 -198 52 -79
97 -144 99 -144 6 0 -80 144 -135 225 -68 101 -153 205 -255 313 -108 114
-117 120 -161 96 -39 -21 -53 -14 -31 19 15 23 13 25 -71 91 -105 85 -133 97
-162 71 -11 -10 -30 -33 -41 -51 l-20 -33 -32 19 c-18 10 -59 26 -92 35 -33 9
-89 34 -125 56 -112 66 -270 131 -469 192 -67 20 -70 32 -32 133 30 78 32 89
18 99 -23 17 -274 63 -407 75 -149 13 -160 13 -160 -4 0 -10 26 -15 108 -20
193 -13 442 -59 442 -82 0 -18 -4 -18 -148 11 -68 14 -196 30 -283 37 l-159
12 0 48 0 48 123 0 c135 0 253 -17 396 -55 52 -14 97 -23 100 -20 10 11 -22
23 -142 55 -66 17 -187 54 -270 81 -82 27 -156 49 -163 49 -8 0 -18 -10 -23
-23z m-468 -572 c2 -11 -34 -30 -76 -41 -25 -6 -28 -4 -25 12 2 11 18 23 43
30 44 14 56 13 58 -1z m487 -70 c18 -21 5 -45 -25 -45 -20 0 -25 5 -25 23 0
39 26 50 50 22z m278 -12 c3 -21 -1 -23 -42 -23 -43 0 -46 2 -46 26 0 23 3 25
43 22 35 -2 43 -7 45 -25z m160 -10 c14 -3 22 -13 22 -25 0 -18 -4 -20 -32
-14 -18 4 -52 9 -76 13 -45 6 -58 16 -46 34 6 11 73 7 132 -8z m807 -67 c104
-49 349 -261 466 -404 47 -57 56 -74 44 -78 -9 -4 -26 3 -39 15 -20 19 -27 21
-43 10 -18 -11 -31 -1 -133 105 -180 186 -363 312 -412 285 -22 -12 -48 -1
-48 22 0 19 72 69 100 69 8 0 38 -11 65 -24z m285 -116 c118 -100 240 -221
240 -238 0 -5 -7 -15 -16 -22 -13 -12 -26 -3 -92 62 -86 83 -176 161 -269 232
-35 26 -63 51 -63 56 0 5 7 16 16 25 21 20 30 15 184 -115z m-2067 55 c15 -31
27 -58 27 -60 0 -3 -30 -20 -67 -39 -38 -20 -82 -45 -100 -56 l-32 -21 -34 58
c-26 43 -32 61 -23 70 14 15 177 103 191 103 6 0 23 -25 38 -55z m117 -157 c0
-7 -33 -28 -74 -46 -82 -37 -114 -57 -105 -66 3 -4 50 14 105 38 61 27 103 41
109 35 15 -15 -13 -35 -114 -79 l-95 -41 -18 23 c-32 42 -23 52 80 101 107 51
112 53 112 35z m-376 -119 c29 -34 25 -61 -4 -34 -22 20 -36 4 -21 -24 8 -14
7 -22 -5 -32 -11 -9 -14 -22 -10 -44 5 -26 1 -36 -23 -59 -36 -35 -50 -31 -91
26 -33 46 -34 76 -2 112 18 20 113 86 123 86 4 0 19 -14 33 -31z m270 -65 c10
-26 8 -29 -36 -54 -210 -115 -426 -324 -567 -548 l-33 -52 26 -21 c35 -27 33
-45 -9 -85 -37 -35 -72 -104 -95 -186 -14 -54 -19 -56 -97 -31 -52 16 -54 18
-47 47 44 209 381 653 629 828 49 35 201 118 216 118 4 0 10 -7 13 -16z m-216
-29 c2 -14 -7 -26 -27 -38 -28 -17 -30 -17 -40 0 -7 14 -5 23 12 41 25 27 51
25 55 -3z m649 -108 c-3 -8 -40 -25 -81 -37 -42 -13 -74 -25 -72 -27 3 -3 44
7 93 21 91 26 250 53 259 43 3 -3 3 -19 0 -34 -7 -29 -8 -30 -107 -41 -56 -7
-108 -17 -117 -22 -13 -8 -6 -9 23 -4 22 4 45 7 50 8 6 0 11 -20 13 -45 3 -52
2 -53 -71 -64 l-45 -7 -11 38 c-6 22 -11 45 -11 52 0 20 -36 14 -112 -18 -38
-16 -72 -30 -74 -30 -5 0 -33 67 -40 96 -5 20 4 27 78 63 45 23 112 50 148 60
l65 18 9 -28 c5 -15 6 -34 3 -42z m514 23 c67 -22 161 -61 208 -86 123 -65
271 -174 237 -174 -3 0 -40 25 -83 56 -109 79 -276 158 -408 192 -60 16 -111
34 -113 40 -6 20 33 13 159 -28z m899 -142 c47 -52 87 -94 89 -92 3 3 -8 17
-23 33 -15 16 -23 31 -18 35 13 8 77 -64 131 -147 40 -61 43 -70 29 -84 -23
-22 -52 -3 -92 60 -19 29 -46 63 -61 77 -40 37 -165 196 -165 210 0 24 27 1
110 -92z m-1720 16 c11 -26 20 -53 20 -60 0 -7 -28 -32 -61 -55 -171 -116
-336 -318 -410 -501 l-23 -58 22 -23 22 -24 -20 -84 c-42 -174 -36 -359 15
-524 14 -44 25 -83 25 -87 0 -5 -19 -22 -42 -38 l-42 -31 -18 36 c-25 47 -40
36 -24 -18 11 -37 15 -42 41 -42 22 0 31 -5 33 -20 2 -11 12 -29 21 -40 10
-11 33 -42 51 -69 52 -77 154 -180 256 -257 52 -40 94 -75 94 -80 0 -4 -11
-20 -24 -36 l-24 -27 -57 37 c-31 21 -93 73 -137 115 -161 154 -272 335 -324
527 -25 90 -27 118 -28 275 -1 174 -1 176 42 341 23 92 42 177 42 191 0 59
186 326 300 431 59 55 207 166 222 167 4 0 16 -21 28 -46z m498 -6 c-3 -33 -4
-33 -60 -36 l-58 -3 0 30 c0 32 10 37 83 40 37 1 38 0 35 -31z m-811 -148
c-82 -85 -215 -271 -253 -353 -17 -35 -43 -46 -51 -22 -4 14 75 150 142 244
75 104 222 248 237 233 8 -8 -12 -35 -75 -102z m1093 -7 c75 -25 140 -58 140
-72 0 -4 -9 -16 -20 -26 -23 -21 -39 -13 -21 9 10 12 7 17 -16 29 -43 22 -161
57 -194 57 -18 0 -29 5 -29 13 0 32 15 31 140 -10z m1394 -26 c26 -34 34 -71
17 -81 -7 -5 -81 94 -81 109 0 3 9 5 19 5 11 0 31 -15 45 -33z m-2022 3 c0 -5
1 -14 2 -19 1 -5 -40 -36 -90 -69 -161 -108 -288 -262 -349 -425 -38 -102 -47
-150 -54 -297 -5 -117 -8 -135 -23 -138 -16 -3 -18 7 -18 110 1 321 134 568
425 787 78 59 104 71 107 51z m852 -18 c2 -4 1 -14 -4 -22 -7 -11 -11 -11 -24
-1 -9 8 -16 17 -16 22 0 11 37 12 44 1z m945 -125 c-20 -17 -20 -19 -4 -13 52
21 76 -3 25 -24 -27 -11 -32 -11 -45 6 -20 27 -18 39 8 51 33 16 44 3 16 -20z
m548 -83 c89 -220 134 -442 136 -679 2 -162 -8 -300 -22 -324 -5 -7 -17 -11
-27 -7 -18 6 -19 20 -19 273 0 239 -2 278 -22 363 -24 106 -62 222 -117 353
-20 48 -36 91 -36 96 0 12 53 30 63 22 4 -4 24 -47 44 -97z m-1652 61 c31 -30
31 -36 -1 -74 -31 -37 -74 -41 -104 -11 -23 23 -24 29 -10 65 18 47 78 58 115
20z m1165 -35 c0 -16 -41 -33 -52 -22 -6 6 -7 15 -4 21 9 14 56 15 56 1z
m-1375 -135 c82 -22 150 -61 216 -125 126 -123 171 -318 115 -495 -45 -141
-130 -239 -264 -303 -74 -35 -82 -37 -183 -37 -101 0 -108 1 -180 37 -189 93
-289 248 -289 444 0 137 42 238 144 342 127 132 279 179 441 137z m-1562 -235
c32 -7 57 -18 57 -25 0 -7 -8 -48 -17 -91 -12 -57 -17 -127 -18 -249 0 -179
10 -252 52 -384 13 -41 22 -75 21 -76 -12 -10 -111 -36 -125 -33 -13 2 -24 30
-45 113 -14 61 -27 101 -27 90 -1 -34 39 -188 55 -213 17 -27 17 -27 -13 -36
-20 -6 -24 -1 -38 46 -41 139 -50 211 -50 408 0 107 3 222 7 255 5 41 4 53 -2
37 -7 -17 -16 -22 -32 -20 -20 3 -23 8 -20 38 4 45 17 58 42 42 23 -14 25 -12
40 61 11 53 14 58 33 54 12 -3 48 -11 80 -17z m2782 -190 c21 -131 26 -232 12
-227 -7 2 -24 0 -39 -4 l-28 -8 0 87 c0 80 -5 130 -25 249 -7 39 -5 44 16 52
22 8 25 5 37 -28 7 -20 19 -74 27 -121z m-3087 33 c3 -21 -1 -23 -37 -23 -42
0 -57 11 -47 36 4 11 17 14 43 12 31 -2 39 -7 41 -25z m72 3 c0 -22 -19 -30
-35 -16 -22 18 -18 30 10 30 15 0 25 -6 25 -14z m35 -133 c12 -4 15 -27 15
-109 l0 -104 -50 0 -49 0 -3 88 -3 87 -40 3 c-69 4 -85 11 -85 34 0 20 3 21
100 14 56 -4 107 -9 115 -13z m3040 -221 c-8 -62 -24 -62 -19 0 2 24 7 84 11
133 l8 90 3 -85 c2 -47 0 -109 -3 -138z m485 189 c15 -29 12 -188 -6 -298 -8
-54 -18 -100 -20 -103 -3 -3 -19 10 -36 29 -29 32 -29 35 -23 110 9 107 14
127 36 147 15 13 19 30 19 76 0 59 11 74 30 39z m-538 -167 c-4 -45 -8 -52
-23 -37 -14 14 -1 85 15 80 6 -2 10 -20 8 -43z m-2147 -46 c15 -40 50 -106 76
-147 45 -68 48 -75 31 -87 -9 -7 -22 -14 -27 -14 -15 0 -80 113 -110 193 -28
74 -32 113 -12 120 6 3 12 6 13 6 0 1 13 -32 29 -71z m-874 -25 c1 -41 15
-105 19 -88 1 6 3 34 4 64 2 78 22 77 31 -1 4 -35 13 -94 21 -131 8 -38 14
-72 14 -76 0 -9 -132 -61 -156 -61 -8 0 -14 9 -14 19 0 14 11 23 38 31 20 7
40 16 45 19 4 4 -5 57 -19 119 -27 112 -27 142 1 142 11 0 15 -11 16 -37z
m2783 -41 c-9 -38 -45 -144 -56 -166 -7 -12 -13 -15 -20 -8 -8 8 3 48 57 200
9 24 25 1 19 -26z m-2289 -151 c20 -54 59 -138 86 -187 27 -48 49 -90 49 -93
0 -3 -15 -25 -34 -48 l-33 -43 -46 78 c-60 104 -80 144 -109 227 -45 125 -45
123 4 145 24 10 44 19 44 19 1 1 18 -44 39 -98z m3249 63 c23 -9 20 -37 -18
-188 -41 -158 -60 -206 -80 -206 -27 0 -26 17 3 132 16 62 35 142 41 178 18
98 18 98 54 84z m-261 -53 c-2 -53 -16 -70 -41 -55 -12 9 -16 22 -13 50 4 50
8 56 34 52 19 -3 22 -9 20 -47z m-1143 -8 c0 -13 -81 -113 -99 -122 -38 -21
-28 4 27 65 53 59 72 74 72 57z m-1176 -64 c27 -21 33 -52 16 -79 -8 -12 -16
-9 -46 21 -33 33 -35 38 -23 58 17 26 20 26 53 0z m976 1 c0 -19 -36 -47 -48
-36 -5 5 36 56 45 56 2 0 3 -9 3 -20z m-2018 -88 c38 -106 63 -146 89 -139 17
5 25 -4 46 -51 60 -137 162 -285 285 -417 80 -85 233 -225 247 -225 23 0 42
33 36 62 -5 22 0 39 19 69 15 21 28 39 31 39 6 0 195 -147 228 -178 58 -55 30
-52 -102 9 -46 22 -86 37 -89 35 -7 -8 119 -68 223 -105 l100 -37 7 -59 c4
-32 4 -63 -1 -68 -13 -13 -183 48 -301 109 -103 54 -105 55 -119 34 -10 -14
-24 -20 -51 -20 -31 0 -53 11 -117 58 -79 59 -133 109 -133 122 0 4 9 15 20
25 27 24 25 34 -11 75 -84 96 -191 224 -220 265 -18 25 -35 43 -37 40 -8 -7
40 -71 142 -190 92 -107 93 -110 72 -124 -11 -8 -27 -21 -34 -29 -11 -14 -19
-10 -63 33 -52 52 -197 233 -218 272 -10 20 -8 25 29 49 22 15 40 28 40 30 0
2 -16 29 -35 61 -19 32 -35 65 -35 73 0 10 -3 11 -11 3 -9 -9 -4 -27 20 -72
17 -33 31 -62 31 -65 0 -9 -114 -85 -119 -80 -4 3 1 11 9 17 8 7 21 24 28 38
12 23 11 32 -12 78 -15 28 -31 51 -36 51 -5 0 2 -25 17 -55 20 -41 24 -58 16
-66 -13 -13 -40 35 -100 175 -36 84 -34 96 15 96 25 0 26 -3 10 -30 -10 -15
-9 -26 5 -55 15 -31 20 -34 36 -25 11 5 22 14 25 19 3 5 -9 55 -28 112 l-34
104 21 7 c12 3 24 6 27 7 3 1 17 -34 32 -77z m3345 52 c1 -5 -2 -16 -7 -24
-12 -20 -35 2 -26 25 6 17 27 16 33 -1z m-3107 -41 l19 -42 -55 -27 c-30 -15
-56 -25 -58 -23 -2 2 -8 18 -13 34 -6 17 -14 38 -18 48 -6 13 2 21 36 37 24
11 50 19 57 17 7 -1 22 -21 32 -44z m-447 -60 c21 -83 109 -283 166 -381 45
-77 128 -186 228 -298 60 -68 62 -72 45 -88 -18 -15 -24 -10 -113 95 -52 61
-113 138 -137 172 -60 86 -157 280 -213 425 -42 109 -45 123 -30 132 30 17 36
10 54 -57z m321 -7 c7 -32 5 -41 -12 -58 l-20 -20 -15 23 c-9 13 -19 36 -22
51 -6 23 -3 29 16 37 35 14 43 9 53 -33z m181 -47 c16 -33 55 -99 87 -147 l58
-87 -30 -23 c-17 -13 -30 -28 -30 -33 0 -6 68 -77 150 -158 83 -82 150 -153
150 -159 0 -5 -6 -15 -14 -21 -34 -29 -249 183 -369 364 -55 84 -152 264 -145
270 6 5 103 54 109 55 3 0 18 -27 34 -61z m3075 46 c18 -9 30 -24 30 -35 0
-22 -30 -102 -41 -110 -4 -3 -35 -56 -69 -119 -104 -193 -279 -436 -315 -436
-31 0 -28 20 11 66 51 60 123 173 128 201 2 13 23 57 46 98 44 80 99 201 119
262 11 34 46 88 57 88 3 0 18 -7 34 -15z m-1912 -79 c8 -4 8 -15 2 -31 -13
-33 -3 -54 27 -62 38 -9 211 4 266 21 44 13 47 13 47 -4 0 -14 -14 -21 -67
-31 -86 -17 -294 -18 -351 -1 l-44 13 7 42 c10 59 28 77 69 67 19 -4 38 -10
44 -14z m722 -38 c-58 -49 -79 -53 -25 -5 28 25 52 43 55 40 3 -3 -11 -18 -30
-35z m-2219 -181 c-13 -13 -26 -3 -16 12 3 6 11 8 17 5 6 -4 6 -10 -1 -17z
m525 -28 c18 -20 18 -21 -6 -40 -32 -24 -36 -24 -56 6 -30 46 24 76 62 34z
m-439 -45 c12 -19 14 -30 7 -42 -17 -27 -32 -25 -49 8 -13 25 -14 35 -4 46 16
20 26 18 46 -12z m534 -61 c36 -38 84 -85 108 -107 39 -34 42 -40 32 -62 -6
-13 -14 -24 -19 -24 -15 0 -155 124 -200 176 l-42 49 23 17 c12 10 25 18 28
18 3 0 35 -30 70 -67z m-457 -71 c-16 -24 -34 -21 -57 10 -21 28 -21 28 -1 42
17 13 21 12 44 -10 20 -19 23 -28 14 -42z m2440 -10 c12 -20 -195 -198 -219
-188 -15 5 -21 36 -7 36 4 0 52 36 106 80 100 80 111 87 120 72z m-2382 -37
c9 -21 9 -29 -3 -41 -13 -13 -18 -12 -39 11 -19 20 -21 27 -10 40 18 22 39 18
52 -10z m118 -130 c0 -6 -8 -15 -19 -22 -16 -10 -24 -6 -56 27 l-38 39 24 20
24 21 32 -38 c18 -20 33 -42 33 -47z m100 29 c0 -19 -28 -30 -42 -16 -8 8 -8
15 1 26 14 17 41 10 41 -10z m41 -129 c44 -36 98 -77 119 -91 41 -28 42 -33 6
-79 -8 -11 -16 -15 -16 -8 0 7 -6 10 -14 7 -12 -5 -121 73 -211 150 l-40 35
24 25 c14 14 31 26 38 26 8 0 50 -29 94 -65z m254 -156 c46 -31 183 -99 254
-126 93 -35 240 -69 362 -83 93 -11 109 -11 137 4 65 34 40 -11 -42 -72 -37
-28 -92 -28 -226 -2 -135 26 -254 63 -370 115 -75 34 -208 104 -229 121 -2 2
7 17 19 33 25 36 53 39 95 10z m915 -249 c24 -24 25 -47 3 -72 -18 -21 -53
-24 -71 -6 -18 18 -15 75 6 87 25 15 40 13 62 -9z m-522 -138 c6 -9 12 -27 12
-40 0 -21 -3 -23 -32 -17 -46 10 -48 12 -48 51 0 32 2 34 28 28 15 -4 33 -13
40 -22z"/>
<path d="M1077 3215 c-9 -19 -15 -35 -13 -35 2 0 13 16 25 35 11 19 17 35 13
35 -5 0 -16 -16 -25 -35z"/>
<path d="M1032 3125 c-30 -62 -27 -71 4 -12 14 27 24 51 22 53 -3 2 -14 -17
-26 -41z"/>
<path d="M987 3018 c-9 -23 -15 -43 -13 -45 2 -2 11 15 20 38 9 23 15 43 13
45 -2 2 -11 -15 -20 -38z"/>
<path d="M2030 3731 c0 -10 29 -36 34 -30 1 2 -6 12 -16 22 -10 9 -18 13 -18
8z"/>
<path d="M2367 3110 c-65 -17 -120 -51 -183 -114 -73 -73 -128 -169 -145 -252
-36 -175 69 -368 247 -455 63 -31 77 -34 159 -34 81 0 97 3 162 34 85 39 165
117 209 202 28 52 29 60 29 190 l0 135 -37 76 c-67 134 -187 216 -330 223 -40
3 -90 0 -111 -5z m226 -30 c70 -26 162 -108 199 -177 35 -65 51 -152 46 -259
-5 -115 -29 -166 -122 -260 -89 -88 -160 -119 -276 -119 -66 0 -85 4 -145 34
-173 85 -276 266 -246 433 27 153 185 333 325 369 49 13 156 2 219 -21z"/>
<path d="M2428 3013 c18 -2 45 -2 60 0 15 2 0 4 -33 4 -33 0 -45 -2 -27 -4z"/>
<path d="M2368 3003 c7 -3 16 -2 19 1 4 3 -2 6 -13 5 -11 0 -14 -3 -6 -6z"/>
<path d="M2566 2990 c70 -28 142 -93 170 -155 13 -27 24 -44 24 -37 0 23 -38
89 -70 121 -39 38 -105 78 -145 86 -17 3 -7 -3 21 -15z"/>
<path d="M2259 2961 c-61 -39 -149 -142 -149 -174 0 -5 18 18 40 51 40 59 84
101 144 134 17 9 26 17 20 18 -5 0 -30 -13 -55 -29z"/>
<path d="M2764 2675 c1 -98 -2 -116 -25 -166 -45 -96 -122 -155 -232 -179
l-42 -9 49 4 c97 10 190 84 237 191 25 55 34 156 22 224 -7 36 -9 23 -9 -65z"/>
<path d="M2096 2748 c-3 -13 -5 -32 -5 -43 1 -11 5 -2 10 19 10 42 6 62 -5 24z"/>
<path d="M2091 2633 c-2 -49 42 -137 95 -190 57 -57 179 -124 224 -122 19 1
16 3 -13 10 -50 12 -111 43 -172 89 -54 40 -107 124 -124 196 -5 23 -9 30 -10
17z"/>
<path d="M920 2845 c-7 -36 -10 -68 -8 -70 3 -3 10 25 17 61 6 37 10 68 8 71
-3 2 -10 -26 -17 -62z"/>
<path d="M902 2730 c0 -19 2 -27 5 -17 2 9 2 25 0 35 -3 9 -5 1 -5 -18z"/>
<path d="M893 2640 c0 -25 2 -35 4 -22 2 12 2 32 0 45 -2 12 -4 2 -4 -23z"/>
<path d="M892 2320 c0 -19 2 -27 5 -17 2 9 2 25 0 35 -3 9 -5 1 -5 -18z"/>
<path d="M1912 2079 c2 -6 8 -10 13 -10 5 0 11 4 13 10 2 6 -4 11 -13 11 -9 0
-15 -5 -13 -11z"/>
<path d="M4190 1869 c0 -5 5 -7 10 -4 6 3 10 8 10 11 0 2 -4 4 -10 4 -5 0 -10
-5 -10 -11z"/>
<path d="M1663 935 c123 -60 259 -111 322 -119 17 -2 23 -1 15 1 -8 3 -58 19
-110 35 -52 17 -149 57 -214 89 -65 32 -124 59 -130 58 -6 0 47 -29 117 -64z"/>
<path d="M2038 803 c6 -2 18 -2 25 0 6 3 1 5 -13 5 -14 0 -19 -2 -12 -5z"/>
<path d="M2104 790 c16 -5 61 -11 100 -14 56 -4 61 -3 26 3 -78 14 -159 21
-126 11z"/>
<path d="M3310 5050 c0 -5 5 -10 10 -10 6 0 10 5 10 10 0 6 -4 10 -10 10 -5 0
-10 -4 -10 -10z"/>
<path d="M3665 5008 c15 -67 53 -103 102 -95 l28 4 -31 2 c-40 1 -71 31 -84
81 -13 48 -25 54 -15 8z"/>
<path d="M3893 4978 c-50 -29 -90 -54 -88 -56 4 -4 185 98 185 104 0 6 -2 6
-97 -48z"/>
<path d="M4938 4708 c-96 -117 -180 -212 -187 -210 -18 4 28 -54 54 -68 42
-23 90 13 193 146 128 164 124 157 120 205 l-3 42 -125 -161 c-121 -156 -145
-177 -188 -170 -21 3 18 55 255 341 35 44 62 81 60 83 -2 3 -83 -91 -179 -208z"/>
<path d="M219 4818 c-9 -16 -9 -23 -1 -26 30 -10 458 -701 483 -781 3 -8 26
13 61 56 30 38 90 105 132 148 67 70 77 78 86 62 6 -9 21 -29 33 -43 l22 -25
55 41 c30 22 57 45 58 50 7 20 -15 9 -57 -27 -48 -40 -64 -39 -91 11 -15 27
-14 28 25 62 66 58 196 154 208 154 12 0 32 -27 76 -102 26 -43 39 -42 87 9
35 37 50 41 58 16 3 -10 16 -31 29 -47 l24 -29 41 23 c23 13 42 28 42 32 0 5
-9 27 -20 49 -21 41 -20 59 5 59 11 0 8 13 -10 53 -39 85 -38 97 18 128 27 14
85 39 129 54 66 23 84 26 100 16 13 -8 30 -9 56 -2 20 5 49 12 64 15 28 6 53
39 43 55 -6 11 -192 -37 -280 -72 -77 -30 -369 -180 -460 -236 -159 -98 -310
-236 -469 -428 l-51 -62 -18 30 -19 29 41 46 40 46 -71 81 c-63 73 -134 175
-310 447 -30 47 -65 94 -77 104 -21 19 -22 19 -37 -2 -8 -12 -21 -19 -30 -15
-13 5 -13 8 2 24 10 11 12 19 6 19 -6 0 -17 -10 -23 -22z m1179 -297 c-2 -8
-16 -22 -31 -31 -26 -14 -29 -14 -43 4 -21 29 -17 49 14 68 26 17 28 17 45 -4
10 -12 16 -28 15 -37z m148 -56 c20 -49 18 -63 -15 -80 -38 -19 -51 -2 -23 28
18 20 19 25 7 47 -18 33 -18 40 1 40 8 0 22 -16 30 -35z m-36 -30 c0 -13 -29
-29 -37 -21 -3 2 0 14 7 25 11 22 30 20 30 -4z"/>
<path d="M0 4791 c0 -34 5 -42 35 -61 19 -12 32 -26 29 -31 -3 -6 -15 -4 -30
5 -27 19 -34 20 -34 6 0 -5 26 -23 58 -39 44 -22 62 -26 81 -20 26 10 51 -4
51 -29 0 -12 -4 -12 -21 4 -22 19 -22 19 -10 -4 7 -12 10 -26 7 -31 -3 -5 4
-17 15 -27 37 -34 60 -91 62 -159 2 -52 -2 -69 -21 -94 -26 -35 -29 -49 -6
-30 33 27 47 71 41 130 -5 53 -3 59 19 74 33 21 41 19 58 -14 17 -31 13 -41
-16 -41 -26 0 -40 -43 -37 -119 2 -62 2 -64 -33 -90 -55 -41 -249 -223 -243
-229 2 -3 52 41 111 97 108 104 184 161 215 161 10 0 24 12 31 28 10 20 21 27
41 27 15 -1 27 3 27 8 0 4 -16 31 -35 60 -19 28 -35 58 -35 66 0 16 -127 197
-178 253 -32 36 -163 138 -176 138 -3 0 -6 -18 -6 -39z"/>
<path d="M3601 4787 c-1 -21 5 -30 27 -38 31 -12 113 -4 175 17 23 7 31 12 17
9 -155 -31 -205 -27 -213 17 -4 20 -4 20 -6 -5z"/>
<path d="M3007 4673 c-14 -13 -7 -54 11 -60 9 -3 73 -27 141 -54 68 -27 131
-49 141 -49 16 0 30 18 30 39 0 10 -79 46 -207 95 -97 38 -106 40 -116 29z"/>
<path d="M5080 4600 c-17 -22 -29 -40 -26 -40 10 0 66 60 66 70 0 17 -7 11
-40 -30z"/>
<path d="M0 4605 c0 -3 29 -33 64 -68 67 -66 86 -105 86 -183 0 -57 -43 -137
-101 -187 -28 -24 -49 -51 -49 -62 0 -16 7 -12 41 20 23 22 57 64 77 94 29 45
36 66 40 123 6 86 -14 142 -72 202 -40 41 -86 74 -86 61z"/>
<path d="M5040 4488 c-62 -63 -86 -79 -134 -94 -48 -15 -61 -24 -76 -54 -10
-20 -26 -43 -36 -50 -15 -13 -20 -10 -50 24 -21 25 -39 36 -49 33 -19 -8 -19
-26 0 -33 28 -11 15 -33 -27 -46 -40 -12 -118 -76 -118 -97 0 -5 9 -12 20 -16
13 -4 46 -59 100 -169 44 -90 87 -170 97 -177 15 -13 16 -12 8 6 -5 11 -11 52
-13 91 l-3 71 103 36 c57 20 138 46 181 59 67 19 77 25 77 45 0 15 -10 28 -30
38 -81 42 -81 160 0 229 30 25 31 27 28 102 l-3 77 -75 -75z m-110 -203 c0
-18 -37 -38 -56 -31 -22 9 -16 23 14 34 38 14 42 14 42 -3z m-103 -30 c3 -9 3
-19 -1 -22 -7 -7 -36 16 -36 28 0 15 30 10 37 -6z m-87 -10 c0 -3 -7 -16 -15
-28 -12 -19 -12 -26 -1 -47 14 -27 15 -27 64 -8 28 11 37 10 60 -3 15 -8 33
-28 41 -44 12 -25 12 -32 0 -54 -8 -14 -28 -32 -44 -40 -43 -21 -76 -5 -101
48 -12 24 -28 49 -36 55 -40 29 -45 95 -9 116 18 10 41 13 41 5z m219 -70 c23
-71 26 -94 11 -79 -14 14 -51 125 -44 135 9 15 12 11 33 -56z"/>
<path d="M4782 4118 c-18 -18 -15 -43 8 -63 18 -17 21 -17 45 -1 40 27 28 76
-20 76 -12 0 -26 -5 -33 -12z"/>
<path d="M4108 4485 c-21 -12 -34 -25 -30 -31 12 -19 125 -114 135 -114 6 0 3
8 -6 18 -21 23 -22 42 -3 42 7 0 19 6 25 14 9 11 2 22 -36 53 l-48 40 -37 -22z"/>
<path d="M5 4439 c9 -50 9 -90 -1 -169 -6 -50 -5 -53 11 -40 47 39 58 125 26
196 -28 62 -46 68 -36 13z"/>
<path d="M4562 4458 c-28 -28 -1 -75 38 -63 33 11 21 75 -15 75 -6 0 -16 -5
-23 -12z"/>
<path d="M1420 4392 c0 -15 61 -92 73 -92 14 0 6 16 -33 60 -22 25 -40 39 -40
32z"/>
<path d="M4601 4360 c-19 -17 -26 -18 -39 -8 -13 11 -15 10 -9 -12 9 -34 -33
-103 -86 -141 l-41 -29 -40 37 -41 38 42 -44 42 -44 38 25 c22 14 57 52 78 84
22 33 50 71 64 87 29 32 26 34 -8 7z"/>
<path d="M1242 4293 c-30 -19 -51 -37 -48 -40 2 -3 30 13 62 36 70 50 60 53
-14 4z"/>
<path d="M5105 4299 c-4 -12 -2 -26 4 -32 8 -8 11 -2 11 21 0 37 -6 41 -15 11z"/>
<path d="M454 4239 c-8 -13 13 -29 41 -29 17 0 17 -2 5 -10 -9 -6 -10 -10 -3
-10 21 0 25 21 7 41 -19 21 -39 25 -50 8z"/>
<path d="M1235 4230 c4 -14 14 -32 22 -40 12 -12 11 -7 -2 20 -22 45 -29 52
-20 20z"/>
<path d="M290 4192 c-19 -9 -92 -71 -162 -137 l-127 -120 0 -128 c-1 -125 -1
-127 19 -115 16 11 20 24 20 74 0 47 5 69 23 95 29 43 79 77 126 85 49 9 54
14 106 110 54 99 77 118 132 108 87 -15 91 -33 34 -150 l-38 -80 28 -32 c27
-30 39 -79 23 -95 -4 -4 -19 2 -34 13 -36 26 -37 26 -71 -12 -33 -34 -35 -63
-4 -63 14 0 20 7 21 25 2 45 4 50 18 50 8 0 23 -8 35 -17 l21 -18 -41 -80
c-52 -100 -61 -110 -107 -110 -36 0 -38 -2 -74 -75 -20 -41 -37 -81 -37 -87
-1 -7 10 -15 24 -19 38 -9 33 -42 -7 -46 -27 -2 -34 -9 -42 -35 -7 -28 -14
-33 -38 -33 -29 0 -30 1 -23 40 7 39 5 41 -27 54 -19 8 -46 18 -61 21 l-27 7
1 -118 0 -119 30 92 c30 89 44 109 67 94 8 -5 4 -30 -14 -86 -14 -44 -28 -114
-31 -155 -7 -94 9 -133 62 -150 34 -11 41 -23 29 -53 -3 -9 -13 -13 -26 -9
-11 3 -24 -1 -29 -9 -16 -25 -10 -39 17 -39 22 0 25 -4 22 -27 -2 -23 -8 -29
-35 -31 l-31 -3 -8 -87 c-14 -143 -7 -505 10 -622 20 -128 66 -315 107 -430
48 -134 49 -125 -11 -145 -28 -9 -49 -19 -46 -22 3 -3 26 2 52 11 26 9 51 16
55 16 7 0 99 -185 99 -199 0 -4 -17 -13 -37 -21 -21 -8 -41 -16 -45 -18 -3 -2
-13 10 -21 27 -12 24 -12 32 -1 43 10 11 10 23 0 68 -13 58 -32 73 -56 45 -11
-14 -8 -21 21 -51 l33 -34 -20 -21 -20 -20 -26 20 c-14 11 -40 54 -59 96 -37
84 -60 103 -28 24 37 -96 77 -149 111 -149 9 0 24 -12 31 -27 18 -36 42 -124
39 -141 -3 -13 73 21 112 51 19 14 19 15 -4 46 -21 31 -22 34 -6 49 16 16 18
16 34 -4 9 -11 24 -30 32 -43 14 -21 18 -22 43 -10 24 11 30 11 38 -2 5 -8 7
-18 6 -24 -2 -5 -67 -46 -145 -90 -77 -44 -143 -83 -147 -86 -3 -3 8 -40 25
-82 65 -163 77 -296 33 -356 -16 -21 -221 -160 -258 -174 -6 -3 -7 -7 -4 -11
7 -8 233 134 267 168 31 30 56 127 47 186 -4 25 -23 94 -42 154 -29 90 -33
111 -21 122 7 7 69 45 137 84 113 64 126 69 140 55 15 -15 13 -19 -19 -45 -34
-28 -35 -29 -22 -62 100 -249 113 -341 57 -405 l-24 -28 11 40 c18 67 4 169
-42 300 -45 128 -47 131 -56 122 -3 -3 12 -53 35 -111 57 -149 68 -219 46
-308 -12 -51 -14 -73 -6 -81 6 -6 11 -7 11 -2 0 5 6 1 12 -8 12 -15 17 -14 63
14 28 17 101 67 162 112 l113 80 -63 67 c-133 141 -218 251 -312 406 -46 76
-73 111 -97 123 -27 14 -48 47 -138 226 -142 279 -175 406 -187 708 -6 153 -6
157 14 157 11 0 41 3 66 6 44 6 45 6 52 -25 12 -56 0 -71 -57 -71 l-50 0 7
-87 c21 -272 69 -438 178 -614 l22 -35 40 23 c22 12 43 23 47 23 3 0 36 -56
72 -125 56 -108 64 -129 55 -149 -9 -20 -5 -33 28 -87 60 -99 87 -139 94 -139
3 0 23 14 44 30 l38 30 25 -22 24 -23 -46 -41 -46 -40 32 -45 c17 -24 75 -88
127 -142 l96 -98 63 57 63 57 -29 17 c-55 33 -318 307 -392 408 -141 192 -295
494 -339 663 -49 192 -64 320 -59 522 3 155 2 177 -11 177 -9 0 -32 5 -52 10
l-36 10 8 53 c14 88 85 366 124 482 40 121 170 392 265 553 l62 104 -24 44
c-12 24 -38 65 -56 90 -56 76 -154 105 -232 66z m-54 -157 c8 -21 -15 -47 -39
-43 -27 4 -32 22 -12 42 21 20 44 21 51 1z m334 -60 c0 -17 -32 -65 -44 -65
-26 0 -26 14 1 42 25 26 43 36 43 23z m-62 -73 c7 -5 10 -16 6 -25 -8 -21 -20
-22 -28 -1 -13 33 -4 42 22 26z m-305 -631 c5 -5 7 -21 3 -36 -6 -23 -10 -26
-36 -20 -25 5 -30 3 -35 -17 -13 -57 -10 -72 17 -85 35 -18 28 -53 -12 -53
-18 0 -30 -7 -37 -22 -11 -23 -11 -23 -23 7 -16 42 -15 84 6 172 l18 75 45 -6
c25 -3 49 -10 54 -15z m-97 -573 c-3 -13 -6 -49 -6 -80 0 -32 -4 -58 -10 -58
-11 0 -14 118 -4 144 9 25 27 19 20 -6z m92 -330 c3 -15 -4 -18 -37 -18 -35 0
-41 3 -41 21 0 17 5 20 37 17 27 -2 39 -8 41 -20z m-4 -60 c13 -49 7 -65 -25
-72 -43 -8 -49 -2 -49 50 0 43 0 44 34 44 26 0 35 -5 40 -22z m51 -209 c4 -5
-1 -19 -11 -30 -16 -17 -16 -25 -6 -63 22 -84 55 -158 83 -191 35 -40 37 -55
4 -55 -21 0 -30 12 -64 83 -38 79 -81 208 -81 240 0 25 62 38 75 16z m89 -627
c13 -26 36 -54 51 -62 l27 -14 -29 -23 c-15 -13 -34 -23 -41 -23 -7 0 -28 33
-47 73 -30 65 -31 73 -17 85 25 19 30 15 56 -36z m576 -376 c6 -8 10 -25 8
-38 -4 -30 -56 -38 -75 -12 -17 23 -16 29 3 48 19 20 48 20 64 2z m-285 -246
c30 -58 16 -142 -33 -192 -28 -31 -31 -32 -51 -19 -12 8 -9 16 17 45 35 40 47
86 39 152 -5 51 6 57 28 14z m65 -50 c0 -5 -4 -10 -8 -10 -5 0 -14 -10 -20
-22 -10 -22 -11 -22 -11 -2 -1 20 16 44 31 44 4 0 8 -4 8 -10z"/>
<path d="M1082 4165 c-27 -25 -57 -45 -65 -45 -9 0 -62 -42 -119 -94 -116
-105 -139 -129 -141 -148 -2 -7 -19 -41 -40 -74 -20 -34 -40 -77 -44 -95 -3
-19 -26 -72 -49 -119 -24 -47 -44 -89 -44 -93 0 -12 92 -49 100 -40 4 4 34 49
67 98 78 117 167 228 259 325 l74 77 -21 27 c-32 41 -54 49 -87 32 -39 -20
-145 -135 -178 -193 -15 -27 -39 -60 -53 -75 -13 -16 -20 -28 -15 -28 6 0 21
11 34 25 47 51 55 23 9 -30 -42 -48 -76 -46 -71 4 2 19 13 49 25 67 93 139
267 324 306 324 12 0 41 -18 66 -41 l44 -40 40 27 c49 32 55 44 7 15 -45 -28
-55 -27 -99 18 l-38 38 31 27 c17 14 36 26 42 26 14 0 106 -68 110 -81 2 -7 9
-5 16 4 11 12 5 21 -38 52 -27 20 -50 41 -50 46 0 21 -31 6 -78 -36z"/>
<path d="M2387 4203 c-4 -3 -7 -17 -7 -30 0 -22 2 -23 78 -21 l77 2 -72 3
c-65 4 -73 6 -73 24 0 18 5 20 43 15 23 -3 91 -10 150 -16 168 -17 388 -80
486 -140 59 -37 25 -33 -81 10 -127 51 -279 89 -378 94 -41 3 -61 3 -45 0 145
-20 191 -29 265 -51 47 -13 125 -40 174 -60 80 -32 90 -34 104 -19 9 8 13 18
10 21 -19 19 -209 91 -303 115 -126 32 -414 68 -428 53z"/>
<path d="M385 4119 c-4 -6 -4 -13 -1 -16 8 -8 36 5 36 17 0 13 -27 13 -35 -1z"/>
<path d="M436 4093 c-16 -21 -23 -24 -57 -18 l-39 7 -31 -67 c-19 -40 -34 -92
-38 -129 -9 -88 -49 -141 -111 -148 -34 -4 -40 29 -7 37 14 4 40 22 58 41 29
30 32 37 23 61 -7 23 -16 29 -45 31 -31 3 -41 -3 -72 -38 -27 -29 -37 -49 -37
-74 0 -18 -3 -47 -6 -63 -5 -26 -2 -31 17 -36 50 -13 155 56 191 126 11 23 43
64 70 91 53 53 111 156 106 186 -3 16 -5 15 -22 -7z"/>
<path d="M4536 4005 c15 -22 41 -56 58 -75 49 -56 99 -139 92 -155 -9 -24 -30
-18 -66 20 -37 38 -39 39 -59 26 -11 -7 -3 -26 35 -90 27 -44 55 -81 62 -81 7
0 27 7 44 16 17 9 39 14 49 11 28 -7 24 5 -28 91 -66 110 -95 149 -159 217
-44 47 -50 51 -28 20z"/>
<path d="M4958 3968 c-115 -39 -148 -54 -148 -68 0 -9 13 -48 29 -86 22 -55
32 -68 47 -66 10 2 67 27 126 54 77 36 108 56 108 68 0 16 -8 15 -72 -11 -88
-34 -105 -35 -113 -8 -9 27 -4 31 90 69 44 18 85 37 90 42 11 10 -1 6 -115
-41 -47 -19 -78 -27 -84 -21 -10 10 49 39 152 75 28 11 52 25 52 32 0 17 7 19
-162 -39z"/>
<path d="M2531 3948 c-1 -27 -3 -27 -73 -31 l-73 -3 77 -2 c42 -1 79 1 81 6 2
4 1 18 -4 32 l-7 25 -1 -27z"/>
<path d="M2692 3930 c188 -41 330 -101 522 -224 65 -42 121 -75 123 -72 5 5
-165 117 -247 163 -123 70 -382 155 -460 152 -14 -1 14 -9 62 -19z"/>
<path d="M594 3778 c-84 -134 -221 -411 -260 -521 -67 -192 -89 -343 -50 -344
6 0 43 -4 82 -8 l70 -7 23 84 c12 46 44 136 71 199 28 63 50 115 50 116 0 0
-27 10 -60 21 l-60 21 -16 -37 c-39 -94 -96 -278 -101 -328 -5 -49 -8 -55 -27
-52 -32 5 -42 48 -28 126 12 73 58 220 93 302 21 49 23 50 55 44 l33 -6 41 85
c41 84 42 86 25 115 -17 27 -16 30 5 73 13 24 41 73 64 109 58 91 58 90 49 90
-5 0 -31 -37 -59 -82z m-161 -699 c31 -8 37 -14 31 -27 -4 -9 -13 -45 -21 -79
-14 -58 -17 -63 -42 -63 -52 0 -57 11 -43 91 17 99 14 95 75 78z"/>
<path d="M4475 3754 c10 -17 26 -41 37 -55 l20 -24 -17 31 c-10 17 -26 41 -37
55 l-20 24 17 -31z"/>
<path d="M5080 3695 c-14 -8 -59 -31 -101 -50 l-77 -35 54 -137 c29 -74 55
-137 57 -140 10 -9 77 -15 77 -6 0 5 -22 63 -49 129 -57 137 -57 142 25 184
33 17 50 32 52 48 4 26 -3 27 -38 7z"/>
<path d="M282 3688 c-17 -17 -15 -26 7 -38 26 -14 58 15 40 36 -14 17 -31 18
-47 2z m38 -19 c0 -5 -7 -9 -15 -9 -15 0 -20 12 -9 23 8 8 24 -1 24 -14z"/>
<path d="M17 3649 c-9 -5 -17 -14 -17 -20 0 -5 11 -2 25 7 41 27 95 -4 95 -54
-1 -51 -50 -89 -95 -72 -20 8 -26 7 -23 -2 3 -7 18 -14 35 -16 39 -4 90 39 99
83 11 58 -65 105 -119 74z"/>
<path d="M5073 3603 c-18 -9 -33 -20 -33 -23 0 -4 18 -54 40 -111 l39 -104 1
128 c0 70 -3 127 -7 126 -5 0 -23 -8 -40 -16z"/>
<path d="M23 3594 c-8 -22 10 -49 32 -49 10 0 22 7 28 16 15 24 1 49 -28 49
-15 0 -28 -7 -32 -16z"/>
<path d="M162 3562 c-18 -59 -63 -96 -117 -97 -47 0 -59 -9 -25 -20 51 -16
124 36 154 109 19 45 19 46 8 46 -5 0 -14 -17 -20 -38z"/>
<path d="M4871 3513 c108 -228 174 -541 167 -788 -3 -121 -6 -134 -32 -182
-21 -38 -51 -70 -106 -112 -84 -66 -102 -87 -120 -148 -18 -59 -4 -79 60 -85
66 -7 73 -15 62 -66 -9 -38 -8 -43 15 -57 22 -15 24 -22 18 -53 -22 -122 -227
-650 -264 -682 -16 -13 -16 -16 7 -35 l23 -20 -65 -98 c-89 -133 -180 -243
-354 -427 -81 -85 -128 -139 -105 -121 52 42 268 271 347 369 32 40 95 128
140 195 44 67 88 123 96 125 9 1 23 -3 32 -10 15 -12 9 -25 -55 -138 -92 -159
-159 -255 -265 -382 l-85 -101 31 -61 c44 -83 61 -102 101 -110 32 -6 38 -1
123 81 206 200 489 546 476 583 -2 6 -22 -17 -44 -52 -22 -35 -74 -105 -114
-157 l-73 -93 -56 6 c-125 14 -211 29 -211 36 0 4 8 18 18 30 l18 23 115 -16
114 -16 17 22 c10 12 18 24 18 27 0 3 -48 11 -107 18 -60 7 -111 16 -115 20
-4 5 -1 17 6 28 14 20 16 20 133 4 65 -9 122 -13 127 -9 13 11 -3 29 -26 29
-34 0 -198 32 -198 39 0 3 7 14 14 24 14 18 19 18 142 2 122 -16 129 -16 141
1 12 16 10 20 -9 30 -13 6 -71 17 -130 24 -60 7 -108 15 -108 17 0 2 5 13 10
24 13 24 48 24 95 2 27 -13 40 -15 53 -7 28 18 21 56 -15 77 l-32 18 -13 -31
-13 -32 -62 42 c-34 22 -65 49 -68 59 -3 10 20 80 54 162 107 260 157 434 179
617 11 93 6 100 -78 104 -59 3 -65 5 -68 26 -3 23 -2 23 60 17 35 -3 73 -8 86
-11 16 -3 22 0 23 13 7 124 20 218 38 263 39 103 25 367 -30 583 -26 103 -101
322 -128 375 -32 64 -41 50 -10 -15z m-139 -2647 c60 -7 110 -14 112 -17 2 -2
-9 -19 -26 -38 l-30 -34 -102 18 c-55 10 -109 22 -118 27 -36 17 -13 58 32 57
14 0 73 -6 132 -13z m-153 -96 c13 -6 17 -17 13 -35 -4 -25 -5 -25 -23 -9 -11
10 -20 15 -22 13 -26 -37 -91 -109 -98 -109 -23 0 -4 40 45 93 59 62 59 62 85
47z m140 -56 c9 -8 -166 -174 -183 -174 -27 0 -19 13 49 83 36 37 63 67 61 67
-2 0 -12 3 -22 7 -12 4 -15 3 -10 -5 7 -12 -100 -142 -116 -142 -20 0 -3 30
47 83 30 31 55 61 55 65 0 23 27 33 70 27 25 -4 47 -9 49 -11z m-195 -70 c-25
-29 -51 -51 -56 -48 -9 6 1 21 56 81 49 54 49 25 0 -33z"/>
<path d="M4726 3514 c-59 -30 -67 -38 -62 -57 3 -12 26 -80 50 -152 41 -119
74 -269 93 -420 7 -52 11 -60 31 -63 22 -3 22 -3 22 132 0 128 1 136 19 136
28 0 37 -21 16 -36 -15 -12 -19 -32 -23 -124 l-5 -110 52 0 51 0 0 83 c0 94
-11 140 -43 187 -30 45 -69 72 -114 79 -43 7 -60 31 -65 96 -3 34 0 40 17 40
14 0 22 -11 30 -42 8 -36 17 -46 55 -65 25 -13 58 -41 75 -65 16 -23 34 -42
38 -42 33 -3 -119 451 -153 456 -8 1 -46 -14 -84 -33z"/>
<path d="M2322 3529 c-29 -5 -68 -15 -86 -23 -32 -13 -34 -13 -45 7 -9 19 -10
18 -4 -8 10 -52 22 -68 46 -60 35 11 137 33 202 44 l60 10 -75 -5 c-41 -2
-102 -11 -135 -18 -63 -15 -83 -12 -65 9 14 16 81 33 180 44 61 7 66 8 25 9
-27 0 -74 -4 -103 -9z"/>
<path d="M3479 3447 c95 -104 161 -194 213 -291 45 -86 51 -80 7 7 -51 101
-105 172 -206 275 l-95 97 81 -88z"/>
<path d="M566 3418 c-21 -30 -20 -45 3 -58 30 -16 38 -13 52 21 11 28 10 33
-6 45 -25 19 -31 18 -49 -8z"/>
<path d="M1020 3425 c0 -8 5 -15 10 -15 6 0 10 7 10 15 0 8 -4 15 -10 15 -5 0
-10 -7 -10 -15z"/>
<path d="M962 3364 c-48 -33 -12 -111 38 -84 21 11 36 52 25 69 -14 24 -42 30
-63 15z"/>
<path d="M3450 3316 c0 -3 28 -48 63 -99 34 -51 82 -134 107 -185 49 -101 59
-108 118 -72 37 23 38 31 12 85 -11 22 -17 31 -14 20 24 -69 14 -97 -36 -110
-23 -5 -28 1 -73 92 -61 122 -177 299 -177 269z"/>
<path d="M5036 3243 c8 -27 27 -106 41 -178 22 -110 26 -157 26 -300 0 -93 -2
-181 -4 -194 -2 -13 2 -26 9 -28 9 -4 12 56 12 276 0 241 -2 282 -15 287 -8 4
-15 12 -15 19 0 7 7 15 15 19 11 4 15 22 15 76 l0 70 -50 0 -49 0 15 -47z"/>
<path d="M4760 3254 c0 -8 5 -12 10 -9 6 4 8 11 5 16 -9 14 -15 11 -15 -7z"/>
<path d="M0 2947 c0 -90 10 -110 29 -56 15 44 14 59 -9 104 l-20 39 0 -87z"/>
<path d="M255 2850 c-4 -28 -5 -53 -2 -56 2 -3 7 19 11 47 4 28 5 53 3 56 -3
2 -8 -19 -12 -47z"/>
<path d="M4025 2890 c-3 -5 -2 -34 4 -64 16 -89 23 -246 13 -321 -11 -87 -8
-97 31 -93 44 4 51 40 44 241 -5 129 -3 167 6 164 7 -2 16 -34 20 -73 11 -91
5 -360 -8 -372 -6 -6 -41 -5 -88 1 -87 12 -97 7 -97 -44 0 -53 -59 -256 -104
-362 -43 -99 -49 -127 -27 -127 4 0 12 9 17 20 9 19 10 20 33 4 20 -14 22 -22
17 -55 -7 -42 26 -135 44 -124 5 3 10 11 10 17 0 5 14 27 30 48 48 61 113 210
91 210 -6 0 -11 -4 -11 -10 0 -12 -37 -111 -49 -129 -7 -11 -19 -8 -62 18 -88
51 -92 56 -78 83 6 13 13 24 14 26 2 2 27 -9 55 -23 36 -18 55 -23 61 -16 5 6
6 9 3 6 -13 -9 -104 45 -104 62 0 10 12 48 26 85 28 75 34 78 105 56 42 -12
45 -18 29 -49 -8 -14 -17 -18 -35 -13 -14 3 -25 2 -25 -4 0 -5 11 -13 25 -16
14 -4 23 -11 20 -16 -4 -7 -14 -6 -26 1 -12 6 -23 8 -26 6 -2 -3 5 -11 17 -17
18 -9 25 -9 35 2 17 17 60 156 74 242 7 40 19 75 28 81 42 31 44 373 3 526
-11 39 -11 39 -60 39 -27 0 -52 -4 -55 -10z m73 -437 c2 -8 -6 -13 -22 -13
-17 0 -26 5 -26 16 0 19 41 16 48 -3z m2 -153 c0 -43 -8 -48 -54 -30 -18 6
-26 17 -26 33 0 31 7 37 47 37 32 0 33 -1 33 -40z"/>
<path d="M3838 2814 c14 -27 52 -220 52 -266 0 -24 4 -37 10 -33 12 8 13 166
0 219 -9 42 -38 87 -59 94 -10 3 -10 0 -3 -14z"/>
<path d="M4806 2764 c-8 -22 -7 -107 2 -121 4 -7 37 -13 77 -15 l70 -3 0 -30
0 -30 -77 3 c-77 3 -78 3 -78 -21 0 -13 -3 -52 -7 -87 l-6 -62 54 38 c78 54
129 104 145 141 17 40 19 174 2 191 -7 7 -44 12 -94 12 -65 0 -83 -3 -88 -16z"/>
<path d="M3354 2703 c3 -21 6 -63 6 -92 0 -33 4 -51 9 -45 12 12 1 174 -12
174 -6 0 -7 -15 -3 -37z"/>
<path d="M1112 2690 c0 -14 2 -19 5 -12 2 6 2 18 0 25 -3 6 -5 1 -5 -13z"/>
<path d="M520 2528 c0 -181 40 -402 80 -442 19 -20 19 -19 0 20 -32 65 -60
253 -61 407 -1 75 -5 137 -10 137 -5 0 -9 -55 -9 -122z"/>
<path d="M1103 2555 c0 -33 2 -45 4 -27 2 18 2 45 0 60 -2 15 -4 0 -4 -33z"/>
<path d="M1113 2425 c0 -22 2 -30 4 -17 2 12 2 30 0 40 -3 9 -5 -1 -4 -23z"/>
<path d="M5065 2333 c-29 -7 -35 -21 -35 -80 0 -29 -5 -87 -11 -129 -13 -86
-8 -96 46 -92 29 3 30 5 37 68 3 36 8 104 10 153 3 93 3 92 -47 80z"/>
<path d="M3660 2220 c0 -5 -6 -7 -14 -4 -11 4 -13 0 -9 -16 7 -26 45 -45 70
-36 16 7 15 9 -9 22 -17 9 -25 20 -22 29 4 8 1 15 -5 15 -6 0 -11 -4 -11 -10z"/>
<path d="M3630 2150 c27 -21 60 -32 60 -21 0 7 -65 41 -78 41 -4 0 4 -9 18
-20z"/>
<path d="M0 1960 c0 -109 0 -109 22 -101 13 5 22 13 22 18 -7 45 -37 193 -40
193 -2 0 -4 -49 -4 -110z"/>
<path d="M3532 2025 c-53 -25 -73 -24 -104 3 -10 8 -18 10 -18 5 0 -14 45 -43
65 -43 9 0 33 9 55 20 50 26 63 25 97 -4 25 -22 26 -26 15 -51 -7 -15 -10 -30
-8 -33 3 -3 12 10 20 29 15 33 14 35 -12 57 -49 41 -55 42 -110 17z"/>
<path d="M3980 1976 c0 -2 7 -7 16 -10 8 -3 12 -2 9 4 -6 10 -25 14 -25 6z"/>
<path d="M4761 1956 c-41 -11 -45 -15 -66 -71 -29 -80 -142 -334 -162 -364
-12 -18 -21 -22 -43 -18 -24 5 -28 2 -33 -21 -3 -15 -19 -44 -36 -65 -24 -31
-29 -44 -24 -72 4 -22 0 -43 -9 -57 -10 -16 -12 -32 -7 -51 15 -57 -27 -128
-158 -268 -36 -38 -63 -72 -61 -75 7 -6 231 241 265 292 28 40 33 41 61 11 23
-25 33 -72 10 -49 -7 7 -17 12 -23 12 -12 0 -151 -169 -161 -195 -4 -9 0 -15
7 -15 8 0 44 38 82 84 50 62 65 89 60 102 -6 18 -6 18 14 2 11 -10 22 -18 25
-18 3 0 20 22 38 50 37 58 34 80 -16 110 -52 33 -60 100 -12 100 19 0 29 15
61 88 80 180 119 280 146 372 26 85 50 125 66 108 8 -7 -16 -111 -49 -212 -30
-92 -31 -99 -10 -94 24 5 112 282 100 314 -6 16 -6 16 -65 0z"/>
<path d="M3405 1930 c-4 -12 -2 -27 5 -35 7 -8 7 -15 1 -19 -5 -3 -21 8 -35
25 -15 17 -30 29 -33 25 -4 -4 7 -20 23 -37 30 -29 31 -30 76 -18 47 13 50 12
153 -30 5 -2 4 4 -4 13 -26 31 -90 57 -131 54 -22 -2 -39 2 -40 7 0 6 23 11
51 13 44 3 60 -2 100 -27 31 -19 49 -25 49 -17 0 7 -22 25 -49 39 -64 35 -156
39 -166 7z"/>
<path d="M5025 1910 c-11 -19 -86 -262 -83 -271 2 -5 22 -21 46 -35 l42 -25
11 28 c37 94 70 205 75 253 l6 55 -46 2 c-25 1 -48 -2 -51 -7z"/>
<path d="M48 1718 c-32 -11 -33 -18 -12 -81 17 -49 27 -54 67 -36 21 10 23 15
17 43 -11 47 -29 86 -37 85 -5 0 -20 -5 -35 -11z"/>
<path d="M356 1675 c-10 -8 -24 -16 -30 -18 -6 -2 7 -40 32 -91 38 -79 44 -87
64 -81 55 17 56 29 10 120 -23 47 -45 85 -49 85 -5 0 -17 -7 -27 -15z"/>
<path d="M3321 1609 c-39 -47 -151 -139 -254 -205 -249 -162 -532 -225 -812
-179 -259 42 -475 144 -675 319 -41 36 -78 66 -82 66 -19 0 159 -153 234 -203
226 -149 446 -217 706 -217 261 0 496 83 737 260 69 50 195 173 195 189 0 21
-17 11 -49 -30z"/>
<path d="M5099 1593 c-15 -45 -15 -54 -3 -64 21 -18 25 -7 22 57 l-3 59 -16
-52z"/>
<path d="M4193 1600 c-10 -18 -51 -84 -91 -147 -75 -119 -106 -173 -98 -173 5
0 179 267 200 308 23 44 12 55 -11 12z"/>
<path d="M4904 1565 c-9 -23 3 -45 25 -45 20 0 37 32 26 50 -9 15 -45 12 -51
-5z"/>
<path d="M4279 1533 c-10 -2 -62 -63 -118 -136 -141 -185 -186 -235 -201 -220
-10 9 -8 18 7 40 40 58 35 56 -22 -7 -108 -118 -132 -140 -154 -140 -11 0 -26
9 -33 19 -11 18 -18 13 -98 -61 -112 -103 -221 -180 -343 -243 -53 -27 -97
-55 -97 -61 0 -7 13 -37 29 -67 25 -48 27 -58 15 -68 -12 -9 -19 0 -45 57 -17
38 -33 71 -35 73 -2 2 -19 -3 -38 -11 l-36 -14 31 -64 c28 -59 32 -90 11 -90
-5 0 -21 27 -37 60 -16 33 -37 68 -46 76 -17 15 -22 15 -62 -5 -24 -11 -46
-21 -50 -21 -13 0 -79 109 -72 119 11 18 57 12 82 -11 l23 -21 67 28 c150 63
375 183 367 196 -3 5 -35 -10 -72 -33 -62 -38 -237 -125 -324 -161 -34 -14
-39 -14 -58 1 -21 17 -19 19 96 69 64 29 164 78 220 110 l104 57 -25 26 c-14
14 -25 31 -25 37 0 5 28 32 62 59 34 26 81 65 105 86 34 29 50 37 69 32 13 -3
24 -2 24 4 0 5 38 52 85 103 47 51 85 97 85 101 0 4 -9 12 -20 18 -18 10 -34
-2 -138 -107 -64 -65 -155 -147 -201 -183 -47 -36 -101 -80 -122 -97 -20 -18
-39 -33 -42 -33 -4 0 -14 14 -23 32 -19 37 -27 29 122 138 93 68 288 249 306
284 6 12 -39 -28 -99 -89 -60 -60 -164 -150 -231 -200 -67 -49 -122 -96 -122
-103 0 -7 5 -22 11 -33 9 -17 5 -25 -27 -55 -69 -62 -270 -154 -439 -200 l-80
-21 3 -64 c2 -35 7 -68 12 -72 4 -5 43 1 88 12 44 12 87 21 95 21 19 0 52 -63
44 -84 -4 -9 -15 -16 -26 -16 -11 0 -57 -9 -103 -19 -46 -11 -112 -22 -148
-26 -80 -8 -100 -13 -100 -27 0 -6 8 -7 18 -3 9 4 60 13 112 21 52 8 120 21
151 29 76 20 77 20 88 -18 8 -30 113 -199 162 -260 12 -16 39 -40 60 -54 22
-14 39 -31 39 -39 0 -7 -26 -22 -57 -34 -81 -30 -335 -94 -478 -120 -215 -39
-210 -48 27 -49 190 -1 214 1 305 24 54 14 124 35 156 47 48 17 60 19 67 8 12
-20 1 -39 -34 -58 l-31 -17 44 -3 c23 -2 45 -2 46 0 2 2 9 59 15 128 6 72 16
133 24 146 8 11 41 32 73 44 52 21 272 127 282 136 4 3 -25 47 -63 97 -13 17
-19 15 -113 -31 -54 -27 -142 -68 -195 -92 -54 -23 -98 -46 -98 -50 0 -4 11
-24 25 -44 65 -96 -18 -83 -95 15 -58 73 -55 83 38 125 42 20 163 79 269 131
158 78 195 93 211 84 17 -9 37 2 134 75 129 98 168 133 168 149 0 7 -14 31
-31 54 -29 41 -30 44 -13 62 32 35 52 33 100 -10 35 -33 48 -40 62 -32 48 26
292 311 292 342 0 5 -12 34 -27 65 l-28 56 23 18 c18 15 29 17 54 9 17 -5 36
-13 42 -19 15 -15 36 -12 36 4 0 39 -68 82 -111 69z m-160 -338 l24 -36 -29
-32 c-76 -85 -119 -127 -130 -127 -14 0 -84 84 -84 101 0 15 30 49 43 49 6 0
18 -7 28 -16 15 -14 21 -11 65 40 27 31 51 56 54 56 3 0 16 -16 29 -35z m-355
-141 c34 -33 20 -57 -76 -136 -95 -76 -282 -208 -297 -208 -9 0 -37 48 -30 53
2 2 33 24 69 49 36 25 119 94 184 152 66 58 123 106 127 106 4 0 15 -7 23 -16z
m-614 -154 c-72 -36 -97 -38 -68 -3 19 23 68 42 108 42 33 0 31 -2 -40 -39z
m-68 -378 c2 -9 -4 -17 -12 -19 -10 -2 -26 21 -47 67 -29 63 -30 71 -15 79 14
8 21 0 44 -51 15 -33 29 -67 30 -76z m-104 9 c56 -102 35 -126 -25 -29 -32 51
-38 88 -16 88 5 0 23 -26 41 -59z m210 -394 c3 -13 -9 -23 -43 -38 -52 -23
-75 -20 -75 11 0 11 1 20 3 20 1 0 20 7 42 15 49 18 69 15 73 -8z"/>
<path d="M0 1486 c0 -41 148 -374 157 -350 2 5 -18 55 -43 110 -26 54 -62 137
-80 184 -24 61 -33 77 -34 56z"/>
<path d="M4651 1429 c-18 -39 -30 -73 -28 -75 2 -2 19 28 37 66 17 39 30 73
28 76 -3 2 -19 -28 -37 -67z"/>
<path d="M4860 1465 c-15 -18 2 -45 30 -45 25 0 33 38 10 50 -24 13 -25 13
-40 -5z"/>
<path d="M4972 1435 c-7 -15 -11 -30 -8 -32 7 -7 28 36 24 49 -2 6 -9 -2 -16
-17z"/>
<path d="M5050 1416 c-20 -26 -8 -60 30 -79 l35 -17 3 47 c3 47 -6 63 -39 63
-9 0 -22 -7 -29 -14z"/>
<path d="M0 1208 c0 -76 2 -138 4 -138 2 0 26 10 53 23 l50 23 -14 29 c-7 17
-31 68 -53 115 l-39 85 -1 -137z"/>
<path d="M4213 1127 c-124 -151 -348 -354 -537 -484 l-46 -33 24 -47 c13 -27
35 -58 48 -70 l24 -23 59 40 c92 60 127 93 116 109 -7 11 -28 1 -97 -48 -49
-33 -94 -61 -100 -61 -5 0 -20 21 -33 47 l-23 48 23 17 c175 125 255 192 380
317 145 146 226 237 217 246 -2 3 -27 -23 -55 -58z"/>
<path d="M381 1103 c-1 -6 10 -43 24 -82 37 -102 65 -218 65 -268 0 -52 -42
-123 -73 -123 -16 0 -17 -3 -7 -15 10 -13 18 -7 54 37 40 51 41 54 39 120 -2
45 -14 103 -38 175 -38 115 -63 176 -64 156z"/>
<path d="M3055 1067 c-22 -11 -78 -35 -125 -53 -74 -28 -85 -36 -88 -58 -2
-14 0 -26 5 -26 29 0 224 90 256 118 20 18 23 43 5 41 -7 -1 -31 -11 -53 -22z"/>
<path d="M350 1049 c0 -3 13 -41 29 -85 16 -43 32 -95 36 -114 6 -32 6 -33 -8
-16 -9 13 -16 15 -21 8 -3 -6 3 -16 14 -22 33 -18 35 11 7 95 -14 41 -21 75
-16 75 5 0 9 5 9 11 0 5 -4 8 -10 4 -5 -3 -16 7 -24 22 -8 15 -15 25 -16 22z"/>
<path d="M286 1003 c70 -159 69 -154 67 -253 -1 -133 -15 -169 -78 -198 -69
-33 -275 -162 -275 -173 0 -5 26 7 58 27 31 21 98 61 147 89 50 29 104 66 120
82 34 34 75 98 75 116 -1 7 -8 0 -16 -15 -8 -16 -16 -28 -18 -28 -2 0 -2 35 1
78 6 89 -10 158 -58 254 -33 65 -48 79 -23 21z"/>
<path d="M68 994 c-69 -35 -89 -66 -50 -76 18 -5 42 -66 42 -108 0 -12 -13
-35 -30 -50 -18 -17 -30 -38 -30 -54 l0 -26 57 26 c79 34 97 53 84 87 -11 28
-25 35 -36 17 -3 -5 1 -10 10 -10 9 0 13 -4 10 -10 -3 -5 -13 -10 -21 -10 -22
0 -14 54 8 58 22 4 67 -46 68 -75 0 -28 -33 -54 -115 -88 -67 -29 -81 -49 -50
-75 19 -16 19 -40 -1 -68 -9 -13 -14 -25 -12 -28 8 -8 58 37 58 52 0 7 31 29
69 48 125 64 143 111 96 252 -28 83 -71 174 -83 174 -4 -1 -37 -17 -74 -36z
m31 -91 c17 -34 18 -43 7 -43 -14 0 -36 48 -36 78 0 20 3 16 29 -35z"/>
<path d="M330 1023 c0 -6 -3 -18 -6 -27 -4 -11 -1 -16 10 -16 9 0 16 6 16 13
0 16 -20 46 -20 30z"/>
<path d="M5043 857 c-44 -65 -70 -113 -66 -122 3 -9 -3 -25 -13 -37 -45 -50
23 3 89 70 l68 69 -3 63 -3 63 -72 -106z"/>
<path d="M4227 892 c-42 -43 -43 -48 -21 -81 l16 -23 49 48 49 48 -22 23 c-12
13 -24 23 -28 23 -3 0 -23 -17 -43 -38z"/>
<path d="M1051 864 c-17 -14 -31 -32 -31 -40 0 -17 77 -78 208 -166 107 -70
110 -72 151 -68 24 2 24 2 10 -48 -2 -7 46 -43 118 -87 68 -41 125 -75 128
-75 3 0 5 26 5 59 0 77 -39 154 -92 185 l-38 21 -39 -21 c-36 -20 -42 -20 -61
-7 -18 13 -20 22 -15 52 l6 37 -58 23 c-32 13 -99 55 -149 92 -51 38 -96 69
-102 69 -6 0 -24 -12 -41 -26z m472 -280 c42 -22 67 -44 67 -61 0 -10 -10 -8
-42 8 -65 33 -88 50 -82 60 8 13 21 11 57 -7z"/>
<path d="M4 838 c1 -48 9 -61 20 -33 3 9 0 30 -8 48 l-13 32 1 -47z"/>
<path d="M4003 838 c-26 -29 -73 -104 -73 -118 0 -23 32 -7 86 43 52 48 56 55
45 75 -15 28 -32 28 -58 0z"/>
<path d="M407 763 c-4 -3 -7 -13 -7 -22 0 -13 2 -13 13 1 6 9 19 18 27 21 10
4 8 6 -6 6 -11 1 -24 -2 -27 -6z"/>
<path d="M4022 698 c-41 -38 -72 -71 -70 -73 6 -6 154 132 148 138 -3 3 -38
-26 -78 -65z"/>
<path d="M5013 684 c-92 -67 -110 -86 -166 -172 l-64 -96 19 -32 c14 -25 18
-47 16 -91 l-3 -58 49 0 c30 0 51 -5 53 -12 3 -9 -7 -13 -31 -13 -23 0 -36 -5
-36 -13 0 -11 63 -167 76 -188 3 -5 27 7 55 26 27 18 59 37 70 40 14 5 18 12
14 23 -15 36 -10 47 23 50 l32 3 0 63 0 63 -77 17 c-134 29 -137 31 -150 58
-8 16 -24 28 -43 32 -33 6 -49 31 -32 48 7 7 20 3 41 -13 19 -14 34 -19 39
-13 4 5 56 62 116 126 l107 116 -3 55 -3 55 -102 -74z m-127 -381 c-10 -10
-19 5 -10 18 6 11 8 11 12 0 2 -7 1 -15 -2 -18z m200 -70 c10 -35 10 -43 0
-43 -8 0 -19 -7 -26 -15 -32 -38 -94 -4 -103 57 -6 41 3 47 78 44 37 -1 40 -3
51 -43z m-136 -107 c0 -18 -47 -27 -54 -10 -5 14 8 22 37 23 9 1 17 -5 17 -13z
m-5 -64 c0 -18 -20 -15 -23 4 -3 10 1 15 10 12 7 -3 13 -10 13 -16z"/>
<path d="M5017 244 c-4 -4 -7 -16 -7 -26 0 -14 6 -19 23 -16 14 2 22 10 22 23
0 20 -25 32 -38 19z"/>
<path d="M430 728 c0 -9 5 -20 10 -23 13 -8 13 5 0 25 -8 13 -10 13 -10 -2z"/>
<path d="M870 699 c-30 -23 -90 -62 -132 -86 l-77 -45 18 -37 c11 -20 27 -43
37 -53 18 -15 24 -13 98 37 l80 52 23 -27 c13 -15 23 -32 23 -38 0 -5 -20 -20
-44 -33 -25 -13 -42 -27 -39 -31 6 -11 113 48 210 114 l71 49 99 -64 c54 -35
164 -107 246 -160 81 -53 147 -92 147 -87 0 6 -30 30 -67 53 -38 23 -160 102
-271 174 -112 73 -207 133 -210 133 -4 0 -23 -14 -42 -29 l-34 -29 23 -19 24
-20 -36 -22 c-40 -25 -47 -23 -76 17 l-19 28 54 42 c53 41 76 76 32 49 -13 -8
-85 -46 -160 -85 -189 -98 -182 -68 7 35 l146 78 -28 22 c-15 13 -33 23 -38
23 -6 0 -35 -19 -65 -41z"/>
<path d="M4845 634 c-129 -157 -242 -272 -281 -284 -39 -13 -39 -14 -54 -195
-11 -133 -12 -160 -6 -154 2 2 9 58 15 124 18 200 19 205 43 205 19 0 20 -4
14 -48 -3 -26 -9 -79 -12 -119 l-7 -71 44 -6 c236 -32 257 -30 229 22 -16 27
-36 32 -242 61 -5 1 -8 8 -8 17 0 14 8 16 48 11 26 -4 80 -9 121 -13 72 -7 73
-7 62 14 -15 29 -42 42 -84 42 -44 0 -87 46 -87 92 0 32 55 98 82 98 7 0 44
47 82 105 37 58 74 105 81 105 8 0 17 4 20 10 4 6 -1 7 -12 3 -11 -4 -6 7 16
30 18 19 31 41 29 47 -2 7 -44 -37 -93 -96z"/>
<path d="M4030 604 c-90 -74 -261 -194 -277 -194 -9 0 -31 14 -50 30 -19 17
-38 28 -44 25 -10 -7 31 -44 70 -65 21 -11 31 -7 107 45 46 31 119 83 161 116
42 32 80 59 83 59 3 0 15 -18 28 -40 l23 -40 -28 -25 c-15 -13 -44 -32 -63
-42 -42 -21 -160 -102 -160 -109 0 -6 10 0 79 48 30 21 61 38 68 38 8 0 28
-22 45 -50 29 -47 31 -48 47 -30 9 10 54 30 100 43 139 42 156 20 155 -198 0
-77 -3 -157 -7 -177 -8 -39 5 -53 18 -20 13 31 18 314 6 377 -9 51 -95 245
-108 245 -3 0 -30 -22 -61 -50 -31 -28 -59 -50 -62 -50 -4 0 -21 20 -38 43
-23 33 -28 47 -20 55 9 9 8 12 -2 12 -8 -1 -40 -21 -70 -46z"/>
<path d="M460 630 c0 -5 5 -10 10 -10 6 0 10 5 10 10 0 6 -4 10 -10 10 -5 0
-10 -4 -10 -10z"/>
<path d="M413 597 c-15 -13 -109 -75 -208 -137 -185 -116 -212 -136 -204 -144
12 -13 423 254 439 285 14 25 8 24 -27 -4z"/>
<path d="M348 482 c-260 -157 -353 -241 -346 -312 3 -31 3 -31 48 37 69 106
130 159 300 260 160 95 202 123 185 122 -5 -1 -90 -49 -187 -107z"/>
<path d="M5060 534 c-73 -79 -116 -142 -104 -153 12 -12 155 -54 161 -48 2 3
-1 15 -7 27 -8 16 -8 25 0 35 7 8 10 48 8 106 l-3 92 -55 -59z m40 -10 c0 -3
-10 -14 -22 -24 l-23 -18 24 -26 c19 -20 22 -29 13 -38 -8 -8 -15 -8 -27 2
-33 28 -37 49 -15 80 19 26 50 41 50 24z m-45 -124 c-3 -5 -10 -10 -16 -10 -5
0 -9 5 -9 10 0 6 7 10 16 10 8 0 12 -4 9 -10z"/>
<path d="M2060 551 c8 -6 29 -11 45 -11 17 0 47 -5 67 -10 l36 -11 -5 -149 -6
-150 56 0 c58 0 65 4 109 58 12 15 33 22 85 27 37 4 139 17 226 29 132 19 160
20 164 9 3 -8 3 -16 1 -18 -4 -4 -217 -38 -374 -61 -18 -2 -50 -21 -75 -44
-55 -50 -70 -54 -183 -47 -110 6 -146 18 -146 48 0 19 4 20 50 14 l50 -7 0 84
0 85 -29 -5 c-20 -3 -30 1 -34 12 -8 20 14 31 44 23 24 -7 39 21 18 34 -17 11
-78 12 -80 2 -1 -5 -3 -21 -5 -38 -2 -16 -17 -84 -35 -150 -43 -165 -43 -157
16 -173 79 -20 229 -27 264 -12 16 6 56 41 89 76 53 57 63 64 98 64 21 1 59 5
84 10 33 6 49 5 60 -5 12 -11 32 -10 114 6 55 11 101 21 103 23 6 5 -27 150
-36 159 -4 4 -46 1 -92 -7 -124 -22 -269 -37 -399 -39 l-115 -2 0 79 c0 78 -1
80 -27 87 -51 13 -154 21 -138 10z"/>
<path d="M880 522 c-83 -51 -130 -87 -121 -90 6 -2 37 14 70 35 32 21 66 43
77 49 10 6 14 13 8 16 -5 3 -20 -1 -34 -10z"/>
<path d="M1140 489 c-12 -16 -21 -31 -19 -33 59 -40 61 -40 81 -12 23 31 44
36 28 6 -8 -15 -8 -18 3 -14 19 7 196 -116 196 -136 0 -8 -5 -25 -12 -37 -12
-22 -15 -21 -172 73 -88 52 -170 97 -183 101 -20 5 -53 -5 -201 -61 -29 -11
-38 -11 -61 2 -27 16 -30 15 -111 -32 -46 -27 -106 -65 -134 -86 -27 -20 -86
-59 -130 -85 -114 -68 -145 -93 -161 -131 -18 -42 -17 -44 1 -44 9 0 18 8 22
17 15 43 62 88 156 152 112 75 328 201 344 201 6 0 13 -7 16 -15 4 -9 -5 -18
-26 -26 -22 -8 -33 -19 -35 -32 -2 -30 -73 -88 -90 -75 -26 22 -145 -87 -171
-155 -14 -36 -14 -67 -1 -67 6 0 10 7 10 15 0 33 42 95 95 140 74 64 85 48 13
-18 -53 -48 -78 -88 -78 -123 0 -11 15 -14 64 -14 l63 0 21 58 c33 89 88 161
159 207 43 28 62 46 62 61 1 23 40 46 99 59 39 8 57 -4 76 -50 13 -29 18 -32
70 -38 110 -11 229 -107 287 -232 28 -60 33 -65 62 -65 34 0 117 39 117 55 0
5 -41 48 -90 95 -50 47 -90 89 -90 93 0 5 10 23 22 39 l22 31 -30 24 c-41 34
-213 152 -246 169 -25 13 -28 12 -48 -17z m387 -435 c8 -21 -13 -42 -28 -27
-13 13 -5 43 11 43 6 0 13 -7 17 -16z"/>
<path d="M470 476 c0 -22 3 -27 11 -19 8 8 8 16 0 30 -9 16 -10 14 -11 -11z"/>
<path d="M564 471 c-18 -11 -35 -24 -38 -30 -7 -10 17 -65 32 -75 9 -5 125 64
118 71 -3 3 -28 -9 -56 -26 -28 -17 -52 -31 -55 -31 -2 0 -12 14 -20 30 -16
30 -15 30 20 51 19 12 35 23 35 25 0 6 -3 5 -36 -15z"/>
<path d="M370 423 c-80 -47 -204 -167 -258 -251 -40 -61 -79 -158 -69 -168 3
-3 12 17 22 45 34 103 156 256 254 319 57 37 55 37 86 -20 15 -26 14 -28 -22
-53 l-37 -25 -12 23 c-11 19 -10 24 9 34 20 11 20 12 3 13 -22 0 -104 -50
-131 -80 -31 -34 -2 -21 45 20 44 39 45 39 57 17 10 -20 8 -24 -25 -44 -66
-38 -114 -74 -108 -80 3 -4 14 1 23 9 10 9 44 30 75 47 55 31 57 32 67 12 18
-32 14 -39 -41 -74 -76 -49 -108 -87 -114 -133 l-4 -39 14 43 c18 56 29 67
106 118 146 97 168 113 175 123 3 6 -4 31 -16 56 -19 38 -20 46 -8 61 13 16
12 16 -9 5 l-22 -12 20 -39 c11 -22 20 -44 20 -49 0 -6 -21 -24 -46 -42 -41
-28 -48 -30 -61 -16 -14 14 -11 18 26 41 22 15 41 29 41 33 0 3 -11 25 -25 48
l-24 42 39 22 c22 12 40 24 40 27 0 12 -32 0 -90 -33z"/>
<path d="M2921 348 c23 -46 50 -94 61 -108 l19 -24 -38 -14 c-52 -18 -277 -68
-397 -87 -82 -13 -110 -23 -165 -56 l-66 -41 -90 5 c-49 3 -157 19 -240 36
-82 17 -152 31 -157 31 -10 0 29 -84 41 -88 16 -5 14 2 -10 43 l-22 36 29 -6
c86 -20 104 -28 123 -53 19 -25 22 -25 32 -9 12 21 49 23 49 2 0 -12 20 -15
118 -15 l118 0 75 45 c69 41 87 47 220 69 160 28 418 91 434 107 7 7 2 8 -16
4 -32 -8 -58 22 -113 133 -20 39 -38 72 -41 72 -3 0 13 -37 36 -82z"/>
<path d="M4710 382 c-21 -7 -30 -23 -30 -52 0 -33 17 -50 50 -50 33 0 50 17
50 51 0 36 -36 62 -70 51z"/>
<path d="M4224 361 c-63 -19 -104 -38 -104 -47 0 -3 8 -19 17 -35 17 -28 18
-28 92 -23 42 3 82 7 89 10 16 5 16 86 0 102 -15 15 -19 15 -94 -7z"/>
<path d="M958 338 c-32 -11 -33 -15 -13 -42 12 -16 19 -18 39 -8 18 8 23 16
19 32 -7 27 -13 29 -45 18z"/>
<path d="M4021 308 c65 -79 141 -216 147 -264 4 -41 7 -44 33 -44 28 0 29 2
29 44 0 40 -9 55 -97 172 -72 94 -105 130 -122 132 -24 4 -24 3 10 -40z"/>
<path d="M3629 270 c-33 -39 -46 -49 -64 -44 -25 6 -157 -52 -192 -86 -20 -18
-23 -30 -21 -83 1 -42 3 -50 5 -24 3 30 8 37 26 37 20 0 20 1 3 13 -16 11 -17
17 -7 36 7 12 20 21 29 19 14 -3 17 -16 17 -71 l0 -67 87 0 88 0 -10 26 c-15
38 -12 117 6 160 9 22 31 60 50 87 44 61 36 60 -17 -3z m-129 -159 c0 -26 -17
-36 -35 -21 -18 15 -8 40 16 40 12 0 19 -7 19 -19z"/>
<path d="M695 296 c-11 -8 -66 -43 -122 -80 -107 -69 -143 -111 -158 -184 -5
-25 -3 -32 9 -32 10 0 16 9 16 23 1 71 71 147 223 238 37 23 67 43 67 45 0 7
-15 3 -35 -10z"/>
<path d="M900 302 c0 -19 19 -52 30 -52 15 0 12 12 -10 40 -11 14 -20 19 -20
12z"/>
<path d="M3420 272 c-46 -22 -56 -32 -61 -59 -8 -41 6 -43 26 -3 8 16 33 40
55 52 22 13 40 26 40 31 0 9 3 10 -60 -21z"/>
<path d="M3883 275 c22 -7 50 -24 64 -37 38 -34 66 -102 58 -141 -6 -31 -5
-31 10 -12 21 26 14 76 -17 120 -28 42 -94 85 -128 85 -21 -1 -19 -3 13 -15z"/>
<path d="M3585 260 c-10 -11 -16 -22 -14 -24 2 -2 12 7 22 20 22 29 17 32 -8
4z"/>
<path d="M3719 257 c-36 -30 -69 -87 -68 -117 1 -19 3 -16 11 14 6 22 29 57
53 82 45 47 47 57 4 21z"/>
<path d="M1534 257 c-4 -13 231 -257 248 -257 16 0 -92 140 -157 202 -73 71
-82 76 -91 55z"/>
<path d="M3757 229 c-58 -44 -75 -134 -37 -197 l20 -32 99 0 c67 0 102 4 109
12 5 7 12 38 16 68 5 42 2 63 -11 90 -38 74 -136 103 -196 59z m106 -30 c29
-16 37 -28 37 -61 0 -58 -70 -79 -115 -33 -34 33 -32 18 3 -18 23 -25 24 -29
7 -25 -10 2 -26 15 -34 30 -14 24 -14 30 2 63 23 48 61 64 100 44z"/>
<path d="M1211 181 c58 -39 82 -65 118 -131 17 -30 31 -48 31 -39 0 46 -140
199 -184 199 -5 0 11 -13 35 -29z"/>
<path d="M4238 179 c-29 -16 -21 -31 14 -27 22 2 34 9 36 21 4 19 -22 23 -50
6z"/>
<path d="M972 161 c-7 -4 13 -6 45 -4 79 6 89 11 23 12 -30 0 -61 -3 -68 -8z"/>
<path d="M1148 134 c52 -26 122 -95 122 -121 0 -7 5 -13 10 -13 15 0 -5 34
-48 82 -34 38 -98 78 -124 78 -6 0 11 -12 40 -26z"/>
<path d="M900 120 l-35 -31 43 27 c23 15 42 28 42 30 0 11 -20 1 -50 -26z"/>
<path d="M167 122 c-20 -22 -47 -86 -46 -109 0 -10 8 3 17 29 9 25 26 56 36
67 11 12 17 23 14 26 -3 3 -12 -3 -21 -13z"/>
<path d="M4285 94 c-3 -22 -8 -51 -10 -66 -3 -16 -1 -28 4 -28 8 0 23 121 16
128 -2 2 -6 -13 -10 -34z"/>
<path d="M975 92 c-23 -11 -54 -34 -69 -53 l-29 -34 23 -3 c16 -3 30 5 47 26
43 56 130 66 187 21 37 -29 32 -43 -6 -19 -44 27 -104 26 -148 -2 -32 -20 -33
-23 -13 -26 12 -2 31 2 42 7 25 14 68 14 76 1 3 -5 36 -10 72 -10 65 0 65 0
51 21 -48 73 -158 106 -233 71z"/>
<path d="M4060 70 c-21 -21 -23 -29 -14 -54 4 -10 18 -16 39 -16 27 0 34 5 39
25 8 30 3 41 -24 55 -15 8 -24 6 -40 -10z"/>
<path d="M339 49 c-13 -19 -18 -34 -12 -40 6 -6 18 6 32 31 26 47 12 54 -20 9z"/>
<path d="M4546 52 c-3 -3 -6 -9 -6 -14 0 -11 37 -10 44 1 6 10 -30 22 -38 13z"/>
<path d="M4633 35 c-3 -9 -15 -21 -27 -25 -13 -6 33 -9 124 -9 189 -1 172 19
-38 44 -43 5 -53 3 -59 -10z"/>
<path d="M5080 20 l-35 -19 38 -1 c30 0 37 3 37 20 0 11 -1 20 -2 20 -2 -1
-19 -9 -38 -20z"/>
</g>
</svg>