<?xml version="1.0" encoding="utf-8"?>
<!-- Generator: Adobe Illustrator 27.5.0, SVG Export Plug-In . SVG Version: 6.00 Build 0)  -->
<svg version="1.1" xmlns="http://www.w3.org/2000/svg" xmlns:xlink="http://www.w3.org/1999/xlink" x="0px" y="0px"
	 viewBox="0 0 500 500" style="enable-background:new 0 0 500 500;" xml:space="preserve">
<g id="BACKGROUND">
	<rect y="0" style="fill:#FAFAFA;" width="500" height="500"/>
</g>
<g id="OBJECTS">
	<g>
		<g>
			<path style="fill:#FFA93A;" d="M380.354,114.449c0-1.179-0.05-2.345-0.123-3.505l4.302-2.832
				c-0.498-4.702-1.549-9.238-3.079-13.548l-5.095-0.684c-0.884-2.188-1.904-4.305-3.051-6.342l2.643-4.411
				c-2.455-3.953-5.354-7.599-8.638-10.862l-4.877,1.591c-1.742-1.59-3.594-3.06-5.531-4.417l0.467-5.121
				c-3.871-2.473-8.044-4.51-12.456-6.042l-3.701,3.547c-2.266-0.68-4.592-1.218-6.971-1.602l-1.797-4.806
				c-2.31-0.273-4.655-0.429-7.038-0.429c-2.289,0-4.544,0.142-6.765,0.394l-1.791,4.791c-2.406,0.376-4.757,0.917-7.049,1.595
				l-3.709-3.555c-4.389,1.507-8.545,3.511-12.402,5.949l0.466,5.105c-2.001,1.387-3.912,2.894-5.708,4.528l-4.877-1.591
				c-3.252,3.221-6.127,6.818-8.57,10.716l2.636,4.399c-1.205,2.117-2.273,4.32-3.193,6.6l-5.093,0.683
				c-1.505,4.251-2.543,8.721-3.047,13.354l4.294,2.827c-0.08,1.214-0.135,2.434-0.135,3.668c0,1.234,0.055,2.454,0.135,3.668
				l-4.294,2.827c0.504,4.633,1.541,9.103,3.047,13.354l5.093,0.684c0.92,2.281,1.988,4.484,3.193,6.6l-2.636,4.399
				c2.443,3.897,5.318,7.495,8.57,10.715l4.877-1.591c1.796,1.634,3.707,3.141,5.708,4.528l-0.466,5.105
				c3.858,2.438,8.013,4.442,12.402,5.949l3.709-3.555c2.292,0.678,4.643,1.219,7.049,1.595l1.791,4.791
				c2.222,0.252,4.476,0.394,6.765,0.394c2.383,0,4.728-0.156,7.038-0.429l1.797-4.806c2.379-0.385,4.705-0.923,6.971-1.602
				l3.701,3.547c4.412-1.532,8.585-3.569,12.456-6.042l-0.467-5.121c1.937-1.358,3.789-2.827,5.531-4.417l4.877,1.591
				c3.284-3.262,6.184-6.909,8.638-10.862l-2.643-4.411c1.147-2.037,2.167-4.154,3.051-6.342l5.095-0.684
				c1.529-4.31,2.581-8.845,3.079-13.548l-4.302-2.832C380.304,116.794,380.354,115.627,380.354,114.449z M325.409,156.352
				c-23.142,0-41.903-18.761-41.903-41.903c0-23.142,18.761-41.903,41.903-41.903c23.142,0,41.903,18.761,41.903,41.903
				C367.312,137.591,348.552,156.352,325.409,156.352z"/>
			<g style="opacity:0.2;">
				<path d="M325.409,163.925c-27.281,0-49.476-22.195-49.476-49.476c0-27.282,22.195-49.476,49.476-49.476
					c27.281,0,49.476,22.195,49.476,49.476C374.886,141.73,352.691,163.925,325.409,163.925z M325.409,68.225
					c-25.488,0-46.224,20.736-46.224,46.224c0,25.488,20.736,46.224,46.224,46.224c25.488,0,46.224-20.736,46.224-46.224
					C371.633,88.961,350.897,68.225,325.409,68.225z"/>
			</g>
		</g>
		<g>
			<path style="fill:#FF89CE;" d="M243.032,171.855c0-0.738-0.031-1.468-0.077-2.195l2.694-1.773
				c-0.312-2.945-0.97-5.785-1.928-8.484l-3.19-0.428c-0.554-1.37-1.192-2.696-1.911-3.971l1.655-2.762
				c-1.537-2.475-3.353-4.759-5.409-6.801l-3.054,0.996c-1.091-0.996-2.251-1.916-3.463-2.766l0.293-3.207
				c-2.424-1.549-5.037-2.824-7.8-3.783l-2.317,2.221c-1.419-0.426-2.876-0.762-4.365-1.003l-1.125-3.009
				c-1.446-0.171-2.915-0.269-4.407-0.269c-1.433,0-2.845,0.089-4.236,0.247l-1.122,3c-1.507,0.236-2.979,0.574-4.414,0.999
				l-2.322-2.226c-2.749,0.944-5.351,2.199-7.766,3.725l0.292,3.197c-1.253,0.868-2.45,1.812-3.574,2.835l-3.054-0.996
				c-2.037,2.017-3.837,4.27-5.367,6.71l1.65,2.755c-0.755,1.326-1.423,2.705-1.999,4.133l-3.189,0.428
				c-0.942,2.662-1.592,5.461-1.908,8.362l2.689,1.77c-0.05,0.76-0.085,1.524-0.085,2.297c0,0.773,0.035,1.537,0.085,2.297
				l-2.689,1.77c0.315,2.901,0.965,5.7,1.908,8.362l3.189,0.428c0.576,1.428,1.245,2.807,1.999,4.133l-1.65,2.755
				c1.53,2.44,3.33,4.693,5.367,6.71l3.054-0.997c1.125,1.023,2.322,1.967,3.574,2.835l-0.292,3.197
				c2.415,1.527,5.018,2.781,7.766,3.725l2.322-2.226c1.435,0.424,2.907,0.763,4.414,0.999l1.122,3
				c1.391,0.158,2.803,0.247,4.236,0.247c1.492,0,2.961-0.098,4.407-0.268l1.125-3.01c1.49-0.241,2.946-0.578,4.365-1.003
				l2.317,2.221c2.763-0.959,5.376-2.235,7.8-3.783l-0.293-3.207c1.213-0.85,2.372-1.77,3.463-2.766l3.054,0.996
				c2.056-2.043,3.872-4.326,5.409-6.801l-1.655-2.762c0.718-1.276,1.357-2.601,1.911-3.971l3.19-0.428
				c0.958-2.699,1.616-5.539,1.928-8.483l-2.694-1.773C243.001,173.324,243.032,172.593,243.032,171.855z M208.626,198.094
				c-14.491,0-26.239-11.748-26.239-26.239c0-14.491,11.748-26.239,26.239-26.239c14.492,0,26.239,11.748,26.239,26.239
				C234.865,186.347,223.118,198.094,208.626,198.094z"/>
			<g style="opacity:0.2;">
				<path d="M208.626,202.837c-17.083,0-30.981-13.898-30.981-30.981c0-17.083,13.898-30.981,30.981-30.981
					c17.083,0,30.981,13.898,30.981,30.981C239.607,188.938,225.709,202.837,208.626,202.837z M208.626,142.911
					c-15.96,0-28.945,12.984-28.945,28.945c0,15.96,12.985,28.945,28.945,28.945c15.96,0,28.945-12.984,28.945-28.945
					C237.571,155.895,224.586,142.911,208.626,142.911z"/>
			</g>
		</g>
		<g>
			<path style="fill:#FF89CE;" d="M400.449,229.56c0-0.738-0.031-1.468-0.077-2.195l2.694-1.773
				c-0.312-2.945-0.97-5.785-1.928-8.484l-3.19-0.428c-0.554-1.37-1.192-2.696-1.91-3.971l1.655-2.762
				c-1.537-2.475-3.353-4.758-5.409-6.801l-3.054,0.996c-1.091-0.996-2.251-1.916-3.463-2.766l0.293-3.207
				c-2.424-1.549-5.037-2.824-7.8-3.783l-2.317,2.221c-1.419-0.426-2.876-0.762-4.365-1.003l-1.125-3.01
				c-1.446-0.171-2.915-0.268-4.407-0.268c-1.433,0-2.845,0.089-4.236,0.247l-1.122,3c-1.507,0.236-2.979,0.574-4.414,0.999
				l-2.322-2.226c-2.749,0.944-5.351,2.199-7.766,3.725l0.292,3.197c-1.253,0.868-2.45,1.812-3.574,2.835l-3.054-0.996
				c-2.037,2.017-3.837,4.27-5.367,6.71l1.651,2.755c-0.754,1.326-1.423,2.705-1.999,4.133l-3.189,0.428
				c-0.943,2.662-1.592,5.461-1.908,8.362l2.689,1.77c-0.05,0.76-0.085,1.524-0.085,2.297c0,0.773,0.035,1.537,0.085,2.297
				l-2.689,1.77c0.315,2.901,0.965,5.7,1.908,8.362l3.189,0.428c0.576,1.428,1.245,2.807,1.999,4.133l-1.651,2.755
				c1.53,2.44,3.33,4.693,5.367,6.71l3.054-0.997c1.125,1.023,2.322,1.967,3.574,2.835l-0.292,3.197
				c2.415,1.527,5.018,2.781,7.766,3.725l2.322-2.226c1.435,0.424,2.907,0.763,4.414,0.999l1.122,3
				c1.391,0.158,2.803,0.247,4.236,0.247c1.492,0,2.961-0.098,4.407-0.268l1.125-3.01c1.49-0.241,2.946-0.578,4.365-1.003
				l2.317,2.221c2.763-0.959,5.376-2.235,7.8-3.783l-0.293-3.207c1.213-0.85,2.372-1.771,3.463-2.766l3.054,0.996
				c2.057-2.043,3.872-4.326,5.409-6.801l-1.655-2.762c0.718-1.276,1.357-2.601,1.91-3.971l3.19-0.428
				c0.958-2.699,1.616-5.539,1.928-8.483l-2.694-1.773C400.418,231.028,400.449,230.298,400.449,229.56z M366.043,255.799
				c-14.491,0-26.239-11.748-26.239-26.239c0-14.491,11.748-26.239,26.239-26.239c14.491,0,26.239,11.748,26.239,26.239
				C392.283,244.051,380.535,255.799,366.043,255.799z"/>
			<g style="opacity:0.2;">
				<path d="M366.043,260.541c-17.083,0-30.981-13.898-30.981-30.981c0-17.083,13.898-30.981,30.981-30.981
					c17.083,0,30.981,13.898,30.981,30.981C397.025,246.643,383.127,260.541,366.043,260.541z M366.043,200.615
					c-15.96,0-28.945,12.984-28.945,28.945c0,15.96,12.985,28.945,28.945,28.945c15.96,0,28.945-12.985,28.945-28.945
					C394.988,213.6,382.003,200.615,366.043,200.615z"/>
			</g>
		</g>
		<g>
			<path style="fill:#0043D7;" d="M103.815,248.52c0-0.971-0.041-1.931-0.101-2.887l3.543-2.332
				c-0.41-3.873-1.276-7.608-2.536-11.158l-4.196-0.563c-0.728-1.802-1.568-3.546-2.513-5.223l2.177-3.633
				c-2.022-3.255-4.41-6.259-7.114-8.946l-4.017,1.311c-1.435-1.31-2.96-2.52-4.555-3.638l0.385-4.218
				c-3.188-2.037-6.625-3.714-10.258-4.976l-3.048,2.921c-1.866-0.56-3.782-1.003-5.741-1.32l-1.48-3.958
				c-1.902-0.225-3.834-0.353-5.796-0.353c-1.885,0-3.742,0.117-5.572,0.324l-1.475,3.946c-1.982,0.31-3.918,0.755-5.806,1.314
				l-3.055-2.928c-3.615,1.241-7.038,2.892-10.215,4.9l0.384,4.204c-1.648,1.142-3.222,2.383-4.702,3.729l-4.017-1.311
				c-2.678,2.653-5.046,5.616-7.059,8.825l2.171,3.623c-0.992,1.743-1.872,3.558-2.629,5.436l-4.194,0.563
				c-1.24,3.501-2.094,7.183-2.509,10.998l3.536,2.328c-0.066,0.999-0.111,2.005-0.111,3.021c0,1.016,0.046,2.021,0.111,3.021
				l-3.536,2.328c0.415,3.815,1.269,7.497,2.509,10.998l4.194,0.563c0.757,1.878,1.637,3.693,2.629,5.436l-2.171,3.623
				c2.012,3.21,4.38,6.172,7.059,8.825l4.017-1.311c1.479,1.345,3.053,2.587,4.702,3.729l-0.384,4.204
				c3.177,2.008,6.599,3.658,10.215,4.9l3.055-2.928c1.888,0.558,3.824,1.004,5.806,1.314l1.475,3.946
				c1.83,0.207,3.687,0.324,5.572,0.324c1.963,0,3.894-0.129,5.796-0.353l1.48-3.958c1.959-0.317,3.875-0.76,5.741-1.32l3.048,2.921
				c3.634-1.262,7.071-2.939,10.258-4.976l-0.385-4.218c1.595-1.118,3.12-2.328,4.555-3.638l4.017,1.311
				c2.705-2.687,5.093-5.69,7.114-8.946l-2.177-3.633c0.945-1.678,1.785-3.422,2.513-5.224l4.196-0.563
				c1.26-3.55,2.125-7.285,2.536-11.158l-3.543-2.332C103.774,250.451,103.815,249.49,103.815,248.52z M58.563,283.031
				c-19.06,0-34.511-15.451-34.511-34.511c0-19.06,15.451-34.511,34.511-34.511c19.06,0,34.511,15.451,34.511,34.511
				C93.074,267.58,77.623,283.031,58.563,283.031z"/>
			<g style="opacity:0.2;">
				<path d="M58.563,289.268c-22.469,0-40.748-18.279-40.748-40.748c0-22.469,18.279-40.748,40.748-40.748
					c22.469,0,40.748,18.279,40.748,40.748C99.311,270.988,81.032,289.268,58.563,289.268z M58.563,210.45
					c-20.991,0-38.069,17.078-38.069,38.07c0,20.991,17.078,38.069,38.069,38.069s38.069-17.078,38.069-38.069
					C96.632,227.528,79.554,210.45,58.563,210.45z"/>
			</g>
		</g>
		<g>
			<g>
				<g>
					<g>
						<path style="fill:#D1C4FF;" d="M107.033,423.666c-0.555,0.001-1.094-0.224-1.49-0.609c-0.101-0.101-0.186-0.202-0.262-0.319
							c-0.076-0.118-0.144-0.235-0.194-0.362c-0.051-0.126-0.093-0.26-0.119-0.395c-0.026-0.135-0.043-0.277-0.043-0.412
							c-0.001-0.555,0.224-1.094,0.61-1.49c0.1-0.093,0.201-0.186,0.319-0.262c0.118-0.076,0.235-0.135,0.361-0.194
							c0.126-0.051,0.26-0.094,0.395-0.119c0.681-0.145,1.413,0.081,1.903,0.567c0.388,0.394,0.617,0.931,0.618,1.487
							c0,0.135-0.016,0.278-0.041,0.412c-0.025,0.135-0.067,0.27-0.116,0.395c-0.059,0.127-0.117,0.244-0.192,0.363
							c-0.076,0.118-0.168,0.219-0.26,0.32c-0.101,0.092-0.21,0.185-0.319,0.261c-0.117,0.076-0.235,0.144-0.361,0.195
							c-0.134,0.051-0.26,0.093-0.395,0.119C107.311,423.649,107.168,423.666,107.033,423.666z"/>
					</g>
					<g>
						<path style="fill:#D1C4FF;" d="M99.436,419.557L99.436,419.557L99.436,419.557c-0.994-0.594-1.317-1.889-0.723-2.883l0,0
							c0.603-0.994,1.889-1.317,2.891-0.723l0,0c0.994,0.603,1.309,1.889,0.714,2.883l0,0c-0.393,0.657-1.082,1.021-1.797,1.023l0,0
							C100.151,419.859,99.772,419.759,99.436,419.557z M92.974,415.538c-0.978-0.636-1.259-1.931-0.622-2.908l0,0
							c0.628-0.978,1.931-1.259,2.908-0.622l0,0c0.969,0.628,1.25,1.931,0.622,2.899l0,0c-0.402,0.624-1.074,0.962-1.764,0.964l0,0
							C93.723,415.873,93.327,415.765,92.974,415.538z M86.654,411.249c-0.953-0.678-1.166-1.99-0.496-2.934l0,0
							c0.679-0.943,1.99-1.166,2.934-0.487l0,0c0.952,0.67,1.166,1.981,0.496,2.925l0,0c-0.41,0.574-1.057,0.887-1.713,0.888l0,0
							C87.454,411.643,87.024,411.509,86.654,411.249z M80.543,406.616L80.543,406.616L80.543,406.616
							c-0.902-0.729-1.04-2.058-0.311-2.96l0,0c0.729-0.902,2.049-1.04,2.952-0.311l0,0c0.91,0.729,1.048,2.05,0.319,2.96l0,0
							c-0.419,0.506-1.024,0.777-1.638,0.778l0,0C81.402,407.084,80.931,406.934,80.543,406.616z M74.734,401.568
							c-0.843-0.797-0.889-2.126-0.092-2.969l0,0c0.788-0.852,2.125-0.897,2.968-0.1l0,0c0.852,0.796,0.889,2.125,0.101,2.977l0,0
							c-0.419,0.438-0.974,0.658-1.529,0.66l0,0C75.661,402.137,75.139,401.954,74.734,401.568z M69.328,396.057
							c-0.776-0.873-0.695-2.202,0.169-2.969l0,0c0.864-0.776,2.193-0.704,2.97,0.159l0,0c0.768,0.864,0.696,2.194-0.168,2.97l0,0
							c-0.395,0.354-0.899,0.532-1.395,0.534l0,0C70.322,396.752,69.749,396.519,69.328,396.057z M64.45,390.023
							c-0.684-0.94-0.469-2.253,0.471-2.937l0,0c0.94-0.675,2.253-0.469,2.937,0.472l0,0c0.675,0.94,0.469,2.261-0.472,2.936l0,0
							c-0.378,0.27-0.806,0.398-1.227,0.399l0,0C65.504,390.895,64.863,390.594,64.45,390.023z M60.26,383.466
							c-0.567-1.016-0.2-2.303,0.816-2.87l0,0c1.016-0.558,2.296-0.2,2.862,0.816l0,0c0.566,1.016,0.2,2.296-0.816,2.862l0,0
							c-0.319,0.177-0.672,0.262-1.017,0.263l0,0C61.365,384.539,60.649,384.154,60.26,383.466z M56.885,376.435
							c-0.44-1.075,0.078-2.304,1.153-2.737l0,0c1.076-0.44,2.305,0.078,2.745,1.154l-0.009,0c0.44,1.075-0.077,2.304-1.153,2.737
							l0,0c-0.252,0.11-0.521,0.161-0.782,0.161l0,0C58.007,377.753,57.215,377.251,56.885,376.435z M382.685,371.527
							c-0.634-0.982-0.359-2.278,0.623-2.912l0,0c0.974-0.633,2.27-0.351,2.903,0.623l0,0c0.634,0.974,0.351,2.278-0.623,2.912l0,0
							c-0.353,0.219-0.747,0.33-1.134,0.331l0,0C383.765,372.482,383.082,372.148,382.685,371.527z M54.417,369.024
							c-0.297-1.126,0.381-2.272,1.507-2.569l0,0c1.126-0.29,2.272,0.389,2.561,1.507l0,0c0.298,1.126-0.381,2.272-1.507,2.569l0,0
							c-0.176,0.042-0.353,0.06-0.521,0.061l0,0C55.515,370.594,54.663,369.966,54.417,369.024z M388.956,367.346
							c-0.692-0.94-0.485-2.252,0.446-2.945l0,0c0.94-0.684,2.253-0.485,2.945,0.454l0,0c0.684,0.932,0.486,2.253-0.454,2.937l0,0
							c-0.369,0.279-0.806,0.406-1.235,0.408l0,0C390.01,368.201,389.37,367.908,388.956,367.346z M394.975,362.796
							c-0.743-0.89-0.62-2.219,0.278-2.962l0,0c0.889-0.734,2.219-0.611,2.961,0.278l0,0c0.734,0.897,0.611,2.218-0.278,2.961l0,0
							l0,0l0,0c-0.394,0.329-0.865,0.482-1.336,0.483l0,0C395.995,363.559,395.388,363.299,394.975,362.796z M53,361.298
							c-0.121-1.152,0.717-2.188,1.877-2.31l0,0c1.152-0.121,2.189,0.718,2.31,1.87l0,0c0.121,1.152-0.717,2.188-1.869,2.31l0,0
							c-0.076,0.008-0.151,0.017-0.219,0.017l0,0C54.03,363.188,53.12,362.383,53,361.298z M400.714,357.911
							c-0.793-0.847-0.746-2.185,0.109-2.97l0,0c0.847-0.792,2.176-0.746,2.969,0.101l0,0c0.793,0.856,0.746,2.185-0.11,2.978l0,0
							c-0.402,0.372-0.915,0.558-1.419,0.559l0,0C401.692,358.581,401.127,358.356,400.714,357.911z M54.792,355.65
							c-1.161-0.072-2.047-1.071-1.974-2.232l0,0l0,0l0,0c0.072-1.161,1.071-2.038,2.232-1.966l0,0
							c1.161,0.073,2.038,1.071,1.966,2.224l0,0c-0.064,1.119-0.987,1.971-2.089,1.974l0,0
							C54.884,355.65,54.834,355.65,54.792,355.65z M406.175,352.706c-0.843-0.805-0.872-2.134-0.067-2.977l0,0
							c0.805-0.835,2.134-0.864,2.977-0.059l0,0c0.835,0.805,0.864,2.134,0.059,2.977l0,0c-0.411,0.422-0.958,0.642-1.513,0.644l0,0
							C407.111,353.293,406.58,353.1,406.175,352.706z M411.324,347.2c-0.877-0.755-0.982-2.083-0.219-2.969l0,0.009
							c0.755-0.886,2.083-0.981,2.969-0.227l0,0c0.877,0.755,0.973,2.083,0.219,2.969l0,0l0,0l0,0
							c-0.411,0.481-0.999,0.726-1.587,0.728l0,0C412.217,347.711,411.729,347.544,411.324,347.2z M55.554,348.145
							c-1.128-0.283-1.813-1.425-1.529-2.553l0,0c0.283-1.128,1.425-1.812,2.553-1.521l0,0c1.128,0.283,1.812,1.425,1.529,2.553l0,0
							c-0.241,0.951-1.097,1.584-2.031,1.587l0,0C55.899,348.212,55.73,348.187,55.554,348.145z M416.178,341.425
							c-0.919-0.713-1.091-2.032-0.387-2.952l0,0c0.713-0.919,2.033-1.091,2.952-0.378l0,0c0.919,0.704,1.091,2.024,0.378,2.943l0,0
							c-0.411,0.539-1.032,0.818-1.654,0.82l0,0C417.012,341.86,416.557,341.718,416.178,341.425z M57.695,340.915
							c-1.053-0.477-1.519-1.728-1.034-2.781l0,0c0.477-1.062,1.728-1.528,2.781-1.043l0,0c1.061,0.485,1.519,1.728,1.042,2.79l0,0
							c-0.351,0.766-1.115,1.222-1.914,1.224l0,0C58.285,341.106,57.981,341.049,57.695,340.915z M420.703,335.391
							c-0.952-0.654-1.2-1.965-0.538-2.917l0,0c0.662-0.961,1.965-1.201,2.925-0.547l0,0c0.952,0.662,1.2,1.974,0.538,2.926l0,0l0,0
							l0,0c-0.402,0.59-1.057,0.911-1.73,0.913l0,0C421.486,335.767,421.074,335.642,420.703,335.391z M61.075,334.177
							c-0.969-0.636-1.242-1.939-0.605-2.908l0,0l0,0l0,0c0.636-0.969,1.948-1.242,2.917-0.605l0,0
							c0.969,0.636,1.242,1.939,0.597,2.917l0,0c-0.402,0.607-1.066,0.945-1.747,0.947l0,0
							C61.833,334.528,61.437,334.412,61.075,334.177z M424.908,329.13c-0.986-0.603-1.301-1.898-0.689-2.892l0,0
							c0.603-0.986,1.897-1.301,2.891-0.689l0,0c0.987,0.603,1.301,1.897,0.69,2.891l0,0c-0.393,0.64-1.082,0.995-1.789,0.997l0,0
							C425.641,329.439,425.253,329.339,424.908,329.13z M65.398,328c-0.894-0.746-1.015-2.074-0.269-2.959l0,0
							c0.746-0.894,2.074-1.007,2.968-0.261l0,0c0.885,0.738,1.007,2.066,0.261,2.96l0,0c-0.419,0.497-1.007,0.751-1.604,0.753l0,0
							C66.273,328.494,65.794,328.336,65.398,328z M428.784,322.659c-1.027-0.561-1.4-1.838-0.849-2.857l0,0
							c0.552-1.019,1.839-1.393,2.858-0.841l0,0c1.019,0.552,1.393,1.829,0.841,2.857l0,0c0,0,0,0,0-0.008l0,0
							c-0.385,0.699-1.099,1.096-1.848,1.098l0,0C429.449,322.91,429.105,322.835,428.784,322.659z M70.353,322.317
							c-0.835-0.813-0.847-2.142-0.042-2.977l0,0l0,0l0,0c0.814-0.826,2.143-0.847,2.977-0.033l0,0
							c0.826,0.813,0.847,2.142,0.034,2.977l0,0c-0.411,0.413-0.957,0.625-1.496,0.626l0,0
							C71.288,322.912,70.757,322.72,70.353,322.317z M75.679,316.979c-0.793-0.839-0.755-2.176,0.093-2.969l0,0
							c0.839-0.793,2.168-0.755,2.969,0.084l0,0c0.793,0.848,0.755,2.176-0.084,2.978l0,0c-0.411,0.38-0.924,0.566-1.437,0.567l0,0
							C76.656,317.64,76.101,317.423,75.679,316.979z M432.307,315.989c-1.044-0.501-1.485-1.754-0.983-2.798l0,0
							c0.501-1.053,1.754-1.493,2.798-0.992l0,0c1.053,0.502,1.493,1.754,0.992,2.806l0,0c-0.36,0.75-1.107,1.189-1.889,1.191l0,0
							C432.913,316.197,432.602,316.131,432.307,315.989z M81.19,311.833c-0.784-0.856-0.737-2.185,0.118-2.97l0,0
							c0.847-0.792,2.184-0.738,2.969,0.11l0,0c0.785,0.855,0.738,2.185-0.118,2.969l0,0c-0.403,0.38-0.907,0.566-1.42,0.567l0,0
							C82.177,312.511,81.604,312.278,81.19,311.833z M435.485,309.15c-1.07-0.442-1.577-1.678-1.126-2.747l0,0
							c0.442-1.07,1.678-1.578,2.747-1.135l0,0c1.07,0.442,1.577,1.678,1.134,2.755l0,0c-0.342,0.8-1.115,1.29-1.939,1.292l0,0
							C436.031,309.317,435.753,309.259,435.485,309.15z M86.719,306.696c-0.81-0.831-0.788-2.168,0.051-2.969l0,0
							c0.839-0.81,2.168-0.788,2.978,0.051l0,0c0.801,0.831,0.78,2.168-0.059,2.969l0,0c-0.403,0.397-0.924,0.591-1.453,0.593l0,0
							C87.688,307.34,87.132,307.124,86.719,306.696z M438.308,302.162c-1.094-0.392-1.661-1.602-1.269-2.688l0,0
							c0.392-1.094,1.593-1.669,2.688-1.277l0,0c1.086,0.392,1.661,1.594,1.269,2.688l0,0c-0.309,0.858-1.115,1.39-1.973,1.393l0,0
							C438.787,302.278,438.544,302.245,438.308,302.162z M92.096,301.407c-0.843-0.788-0.897-2.125-0.101-2.968l0,0l0,0l0,0
							c0.788-0.852,2.117-0.898,2.969-0.109l0,0c0.851,0.797,0.897,2.125,0.109,2.977l0,0c-0.419,0.438-0.974,0.667-1.537,0.669l0,0
							C93.022,301.977,92.509,301.785,92.096,301.407z M97.143,295.801c-0.91-0.713-1.065-2.041-0.353-2.952l0,0l0,0l0,0
							c0.721-0.91,2.041-1.065,2.96-0.352l0,0c0.91,0.72,1.065,2.041,0.345,2.959l0,0c-0.411,0.523-1.024,0.794-1.646,0.796l0,0
							C97.994,296.253,97.531,296.111,97.143,295.801z M440.761,295.031c-1.111-0.342-1.745-1.509-1.412-2.62l0,0
							c0.334-1.111,1.509-1.745,2.62-1.412l0,0c1.111,0.333,1.745,1.501,1.412,2.62l0,0l0,0l0,0
							c-0.275,0.909-1.105,1.491-2.006,1.494l0,0C441.173,295.114,440.963,295.089,440.761,295.031z M101.702,289.791
							c-0.969-0.637-1.242-1.948-0.597-2.909l0,0c0.645-0.969,1.948-1.233,2.917-0.597l0,0c0.961,0.636,1.234,1.948,0.589,2.917l0,0
							c-0.402,0.606-1.066,0.937-1.747,0.939l0,0C102.461,290.142,102.056,290.025,101.702,289.791z M442.844,287.784
							c-1.128-0.275-1.82-1.416-1.546-2.544l0,0c0.274-1.128,1.417-1.821,2.544-1.546l0,0c1.128,0.275,1.821,1.408,1.546,2.536l0,0
							c-0.233,0.96-1.097,1.61-2.039,1.612l0,0C443.18,287.842,443.012,287.817,442.844,287.784z M105.747,283.43
							c-1.01-0.561-1.376-1.847-0.807-2.857l0,0c0.561-1.011,1.846-1.376,2.857-0.815l0,0c1.019,0.569,1.376,1.846,0.815,2.866l0,0
							c-0.385,0.691-1.099,1.08-1.831,1.082l0,0C106.429,283.706,106.076,283.614,105.747,283.43z M444.539,280.428
							c-1.136-0.207-1.896-1.307-1.68-2.451l0,0c0.215-1.145,1.315-1.896,2.46-1.681l0,0c1.136,0.216,1.896,1.315,1.681,2.46l0,0
							c-0.191,1.001-1.072,1.71-2.064,1.713l0,0C444.809,280.469,444.674,280.453,444.539,280.428z M109.32,276.793
							c-1.053-0.494-1.502-1.745-1.009-2.798l0,0c0.493-1.053,1.754-1.502,2.798-1.008l0,0c1.053,0.501,1.502,1.754,1.008,2.798l0,0
							c-0.36,0.758-1.115,1.206-1.897,1.208l0,0C109.918,276.993,109.607,276.926,109.32,276.793z M445.839,273.006
							c-1.145-0.157-1.955-1.214-1.806-2.367l0,0c0.156-1.144,1.205-1.954,2.358-1.807l0,0c1.153,0.148,1.963,1.206,1.815,2.359l0,0
							c-0.14,1.06-1.046,1.828-2.081,1.831l0,0C446.033,273.022,445.94,273.015,445.839,273.006z M112.438,269.929
							c-1.077-0.434-1.603-1.652-1.176-2.73l0,0c0.434-1.086,1.661-1.611,2.739-1.176l0,0c1.078,0.434,1.603,1.652,1.168,2.73l0,0
							c-0.326,0.825-1.115,1.323-1.948,1.326l0,0C112.961,270.079,112.7,270.029,112.438,269.929z M446.744,265.518
							c-1.161-0.089-2.029-1.104-1.94-2.257l0,0c0.09-1.161,1.105-2.03,2.257-1.941l0,0c1.161,0.089,2.03,1.096,1.941,2.257l0,0
							c-0.09,1.102-1.004,1.937-2.089,1.94l0,0C446.854,265.518,446.795,265.518,446.744,265.518z M115.144,262.89
							c-1.095-0.375-1.686-1.568-1.311-2.663l0,0c0.367-1.103,1.56-1.695,2.663-1.319l0,0c1.103,0.376,1.695,1.568,1.319,2.671l0,0
							c-0.3,0.867-1.114,1.424-1.989,1.427l0,0C115.599,263.007,115.372,262.965,115.144,262.89z M447.228,257.99
							c-1.17-0.022-2.089-0.987-2.067-2.148l0,0c0.031-1.161,0.987-2.08,2.147-2.058l0,0c1.161,0.022,2.081,0.986,2.058,2.147l0,0
							c-0.022,1.144-0.953,2.055-2.097,2.058l0,0C447.253,257.99,447.244,257.99,447.228,257.99z M117.496,255.726
							c-1.12-0.325-1.762-1.493-1.437-2.603l0,0c0,0,0,0-0.009,0l0,0c0.325-1.12,1.493-1.762,2.604-1.437l0,0
							c1.119,0.316,1.762,1.484,1.437,2.604l0,0c-0.258,0.917-1.098,1.517-2.006,1.519l0,0
							C117.892,255.809,117.69,255.785,117.496,255.726z M445.107,248.424c-0.045-1.16,0.861-2.139,2.021-2.175l0,0
							c1.16-0.046,2.139,0.86,2.176,2.021l0,0c0.045,1.16-0.861,2.139-2.021,2.176l0,0c-0.025,0.009-0.05,0.009-0.075,0.009l0,0
							C446.08,250.457,445.144,249.559,445.107,248.424z M119.512,248.462c-1.128-0.283-1.812-1.416-1.538-2.544l0,0
							c0.283-1.128,1.416-1.821,2.544-1.538l0,0c1.128,0.274,1.821,1.416,1.538,2.536l0,0c-0.233,0.959-1.089,1.601-2.031,1.604l0,0
							C119.857,248.52,119.688,248.504,119.512,248.462z M444.616,241.024c-0.113-1.152,0.734-2.18,1.894-2.293l0,0
							c1.152-0.112,2.18,0.734,2.293,1.895l0,0c0.112,1.152-0.734,2.18-1.894,2.293l0,0c-0.067,0.009-0.126,0.009-0.194,0.009l0,0
							C445.639,242.93,444.719,242.117,444.616,241.024z M121.258,241.123c-1.136-0.241-1.862-1.357-1.622-2.494l0,0l0,0l0,0
							c0.241-1.136,1.357-1.863,2.494-1.622l0,0c1.136,0.241,1.863,1.358,1.622,2.494l0,0c-0.208,0.985-1.08,1.66-2.048,1.662l0,0
							C121.561,241.164,121.41,241.148,121.258,241.123z M443.696,233.667c-0.18-1.152,0.599-2.222,1.751-2.402l0,0
							c1.144-0.18,2.222,0.608,2.401,1.751l0,0l0,0l0,0c0.181,1.144-0.607,2.222-1.751,2.402l0,0
							c-0.109,0.017-0.218,0.026-0.328,0.026l0,0C444.752,235.447,443.85,234.701,443.696,233.667z M122.769,233.726
							c-1.136-0.207-1.896-1.298-1.689-2.443l0,0c0.207-1.144,1.307-1.896,2.451-1.689l0,0c1.136,0.207,1.896,1.299,1.689,2.443l0,0
							c-0.191,1.018-1.072,1.727-2.064,1.73l0,0C123.029,233.767,122.903,233.751,122.769,233.726z M442.33,226.379
							c-0.256-1.135,0.465-2.255,1.599-2.503l0,0c1.135-0.247,2.256,0.473,2.503,1.6l0,0c0.255,1.135-0.465,2.256-1.6,2.511l0,0
							c-0.152,0.034-0.303,0.043-0.446,0.043l0,0C443.419,228.032,442.543,227.362,442.33,226.379z M124.085,226.304
							c-1.144-0.182-1.929-1.265-1.739-2.409l0,0c0.182-1.144,1.256-1.93,2.409-1.748l0,0c1.144,0.19,1.921,1.265,1.739,2.409l0,0
							c-0.165,1.035-1.055,1.769-2.064,1.772l0,0C124.312,226.329,124.203,226.321,124.085,226.304z M440.502,219.209
							c-0.323-1.117,0.321-2.288,1.431-2.611l0,0c1.118-0.323,2.288,0.321,2.611,1.439l0,0c0.323,1.109-0.321,2.28-1.439,2.603l0,0
							c-0.193,0.06-0.387,0.085-0.58,0.086l0,0C441.608,220.729,440.765,220.125,440.502,219.209z M125.251,218.849
							c-1.145-0.165-1.938-1.231-1.773-2.384l0,0l0,0l0,0c0.173-1.144,1.239-1.946,2.392-1.773l0,0
							c1.144,0.174,1.938,1.24,1.772,2.384l0,0c-0.157,1.044-1.055,1.795-2.072,1.798l0,0
							C125.469,218.874,125.36,218.866,125.251,218.849z M438.195,212.176c-0.399-1.093,0.161-2.297,1.254-2.695l0,0
							c1.084-0.407,2.296,0.154,2.694,1.246l0,0c0.399,1.092-0.161,2.297-1.245,2.703l0,0c-0.235,0.084-0.479,0.127-0.723,0.128l0,0
							C439.318,213.561,438.509,213.033,438.195,212.176z M126.34,211.386c-1.153-0.157-1.954-1.223-1.79-2.375l0,0
							c0.165-1.145,1.223-1.946,2.375-1.79l0,0c1.144,0.165,1.946,1.231,1.79,2.384l0,0c-0.149,1.044-1.046,1.803-2.081,1.806l0,0
							C126.542,211.411,126.441,211.402,126.34,211.386z M435.4,205.337c-0.474-1.059-0.006-2.305,1.053-2.787l0,0
							c1.058-0.474,2.304-0.006,2.786,1.052l0,0c0,0,0,0-0.008,0l0,0c0.483,1.059,0.015,2.305-1.044,2.787l0,0
							c-0.277,0.119-0.571,0.187-0.858,0.188l0,0C436.522,206.579,435.756,206.119,435.4,205.337z M127.388,203.923
							c-1.153-0.165-1.946-1.231-1.79-2.375l0,0c0.165-1.153,1.231-1.954,2.375-1.79l0,0c1.153,0.165,1.954,1.223,1.79,2.375l0,0
							c-0.149,1.043-1.046,1.803-2.073,1.806l0,0C127.59,203.939,127.489,203.931,127.388,203.923z M432.111,198.744
							c-0.566-1.024-0.191-2.296,0.825-2.862l0,0c1.016-0.558,2.295-0.183,2.853,0.833l0,0l0,0l0,0
							c0.558,1.016,0.191,2.296-0.825,2.854l0,0c-0.319,0.178-0.664,0.262-1.008,0.263l0,0
							C433.216,199.834,432.491,199.441,432.111,198.744z M128.452,196.451c-1.145-0.165-1.938-1.24-1.773-2.384l0,0
							c0.173-1.153,1.248-1.946,2.392-1.773l0,0c1.153,0.173,1.938,1.239,1.773,2.392l0,0c-0.157,1.035-1.055,1.786-2.073,1.789l0,0
							C128.663,196.476,128.562,196.467,128.452,196.451z M428.283,192.455L428.283,192.455c-0.642-0.966-0.384-2.27,0.581-2.92l0,0
							c0.966-0.642,2.27-0.385,2.92,0.581l0,0c0.642,0.965,0.385,2.27-0.58,2.92l0,0c-0.362,0.237-0.765,0.347-1.16,0.348l0,0
							C429.362,193.385,428.697,193.059,428.283,192.455z M129.584,188.996c-1.145-0.19-1.921-1.264-1.731-2.417l0,0
							c0.182-1.144,1.265-1.921,2.409-1.731l0,0c1.144,0.182,1.921,1.264,1.739,2.417l0,0c-0.174,1.026-1.063,1.761-2.073,1.763l0,0
							C129.82,189.029,129.702,189.012,129.584,188.996z M423.927,186.563c-0.734-0.906-0.604-2.228,0.294-2.961l0,0
							c0.898-0.734,2.219-0.603,2.953,0.295l0,0c0.743,0.898,0.603,2.227-0.294,2.961l0,0c-0.386,0.312-0.857,0.473-1.319,0.475l0,0
							C424.947,187.334,424.34,187.066,423.927,186.563z M419.009,181.151H419c-0.826-0.814-0.83-2.151-0.016-2.977l0,0
							c0.813-0.827,2.142-0.83,2.977-0.016l0,0c0,0,0,0-0.008,0l0,0c0.826,0.813,0.839,2.142,0.025,2.969l0,0
							c-0.41,0.422-0.949,0.625-1.495,0.627l0,0C419.952,181.754,419.413,181.554,419.009,181.151z M130.834,181.558
							c-1.144-0.207-1.896-1.307-1.689-2.451l0,0c0.215-1.145,1.315-1.896,2.451-1.681l0,0c1.144,0.207,1.896,1.307,1.689,2.451l0,0
							c-0.191,1.01-1.072,1.711-2.064,1.713l0,0C131.094,181.59,130.96,181.582,130.834,181.558z M413.529,176.347L413.529,176.347
							c-0.919-0.712-1.082-2.032-0.37-2.951l0,0c0.713-0.919,2.032-1.082,2.952-0.37l0,0l0,0l0,0
							c0.919,0.712,1.082,2.032,0.37,2.951l0,0c-0.411,0.531-1.033,0.81-1.655,0.812l0,0
							C414.371,176.79,413.917,176.64,413.529,176.347z M132.251,174.152c-1.136-0.249-1.863-1.366-1.614-2.502l0,0
							c0.241-1.136,1.358-1.854,2.494-1.613l0,0c1.136,0.241,1.854,1.366,1.613,2.502l0,0c-0.208,0.984-1.081,1.66-2.048,1.662l0,0
							C132.546,174.202,132.403,174.185,132.251,174.152z M407.52,172.259c-1.002-0.594-1.333-1.88-0.739-2.883l0,0
							c0.585-1.002,1.871-1.334,2.874-0.74l0,0c1.002,0.586,1.334,1.88,0.748,2.874l0,0c-0.393,0.666-1.09,1.038-1.814,1.04l0,0
							C408.228,172.552,407.857,172.46,407.52,172.259z M304.977,172.188L304.977,172.188c-1.161-0.005-2.096-0.962-2.083-2.122l0,0
							c0.005-1.161,0.953-2.088,2.122-2.083l0,0c1.161,0.014,2.088,0.961,2.083,2.122l0,0c-0.013,1.152-0.953,2.08-2.097,2.083l0,0
							C304.994,172.188,304.986,172.188,304.977,172.188z M310.438,170.02c-0.071-1.152,0.819-2.147,1.979-2.209l0,0
							c1.16-0.062,2.155,0.827,2.217,1.987l0,0c0.062,1.152-0.827,2.147-1.987,2.209l0,0c-0.034,0-0.076,0-0.109,0l0,0
							C311.427,172.01,310.491,171.147,310.438,170.02z M297.288,171.848c-1.161-0.098-2.022-1.113-1.924-2.274l0,0
							c0.098-1.153,1.113-2.013,2.274-1.915l0,0c1.153,0.089,2.014,1.104,1.916,2.265l0,0c-0.09,1.094-1.004,1.929-2.089,1.932l0,0
							C297.406,171.855,297.348,171.847,297.288,171.848z M317.956,169.52c-0.121-1.16,0.709-2.197,1.861-2.318l0,0l0,0l0,0
							c1.152-0.129,2.197,0.701,2.318,1.861l0,0c0.13,1.152-0.7,2.189-1.852,2.318l0,0c-0.076,0.008-0.151,0.009-0.227,0.009l0,0
							C318.987,171.392,318.076,170.596,317.956,169.52z M289.623,170.885c-1.144-0.199-1.912-1.29-1.714-2.434l0,0
							c0.198-1.145,1.281-1.913,2.426-1.714l0,0c1.145,0.199,1.913,1.282,1.714,2.426l0,0c-0.174,1.026-1.064,1.744-2.064,1.746l0,0
							C289.867,170.909,289.742,170.901,289.623,170.885z M325.447,168.607c-0.188-1.143,0.599-2.222,1.743-2.401l0,0l0,0l0,0
							c1.152-0.188,2.222,0.599,2.41,1.742l0,0c0.18,1.152-0.599,2.222-1.751,2.411l0,0c-0.109,0.017-0.218,0.026-0.319,0.026l0,0
							C326.503,170.388,325.609,169.641,325.447,168.607z M401.035,169.005c-1.07-0.451-1.569-1.686-1.118-2.755l0,0
							c0.451-1.069,1.678-1.578,2.747-1.126l0,0c1.078,0.451,1.578,1.686,1.126,2.755l0,0c-0.334,0.8-1.115,1.29-1.931,1.292l0,0
							C401.582,169.172,401.304,169.114,401.035,169.005z M332.887,167.393c-0.196-1.143,0.566-2.23,1.709-2.427l0,0l0,0l0,0
							c1.144-0.205,2.231,0.566,2.436,1.709l0,0c0.196,1.143-0.566,2.23-1.718,2.436l0,0c-0.117,0.017-0.235,0.026-0.353,0.026l0,0
							C333.96,169.139,333.066,168.419,332.887,167.393z M282.058,169.164c-1.12-0.316-1.771-1.475-1.454-2.595l0,0
							c0.326-1.12,1.484-1.762,2.604-1.445l0,0c1.111,0.316,1.762,1.475,1.445,2.595l0,0c-0.267,0.926-1.098,1.525-2.015,1.528l0,0
							C282.445,169.247,282.251,169.223,282.058,169.164z M340.318,166.094c-0.204-1.143,0.566-2.23,1.709-2.427l0,0
							c1.144-0.205,2.231,0.566,2.427,1.709l0,0c0.205,1.143-0.566,2.23-1.709,2.436l0,0c-0.117,0.017-0.235,0.026-0.353,0.026l0,0
							C341.383,167.84,340.49,167.12,340.318,166.094z M394.174,166.635c-1.12-0.308-1.779-1.467-1.471-2.587l0,0
							c0.308-1.12,1.467-1.779,2.586-1.471l0,0c1.12,0.308,1.779,1.467,1.471,2.587l0,0c-0.258,0.934-1.106,1.542-2.023,1.545l0,0
							C394.553,166.71,394.359,166.686,394.174,166.635z M347.751,164.82c-0.18-1.143,0.599-2.222,1.742-2.402l0,0c0,0,0,0,0.009,0
							l0,0c1.143-0.188,2.222,0.6,2.402,1.743l0,0c0.18,1.152-0.599,2.222-1.743,2.41l0,0c-0.109,0.017-0.218,0.026-0.328,0.026l0,0
							C348.815,166.601,347.921,165.863,347.751,164.82z M274.7,166.561L274.7,166.561c-1.07-0.46-1.561-1.695-1.101-2.764l0,0
							c0.46-1.061,1.694-1.552,2.764-1.093l0,0c1.061,0.459,1.56,1.695,1.101,2.755l0,0c-0.343,0.8-1.115,1.273-1.931,1.276l0,0
							C275.255,166.736,274.969,166.677,274.7,166.561z M133.88,166.788c-1.119-0.283-1.804-1.425-1.521-2.553l0,0l0,0l0,0
							c0.283-1.128,1.425-1.813,2.553-1.529l0,0c1.119,0.283,1.804,1.425,1.521,2.553l0,0c-0.233,0.951-1.089,1.592-2.031,1.595l0,0
							C134.233,166.854,134.056,166.83,133.88,166.788z M355.207,163.673c-0.146-1.152,0.658-2.205,1.81-2.351l0,0
							c1.152-0.155,2.214,0.658,2.36,1.81l0,0c0.147,1.152-0.667,2.214-1.819,2.36l0,0c-0.084,0.008-0.177,0.017-0.26,0.018l0,0
							C356.255,165.512,355.345,164.74,355.207,163.673z M387.038,165.116c-1.145-0.182-1.938-1.256-1.756-2.4l0,0
							c0.173-1.145,1.247-1.93,2.4-1.756l0,0c1.145,0.173,1.93,1.248,1.756,2.401l0,0c-0.165,1.035-1.055,1.777-2.072,1.78l0,0
							C387.256,165.14,387.147,165.132,387.038,165.116z M362.699,162.769c-0.104-1.16,0.76-2.18,1.912-2.276l0,0l0,0l0,0
							c1.16-0.096,2.172,0.759,2.276,1.92l0,0c0.095,1.152-0.76,2.172-1.92,2.268l0,0c-0.059,0.008-0.118,0.009-0.168,0.009l0,0
							C363.713,164.692,362.786,163.862,362.699,162.769z M379.743,164.362c-1.161-0.064-2.046-1.054-1.982-2.215l0,0
							c0.064-1.153,1.054-2.047,2.215-1.983l0,0c1.162,0.064,2.047,1.054,1.983,2.215l0,0c-0.064,1.119-0.987,1.988-2.089,1.991l0,0
							C379.827,164.37,379.786,164.37,379.743,164.362z M370.217,162.218c-0.029-1.169,0.894-2.131,2.055-2.159l0,0l0,0l0,0
							c1.161-0.028,2.122,0.894,2.15,2.055l0,0c0.029,1.16-0.886,2.122-2.047,2.15l0,0c-0.017,0-0.034,0-0.05,0l0,0
							C371.181,164.268,370.245,163.362,370.217,162.218z M267.734,162.929h0.009c-0.986-0.619-1.284-1.914-0.672-2.9l0,0
							c0.619-0.986,1.914-1.284,2.899-0.664l0,0c0.986,0.611,1.284,1.914,0.664,2.9l0,0c-0.393,0.632-1.082,0.979-1.781,0.981l0,0
							C268.475,163.247,268.087,163.147,267.734,162.929z M135.786,159.491c-1.111-0.333-1.745-1.501-1.42-2.612l0,0
							c0.334-1.12,1.501-1.754,2.62-1.42l0,0c1.111,0.334,1.745,1.501,1.412,2.612l0,0c-0.266,0.909-1.098,1.509-2.006,1.511l0,0
							C136.189,159.583,135.988,159.549,135.786,159.491z M261.438,158.17c-0.869-0.78-0.931-2.109-0.151-2.969l0,0
							c0.78-0.86,2.108-0.931,2.969-0.151l0,0c0.86,0.78,0.931,2.109,0.151,2.969l0,0c-0.411,0.455-0.982,0.692-1.555,0.694l0,0
							C262.348,158.714,261.843,158.538,261.438,158.17z M256.081,152.339L256.081,152.339c-0.709-0.923-0.528-2.244,0.395-2.945
							l0,0c0.924-0.701,2.244-0.528,2.945,0.396l0,0c0.701,0.923,0.528,2.244-0.395,2.954l0,0c-0.378,0.287-0.823,0.423-1.269,0.424
							l0,0C257.118,153.169,256.494,152.884,256.081,152.339z M138.003,152.285c-1.095-0.384-1.67-1.585-1.286-2.679l0,0
							c0.384-1.094,1.585-1.678,2.679-1.294l0,0c1.094,0.384,1.67,1.585,1.286,2.688l0,0c-0.3,0.858-1.106,1.399-1.973,1.401l0,0
							C138.475,152.402,138.239,152.369,138.003,152.285z M251.866,145.68c-0.541-1.024-0.149-2.296,0.875-2.837l0,0
							c1.033-0.541,2.304-0.149,2.845,0.884l0,0c0.542,1.024,0.149,2.296-0.883,2.836l0,0c-0.311,0.161-0.638,0.238-0.967,0.238l0,0
							C252.979,146.805,252.246,146.403,251.866,145.68z M140.591,145.205c-1.069-0.451-1.569-1.686-1.118-2.756l0,0
							c0,0,0,0-0.008,0l0,0c0.451-1.069,1.686-1.577,2.755-1.126l0,0c1.069,0.451,1.577,1.686,1.126,2.755l0,0
							c-0.343,0.8-1.115,1.281-1.939,1.284l0,0C141.138,145.363,140.86,145.313,140.591,145.205z M248.65,138.616h0.008
							c-0.432-1.084,0.095-2.305,1.178-2.729l0,0c1.076-0.432,2.296,0.095,2.729,1.178l0,0c0.423,1.075-0.104,2.296-1.178,2.728l0,0
							c-0.261,0.102-0.513,0.145-0.773,0.146l0,0C249.773,139.942,248.98,139.44,248.65,138.616z M143.616,138.291
							c-1.036-0.519-1.46-1.779-0.941-2.824l0,0c0.519-1.036,1.779-1.46,2.823-0.941l0,0c1.036,0.519,1.46,1.787,0.942,2.823l0,0
							c-0.368,0.733-1.115,1.164-1.881,1.166l0,0C144.24,138.517,143.92,138.442,143.616,138.291z M246.04,131.432
							c-0.373-1.101,0.212-2.297,1.313-2.67l0,0c1.1-0.381,2.296,0.213,2.67,1.305l0,0c0.373,1.101-0.213,2.297-1.313,2.67l0,0
							c-0.218,0.077-0.446,0.11-0.672,0.111l0,0C247.163,132.85,246.337,132.306,246.04,131.432z M147.089,131.595
							c-1.003-0.586-1.343-1.88-0.748-2.883l0,0c0.586-1.002,1.872-1.334,2.874-0.748l0,0c1.003,0.594,1.334,1.881,0.748,2.883l0,0
							c-0.394,0.666-1.091,1.037-1.806,1.04l0,0C147.787,131.888,147.426,131.788,147.089,131.595z M243.623,124.298
							c-0.381-1.101,0.196-2.297,1.288-2.678l0,0c1.101-0.381,2.297,0.196,2.679,1.297l0,0c0.382,1.092-0.196,2.297-1.296,2.678l0,0
							c-0.219,0.077-0.454,0.111-0.681,0.111l0,0C244.737,125.708,243.92,125.163,243.623,124.298z M151.007,125.15
							c-0.961-0.662-1.2-1.973-0.538-2.925l0,0c0.662-0.961,1.965-1.2,2.925-0.538l0,0c0.952,0.662,1.2,1.965,0.538,2.925l0,0
							c-0.41,0.59-1.066,0.903-1.73,0.905l0,0C151.79,125.518,151.369,125.401,151.007,125.15z M155.397,119.007
							c-0.902-0.729-1.04-2.058-0.311-2.951l0,0c0.738-0.902,2.058-1.041,2.96-0.311l0,0c0.902,0.738,1.04,2.058,0.303,2.96l0,0
							c-0.41,0.506-1.016,0.777-1.621,0.778l0,0C156.257,119.484,155.785,119.325,155.397,119.007z M241.006,117.366
							c-0.457-1.067,0.052-2.305,1.119-2.753l0,0c1.075-0.449,2.305,0.052,2.753,1.128l0,0l0,0l0,0
							c0.449,1.067-0.053,2.296-1.128,2.753l0,0c-0.261,0.11-0.53,0.161-0.799,0.162l0,0
							C242.127,118.659,241.344,118.173,241.006,117.366z M160.26,113.24c-0.835-0.805-0.855-2.134-0.05-2.969l0,0l0,0l0,0
							c0.813-0.835,2.142-0.855,2.977-0.05l0,0c0.835,0.805,0.855,2.142,0.05,2.969l0,0c-0.411,0.43-0.965,0.642-1.512,0.644l0,0
							C161.195,113.835,160.673,113.643,160.26,113.24z M237.808,110.84L237.808,110.84c-0.583-1.008-0.233-2.295,0.766-2.87l0,0
							c1.008-0.583,2.296-0.242,2.879,0.766l0,0c0.575,1.008,0.233,2.296-0.774,2.87l0,0c-0.328,0.194-0.689,0.28-1.042,0.281l0,0
							C238.905,111.888,238.197,111.512,237.808,110.84z M165.611,107.927c-0.751-0.881-0.645-2.21,0.236-2.961l0,0
							c0.881-0.751,2.21-0.654,2.97,0.236l0,0c0.751,0.881,0.645,2.21-0.236,2.961l0,0c-0.395,0.337-0.882,0.499-1.361,0.5l0,0
							C166.622,108.664,166.033,108.413,165.611,107.927z M233.705,105.006c-0.759-0.881-0.662-2.21,0.219-2.969l0,0
							c0.881-0.751,2.21-0.654,2.969,0.219l0,0c0.759,0.881,0.662,2.21-0.219,2.969l0,0c-0.394,0.337-0.882,0.507-1.37,0.508l0,0
							C234.716,105.735,234.126,105.493,233.705,105.006z M171.46,103.159c-0.659-0.957-0.419-2.261,0.539-2.92l0,0l0,0l0,0
							c0.957-0.659,2.27-0.419,2.92,0.539l0,0c0.658,0.957,0.418,2.27-0.539,2.928l0,0c-0.361,0.245-0.773,0.364-1.185,0.365l0,0
							C172.531,104.072,171.865,103.755,171.46,103.159z M228.536,100.226c-0.944-0.679-1.15-1.999-0.462-2.934l0,0
							c0.687-0.935,1.998-1.141,2.934-0.462l0,0c0.944,0.687,1.15,2.007,0.462,2.942l0,0c-0.41,0.565-1.049,0.861-1.697,0.863l0,0
							C229.344,100.636,228.906,100.503,228.536,100.226z M177.774,99.045c-0.549-1.033-0.158-2.304,0.867-2.845l0,0
							c1.024-0.549,2.296-0.158,2.837,0.867l0,0c0.549,1.025,0.166,2.296-0.859,2.837l0,0c-0.319,0.169-0.655,0.254-0.983,0.255l0,0
							C178.879,100.161,178.146,99.751,177.774,99.045z M184.51,95.671c-0.415-1.076,0.12-2.296,1.204-2.72l0,0
							c1.084-0.415,2.296,0.12,2.72,1.204l0,0c0.415,1.084-0.12,2.305-1.204,2.72l0,0c-0.252,0.102-0.504,0.144-0.756,0.145l0,0
							C185.632,97.022,184.832,96.511,184.51,95.671z M222.395,96.71c-1.061-0.468-1.544-1.712-1.076-2.772l0,0
							c0.468-1.061,1.712-1.544,2.772-1.076l0,0c1.061,0.468,1.544,1.712,1.076,2.772l0,0c-0.351,0.783-1.115,1.257-1.923,1.259l0,0
							C222.959,96.894,222.673,96.836,222.395,96.71z M191.618,93.145c-0.272-1.127,0.431-2.264,1.557-2.527l0,0l0,0l0,0
							c1.135-0.264,2.264,0.431,2.536,1.557l0,0c0.264,1.135-0.431,2.264-1.566,2.536l0,0c-0.16,0.034-0.319,0.06-0.479,0.06l0,0
							C192.708,94.774,191.848,94.12,191.618,93.145z M215.618,94.475L215.618,94.475c-1.128-0.266-1.837-1.391-1.571-2.519l0,0
							c0.258-1.136,1.391-1.846,2.519-1.58l0,0l0,0l0,0c1.136,0.258,1.838,1.391,1.58,2.519l0,0
							c-0.224,0.968-1.089,1.626-2.048,1.629l0,0C215.938,94.525,215.777,94.508,215.618,94.475z M199.007,91.644
							c-0.104-1.16,0.751-2.18,1.911-2.276l0,0c1.152-0.104,2.172,0.751,2.276,1.903l0,0c0.104,1.16-0.751,2.18-1.912,2.285l0,0
							c-0.059,0-0.117,0.008-0.177,0.009l0,0C200.022,93.568,199.103,92.738,199.007,91.644z M208.508,93.452
							c-1.161-0.072-2.047-1.071-1.975-2.232l0,0c0.073-1.153,1.071-2.038,2.232-1.966l0,0l0,0l0,0
							c1.161,0.073,2.038,1.071,1.966,2.232l0,0c-0.064,1.11-0.987,1.962-2.089,1.965l0,0
							C208.6,93.451,208.55,93.452,208.508,93.452z"/>
					</g>
					<g>
						<path style="fill:#D1C4FF;" d="M377.88,376.452c-0.143,0-0.278-0.007-0.412-0.041c-0.135-0.025-0.27-0.067-0.395-0.116
							c-0.127-0.051-0.253-0.118-0.363-0.193c-0.118-0.075-0.227-0.159-0.32-0.259c-0.101-0.092-0.185-0.202-0.261-0.319
							c-0.076-0.11-0.144-0.235-0.195-0.362c-0.059-0.125-0.093-0.26-0.127-0.395c-0.026-0.135-0.044-0.269-0.044-0.412
							c0-0.135,0.017-0.278,0.042-0.412c0.033-0.134,0.067-0.261,0.125-0.387c0.051-0.134,0.118-0.252,0.193-0.37
							c0.075-0.109,0.159-0.219,0.259-0.312c0.093-0.101,0.202-0.194,0.319-0.27c0.109-0.076,0.235-0.135,0.362-0.194
							c0.125-0.051,0.26-0.094,0.395-0.119c0.681-0.136,1.413,0.081,1.894,0.576c0.396,0.386,0.625,0.923,0.627,1.478
							c0.001,0.555-0.225,1.094-0.618,1.491c-0.093,0.101-0.202,0.185-0.319,0.261c-0.109,0.076-0.235,0.144-0.362,0.195
							c-0.125,0.05-0.26,0.093-0.395,0.118C378.148,376.443,378.014,376.451,377.88,376.452z"/>
					</g>
				</g>
				<g>
					<path style="fill:#D1C4FF;" d="M79.326,429.717l287.451-0.791c16-16.536,30.659-34.219,40.678-54.805
						c14.806-30.422,17.626-68.997-1.721-96.753c-16.562-23.76-47.79-38.442-53.628-66.81c-3.152-15.317,2.175-30.91,5.517-46.187
						c3.341-15.277,4.138-32.96-6.111-44.771c-12.049-13.886-33.869-13.4-51.453-8.034c-19.792,6.041-38.117,16.826-53.006,31.197
						c-15.2,14.671-29.176,34.249-50.195,36.36c-27.098,2.722-49.314-25.686-76.54-25.014
						c-18.537,0.458-34.545,15.178-41.126,32.513c-6.581,17.336-5.282,36.692-1.532,54.852c3.75,18.16,9.839,35.82,12.67,54.145
						c2.831,18.325,2.12,37.99-6.995,54.138c-5.145,9.115-12.757,16.748-17.169,26.239c-6.751,14.523-4.806,32.704,4.865,45.47
						C73.398,424.592,76.206,427.357,79.326,429.717z"/>
					<path style="opacity:0.2;fill:#FFFFFF;" d="M326.315,351.493c-5.894-21.979,22.076-43.62,13.999-64.894
						c-3.958-10.425-15.591-16.078-26.684-17.214c-11.093-1.137-22.222,1.196-33.365,1.627c-11.143,0.431-23.234-1.471-31.117-9.358
						c-12.191-12.197-9.548-33.194-19.356-47.378c-9.403-13.598-29.273-17.503-44.459-10.968
						c-15.186,6.535-25.553,21.653-29.356,37.743c-3.802,16.09-1.754,33.053,2.505,49.028c4.753,17.826,11.723,38.579,0.495,53.218
						c-9.591,12.505-28.818,14.496-38.097,27.235c-10.608,14.565-3.137,35.026,5.826,50.657c1.604,2.798,3.404,5.645,5.381,8.384
						l220.5-0.607c1.093-2.565,1.982-5.218,2.629-7.934c3.577-15.013-0.087-31.582-9.661-43.687
						C338.825,368.835,329.125,361.971,326.315,351.493z"/>
					<g>
						<defs>
							<path id="SVGID_1_" d="M79.326,429.717l287.451-0.791c16-16.536,30.659-34.219,40.678-54.805
								c14.806-30.422,17.626-68.997-1.721-96.753c-16.562-23.76-47.79-38.442-53.628-66.81c-3.152-15.317,2.175-30.91,5.517-46.187
								c3.341-15.277,4.138-32.96-6.111-44.771c-12.049-13.886-33.869-13.4-51.453-8.034c-19.792,6.041-38.117,16.826-53.006,31.197
								c-15.2,14.671-29.176,34.249-50.195,36.36c-27.098,2.722-49.314-25.686-76.54-25.014
								c-18.537,0.458-34.545,15.178-41.126,32.513c-6.581,17.336-5.282,36.692-1.532,54.852c3.75,18.16,9.839,35.82,12.67,54.145
								c2.831,18.325,2.12,37.99-6.995,54.138c-5.145,9.115-12.757,16.748-17.169,26.239c-6.751,14.523-4.806,32.704,4.865,45.47
								C73.398,424.592,76.206,427.357,79.326,429.717z"/>
						</defs>
						<clipPath id="SVGID_00000165194500427970569160000008482183936604645255_">
							<use xlink:href="#SVGID_1_"  style="overflow:visible;"/>
						</clipPath>
						<g style="clip-path:url(#SVGID_00000165194500427970569160000008482183936604645255_);">
							<g>
								<path style="fill:#FF89CE;" d="M294.82,266.289c-19.251-9.891-43.196-10.065-62.589-0.455
									c-3.987,6.965-7.029,14.162-9.47,21.807c-18.927,13.892-37.928,28.843-55.684,44.202c-0.435,4.786,2.206,9.943,6.238,12.557
									c4.032,2.615,9.518,2.792,13.711,0.443c1.539,3.253,3.571,6.556,6.932,7.842c3.361,1.286,7.217,1.224,10.534-0.17
									c-1.186,2.014-0.17,5.06,1.387,6.804c1.556,1.744,3.922,2.597,6.253,2.778s4.662-0.242,6.956-0.687
									c1.628,2.797,3.05,5.267,6.247,5.768c3.197,0.501,6.462,0,9.636-0.635c32.655-6.54,61.95-28.228,77.738-57.552
									C309.876,293.399,308.916,273.531,294.82,266.289z"/>
								<path style="opacity:0.2;" d="M294.82,266.289c-3.084-1.585-6.29-2.917-9.578-4.002
									c1.824,21.211,8.191,42.021,18.534,60.627c3.316-4.41,6.314-9.058,8.932-13.922
									C309.876,293.399,308.916,273.531,294.82,266.289z"/>
								<path style="fill:#FFFFFF;" d="M302.427,249.99c-5.88,2.523-11.759,5.045-17.639,7.568
									c4.562,24.318,15.757,47.221,32.427,65.505c5.716-1.452,11.728-3.405,17.054-5.938
									C317.253,298.313,316.472,271.112,302.427,249.99z"/>
								<path style="opacity:0.2;" d="M321.808,321.797c4.264-1.266,8.547-2.811,12.461-4.672
									c-17.016-18.811-17.797-46.013-31.842-67.135c-1.018,0.437-2.036,0.874-3.054,1.31
									C301.671,276.112,308.965,300.495,321.808,321.797z"/>
								<path style="fill:#5645D7;" d="M401.294,187.201c-14.304,6.426-88.88,47.168-102.566,54.824
									c4.407,28.782,15.493,56.714,33.686,79.448c8.836-3.573,79.313-40.643,88.239-43.983c1.365-17.75,2.42-38.42,1.312-56.189
									c-0.428-6.857-1.068-13.825-3.664-20.186C415.706,194.754,407.826,189.329,401.294,187.201z"/>
								<g>
									
										<ellipse transform="matrix(0.7071 -0.7071 0.7071 0.7071 -112.41 326.6778)" style="fill:#FFA93A;" cx="338.13" cy="299.03" rx="7.034" ry="7.034"/>
									<path style="fill:#FFA93A;" d="M363.946,288.152c0.011,3.885-3.13,7.042-7.014,7.053c-3.885,0.011-7.042-3.13-7.053-7.014
										c-0.011-3.885,3.13-7.042,7.014-7.053C360.778,281.127,363.936,284.267,363.946,288.152z"/>
									
										<ellipse transform="matrix(0.7071 -0.7071 0.7071 0.7071 -86.0509 346.8797)" style="fill:#FFA93A;" cx="375.695" cy="277.312" rx="7.034" ry="7.034"/>
								</g>
								<path style="opacity:0.2;" d="M295.234,325.148c-13.408-8.462-25.421-18.96-35.317-31.348
									c0.627-4.357,0.708-8.556,1.335-12.913c-9.873,1.273-19.376,5.306-27.151,11.524c-1.689,8.837,0.13,18.598,5.281,25.974
									c3.735,5.349,10.132,8.048,16.186,10.482c11.291,4.538,22.365,8.776,34.311,9.406c2.229-2.056,4.377-4.198,6.436-6.422
									C296.507,329.494,296.16,327.093,295.234,325.148z"/>
							</g>
							<g>
								<path style="fill:#8E35FF;" d="M163.863,266.65c19.196-9.996,43.14-10.302,62.585-0.8c4.025,6.943,7.107,14.123,9.59,21.755
									c18.085,13.121,42.205,31.739,59.871,46.662c2.002,1.691,2.897,4.396,2.174,6.915c-0.917,3.195-2.99,6.136-5.705,7.918
									c-4.017,2.637-9.503,2.845-13.708,0.519c-1.522,3.261-3.535,6.576-6.889,7.88s-7.21,1.264-10.535-0.112
									c1.197,2.008,0.198,5.059-1.349,6.811c-1.547,1.753-3.908,2.619-6.237,2.812c-2.33,0.193-4.663-0.217-6.96-0.649
									c-1.613,2.806-3.021,5.284-6.215,5.802c-3.195,0.518-6.462,0.036-9.639-0.582c-32.691-6.36-68.687-32.895-84.636-62.132
									C148.956,293.842,149.808,273.969,163.863,266.65z"/>
								<path style="fill:#FFFFFF;" d="M156.167,250.393c5.893,2.49,11.787,4.98,17.681,7.47
									c-4.428,24.343-15.497,47.307-32.066,65.682c-5.724-1.421-11.746-3.34-17.086-5.843
									C141.607,298.797,142.238,271.591,156.167,250.393z"/>
								<path style="fill:#0043D7;" d="M54.373,188.155c14.339,6.347,91.722,46.671,105.449,54.252
									c-4.249,28.806-15.181,56.798-33.248,79.632c-8.856-3.524-82.118-40.199-91.063-43.49
									c-1.463-17.743-2.632-38.407-1.622-56.181c0.39-6.859,0.992-13.831,3.552-20.206
									C40.002,195.788,47.852,190.32,54.373,188.155z"/>
								<g>
									
										<ellipse transform="matrix(0.7071 -0.7071 0.7071 0.7071 -177.4276 170.9254)" style="fill:#FFA93A;" cx="117.611" cy="299.637" rx="7.034" ry="7.034"/>
									
										<ellipse transform="matrix(0.9968 -0.0795 0.0795 0.9968 -22.6627 8.7705)" style="fill:#FFA93A;" cx="98.769" cy="288.882" rx="7.034" ry="7.034"/>
									<path style="fill:#FFA93A;" d="M72.893,278.146c0.011,3.885,3.168,7.025,7.053,7.014c3.885-0.011,7.025-3.168,7.014-7.053
										c-0.011-3.885-3.168-7.025-7.053-7.014C76.023,271.103,72.883,274.261,72.893,278.146z"/>
								</g>
								<path style="opacity:0.2;" d="M236.039,287.605c-0.894-2.749-1.87-5.437-2.935-8.078c-0.949-0.308-1.909-0.564-2.866-0.755
									c-6.636-1.324-13.523,0.304-19.844,2.72c-6.321,2.416-12.302,5.341-18.758,7.369c2.439,6.406,8.439,11.079,15.051,12.889
									c6.612,1.809,13.739,1,20.221-1.23c5.591-1.923,10.767-4.858,15.744-8.069C240.38,290.771,238.165,289.147,236.039,287.605z
									"/>
							</g>
							<path style="fill:#FF89CE;" d="M251.671,259.474c-21.757,5.257-42.558,14.444-61.098,26.984
								c-0.007,4.846,5.796,7.455,10.455,8.788c7.494,2.143,15.573,1.444,23.074-0.674c7.502-2.118,14.536-5.595,21.522-9.054
								C247.733,277.202,249.562,267.791,251.671,259.474z"/>
							<path style="fill:#FF89CE;" d="M168.452,350.385c3.118,0.488,6.204-0.967,8.862-2.668c3.631-2.324,6.915-5.189,9.711-8.471
								c1.939-2.277,3.732-5.262,2.79-8.1c-1.055-3.18-4.958-4.379-8.308-4.387c-5.692-0.014-13.088,1.926-16.834,6.503
								C160.385,338.502,159.841,349.038,168.452,350.385z"/>
							<path style="fill:#FF89CE;" d="M182.702,359.072c3.118,0.488,6.204-0.967,8.862-2.668c3.631-2.324,6.915-5.189,9.711-8.471
								c1.939-2.276,3.732-5.262,2.79-8.1c-1.055-3.18-4.958-4.379-8.308-4.387c-5.692-0.013-13.088,1.926-16.834,6.503
								C174.634,347.189,174.09,357.725,182.702,359.072z"/>
							<path style="fill:#FF89CE;" d="M199.452,365.021c2.757,0.431,5.486-0.855,7.837-2.36c3.211-2.055,6.115-4.589,8.587-7.491
								c1.714-2.013,3.3-4.653,2.467-7.162c-0.933-2.812-4.384-3.872-7.347-3.879c-5.033-0.012-11.573,1.703-14.885,5.75
								C192.318,354.514,191.837,363.83,199.452,365.021z"/>
							<path style="fill:#FF89CE;" d="M212.254,370.568c2.67,0.418,5.314-0.828,7.59-2.285c3.11-1.99,5.923-4.444,8.317-7.255
								c1.661-1.95,3.197-4.507,2.39-6.937c-0.904-2.724-4.246-3.751-7.115-3.757c-4.875-0.012-11.21,1.649-14.418,5.57
								C205.344,360.391,204.878,369.415,212.254,370.568z"/>
							<path style="opacity:0.3;fill:#FFFFFF;" d="M199.308,288.878c3.192,1.287,6.94,1.114,10-0.461
								c-0.416-3.882-1.56-7.82-3.56-11.193c-4.071,2.222-8.062,4.591-11.957,7.109
								C195.133,286.346,197.062,287.972,199.308,288.878z"/>
							<path style="opacity:0.3;fill:#FFFFFF;" d="M177.562,330.403c1.32-0.864,2.825-1.508,4.401-1.582
								c1.576-0.075,3.226,0.479,4.251,1.678c1.249,1.461,1.375,3.661,0.658,5.445c-0.717,1.784-2.155,3.192-3.743,4.276
								c-2.333,0.006-4.819-1.285-6.019-3.286C175.91,334.933,175.609,331.681,177.562,330.403z"/>
							<path style="opacity:0.3;fill:#FFFFFF;" d="M192.424,340.053c1.03-0.674,2.205-1.177,3.435-1.235
								c1.23-0.058,2.518,0.374,3.319,1.31c0.976,1.14,1.073,2.858,0.514,4.251c-0.56,1.392-1.682,2.492-2.922,3.338
								c-1.822,0.005-3.762-1.003-4.699-2.565C191.134,343.59,190.9,341.051,192.424,340.053z"/>
							<path style="opacity:0.3;fill:#FFFFFF;" d="M207.492,348.488c1.03-0.674,2.205-1.177,3.435-1.235
								c1.23-0.058,2.518,0.374,3.319,1.31c0.975,1.14,1.073,2.858,0.513,4.251s-1.682,2.492-2.922,3.338
								c-1.822,0.005-3.762-1.003-4.699-2.565C206.202,352.024,205.967,349.485,207.492,348.488z"/>
							<path style="opacity:0.3;fill:#FFFFFF;" d="M220.689,354.129c1.03-0.674,2.205-1.177,3.435-1.235
								c1.23-0.058,2.518,0.374,3.319,1.31c0.975,1.14,1.073,2.858,0.514,4.251c-0.56,1.392-1.682,2.492-2.922,3.338
								c-1.822,0.005-3.762-1.003-4.699-2.565C219.399,357.665,219.165,355.126,220.689,354.129z"/>
						</g>
					</g>
				</g>
				
					<ellipse transform="matrix(0.7071 -0.7071 0.7071 0.7071 -13.9709 363.759)" style="fill:#8E35FF;" cx="432.11" cy="198.744" rx="29.966" ry="29.965"/>
				
					<ellipse transform="matrix(0.9211 -0.3894 0.3894 0.9211 -30.0679 71.6472)" style="fill:#FF89CE;" cx="161.718" cy="110" rx="29.965" ry="29.965"/>
				<polygon style="fill:#FFFFFF;" points="177.525,118.796 177.525,89.254 145.912,89.254 145.912,130.747 165.573,130.747 				"/>
				<polygon style="opacity:0.1;" points="165.573,130.747 177.525,118.796 165.573,118.796 				"/>
				<path style="opacity:0.1;" d="M171.94,95.951h-20.595c-0.69,0-1.25-0.559-1.25-1.25l0,0c0-0.69,0.56-1.25,1.25-1.25h20.595
					c0.69,0,1.25,0.559,1.25,1.25l0,0C173.189,95.392,172.63,95.951,171.94,95.951z"/>
				<path style="opacity:0.1;" d="M171.94,101.409h-20.595c-0.69,0-1.25-0.56-1.25-1.25l0,0c0-0.69,0.56-1.25,1.25-1.25h20.595
					c0.69,0,1.25,0.56,1.25,1.25l0,0C173.189,100.849,172.63,101.409,171.94,101.409z"/>
				<path style="opacity:0.1;" d="M171.94,106.866h-20.595c-0.69,0-1.25-0.56-1.25-1.25l0,0c0-0.69,0.56-1.25,1.25-1.25h20.595
					c0.69,0,1.25,0.56,1.25,1.25l0,0C173.189,106.306,172.63,106.866,171.94,106.866z"/>
				<path style="opacity:0.1;" d="M171.94,112.323h-20.595c-0.69,0-1.25-0.56-1.25-1.25l0,0c0-0.69,0.56-1.25,1.25-1.25h20.595
					c0.69,0,1.25,0.559,1.25,1.25l0,0C173.189,111.764,172.63,112.323,171.94,112.323z"/>
				<path style="opacity:0.1;" d="M171.94,117.78h-20.595c-0.69,0-1.25-0.56-1.25-1.25l0,0c0-0.69,0.56-1.25,1.25-1.25h20.595
					c0.69,0,1.25,0.56,1.25,1.25l0,0C173.189,117.221,172.63,117.78,171.94,117.78z"/>
				<rect x="414.395" y="187.042" style="fill:#FFFFFF;" width="35.483" height="23.405"/>
				<polygon style="opacity:0.05;" points="449.878,187.042 414.395,187.042 431.752,206.577 432.522,206.577 				"/>
				<polygon style="opacity:0.1;" points="432.522,206.577 431.752,206.577 426.138,200.258 414.395,210.446 449.878,210.446 
					438.136,200.258 				"/>
			</g>
			<g>
				<g>
					<polygon style="fill:#FF9675;" points="418.434,429.528 416.999,429.532 428.554,373.808 435.607,373.788 					"/>
					<polygon style="fill:#FF9675;" points="471.849,429.381 473.284,429.377 461.422,373.717 454.369,373.737 					"/>
				</g>
				<g style="opacity:0.4;">
					<polygon points="418.434,429.528 416.999,429.532 428.554,373.808 435.607,373.788 					"/>
					<polygon points="471.849,429.381 473.284,429.377 461.422,373.717 454.369,373.737 					"/>
				</g>
				<path style="fill:#FF9675;" d="M424.728,377.221c2.654,1.6,5.958,1.504,9.053,1.36c6.716-0.314,13.432-0.628,20.148-0.943
					c4.825-0.226,9.998-0.575,13.791-3.566c4.048-3.192,5.516-8.592,6.565-13.639c3.342-16.075,4.867-32.527,4.535-48.943
					c-0.098-4.842-1.691-11.134-6.526-11.414c-5.764,9.579-6.505,21.221-8.879,32.146c-2.373,10.925-7.534,22.557-17.886,26.779
					c-3.9,1.591-8.18,1.956-12.24,3.077C428.169,363.491,415.813,371.848,424.728,377.221z"/>
				<path style="fill:#FF89CE;" d="M377.943,310.257c-1.099,0.063-2.103-0.591-2.959-1.282c-0.856-0.691-1.702-1.473-2.768-1.748
					c-1.443-0.372-2.995,0.298-4.062,1.338c-1.067,1.04-1.744,2.407-2.401,3.745c-0.199,0.406,0.399,0.887,0.737,1.188
					c0.338,0.301,0.769,0.471,1.191,0.635c1.668,0.65,3.358,1.305,5.135,1.516c1.777,0.211,3.681-0.068,5.115-1.139
					C377.863,313.231,378.01,311.538,377.943,310.257z"/>
				<path style="fill:#FFA93A;" d="M438.366,278.287c-5.5,11.007-14.64,20.157-25.641,25.67
					c-11.001,5.512-23.802,7.357-35.911,5.174c-0.818,1.935-1.702,4.56-1.429,6.643c18.324,3.47,39.146,1.084,55.588-7.718
					c8.084-4.327,15.982-10.865,17.607-19.889c0.548-3.043,0.258-6.407-1.624-8.86C445.074,276.853,439.748,275.521,438.366,278.287
					z"/>
				<path style="opacity:0.3;" d="M438.366,278.287c-5.5,11.007-14.64,20.157-25.641,25.67c-11.001,5.512-23.802,7.357-35.911,5.174
					c-0.818,1.935-1.702,4.56-1.429,6.643c18.324,3.47,39.146,1.084,55.588-7.718c8.084-4.327,15.982-10.865,17.607-19.889
					c0.548-3.043,0.258-6.407-1.624-8.86C445.074,276.853,439.748,275.521,438.366,278.287z"/>
				<path style="fill:#FF89CE;" d="M374.462,321.116c-1.099,0.063-2.103-0.591-2.959-1.282c-0.856-0.692-1.702-1.473-2.768-1.748
					c-1.443-0.372-2.995,0.297-4.062,1.338c-1.067,1.041-1.744,2.407-2.401,3.745c-0.199,0.406,0.4,0.887,0.737,1.188
					c0.338,0.301,0.769,0.471,1.191,0.636c1.668,0.65,3.358,1.305,5.135,1.516c1.777,0.211,3.681-0.068,5.115-1.139
					C374.382,324.089,374.53,322.396,374.462,321.116z"/>
				<path style="fill:#231B57;" d="M361.064,420.467c-0.365,1.673-1.85,2.881-3.405,3.598c-1.555,0.717-3.258,1.083-4.788,1.852
					c-1.53,0.77-2.942,2.099-3.134,3.8l18.482-0.051c-0.623-2.883-1.18-6.433-1.804-9.316
					C364.966,419.445,362.603,419.727,361.064,420.467z"/>
				<path style="fill:#231B57;" d="M397.689,420.366c-0.365,1.673-1.85,2.881-3.405,3.598c-1.555,0.717-3.258,1.083-4.788,1.852
					c-1.53,0.77-2.943,2.099-3.134,3.8l18.482-0.051c-0.624-2.883-1.18-6.433-1.804-9.316
					C401.592,419.344,399.228,419.626,397.689,420.366z"/>
				<path style="fill:#8E35FF;" d="M435.566,294.963c-3.864,1.763-8.739-0.48-10.811-4.188c-2.072-3.708-1.763-8.369-0.232-12.331
					c1.039-2.691,2.635-5.502,1.847-8.277c-0.841-2.962-4.096-4.635-5.306-7.466c-1.146-2.683-0.165-5.895,1.689-8.148
					c1.854-2.252,4.449-3.746,6.984-5.19c0.637-3.385,3.374-6.311,6.627-7.444c3.253-1.133,7.087-0.397,9.69,1.86
					c2.51,2.177,3.863,5.565,6.669,7.345c2.61,1.656,6.071,1.639,8.536,3.504c2.803,2.121,3.504,6.11,2.989,9.588
					c-0.516,3.477-2.002,6.738-2.732,10.176c-0.731,3.438-0.561,7.385,1.8,9.989c2.451,2.703,6.909,3.605,8.154,7.034
					c1.186,3.264-1.339,6.632-3.833,9.049c-2.494,2.417-5.373,5.227-5.049,8.685c0.184,1.963,1.4,3.657,2.07,5.511
					c1.757,4.862-0.683,10.68-5.071,13.413c-4.388,2.733-10.234,2.553-14.823,0.172c-3.369-1.748-6.177-4.65-7.562-8.184
					c-1.386-3.533-1.268-7.682,0.55-11.014c0.772-1.414,1.837-2.692,2.294-4.236C441.057,301.389,437.664,297.849,435.566,294.963z"
					/>
				<path style="fill:#5645D7;" d="M389.688,369.633c1.26,17.912,3.097,35.784,5.509,53.578l9.369-0.026
					c-3.008-17.082,7.699-35.587,2.345-52.085C401.239,371.546,395.337,370.318,389.688,369.633z"/>
				<path style="opacity:0.3;" d="M389.688,369.633c1.26,17.912,3.097,35.784,5.509,53.578l9.369-0.026
					c-3.008-17.082,7.699-35.587,2.345-52.085C401.239,371.546,395.337,370.318,389.688,369.633z"/>
				<path style="fill:#5645D7;" d="M434.436,340.031c-6.883,8.387-1.266,10.336-12.105,10.813
					c-10.839,0.478-22.347,0.185-31.66,5.75c-7.104,4.245-11.962,11.388-15.928,18.652c-7.938,14.54-13.244,30.513-15.582,46.913
					c2.806,0.999,5.837,0.784,8.675-0.119c11.575-13.439,21.399-29.699,26.878-46.569c19.009-0.209,21.598-1.117,40.607-1.326
					c7.693-0.085,16.173-0.472,21.765-5.756c3.665-3.464,5.445-8.628,5.442-13.671c-0.003-5.043-1.654-9.975-4.014-14.432
					C449.826,340.697,443.124,339.621,434.436,340.031z"/>
				<path style="opacity:0.3;" d="M458.513,340.286c-8.688,0.41-15.389-0.665-24.077-0.255c-1.398,1.704-3.013,3.133-4.776,4.35
					c2.002,3.624,6.369,5.828,10.5,7.064c7.2,2.154,14.855,2.724,22.305,1.742C462.171,348.68,460.634,344.291,458.513,340.286z"/>
				<path style="fill:#FFA93A;" d="M435.245,280.517c-5.241,4.786-10.482,9.573-15.723,14.359c-1.473,1.345-3.019,2.812-3.473,4.754
					c-0.702,3.003,1.41,5.85,3.199,8.362c7.164,10.056,10.917,22.498,10.51,34.838c9.68,4.698,22.391,4.617,31.325-1.38
					c-5.238-5.952-7.348-15.325-7.925-23.232c-0.577-7.908,0.271-15.845,0.25-23.774c-0.013-4.79-0.47-9.923-3.479-13.65
					C446.919,277.067,438.782,277.286,435.245,280.517z"/>
				<path style="fill:#FFA93A;" d="M434.885,289.146c-5.5,11.007-14.64,20.157-25.641,25.67
					c-11.001,5.512-23.802,7.357-35.911,5.174c-0.818,1.936-1.702,4.56-1.429,6.643c18.324,3.47,39.146,1.084,55.588-7.718
					c8.084-4.327,15.982-10.865,17.607-19.889c0.548-3.043,0.258-6.407-1.624-8.86C441.593,287.712,436.268,286.38,434.885,289.146z
					"/>
				<path style="fill:#FF89CE;" d="M431.913,272.278c1.394,4.077,2.789,8.154,4.183,12.231c2.153-2.013,5.559-2.912,6.946-5.513
					c-0.595-3.202-2.012-8.385-2.607-11.587C436.939,267.586,434.166,269.599,431.913,272.278z"/>
				<path style="opacity:0.3;" d="M442.551,276.662c-0.685-3.034-1.65-6.745-2.116-9.253c-3.496,0.176-6.269,2.189-8.522,4.868
					c1.059,3.098,2.119,6.195,3.178,9.293C437.819,280.299,440.443,278.683,442.551,276.662z"/>
				<path style="fill:#FF89CE;" d="M426.869,257.757c-0.899,7.338,0.751,14.963,4.603,21.272
					c6.278-2.256,12.968-6.174,15.087-12.499c1.244-3.714,0.889-7.999-1.225-11.296s-6.032-5.442-9.937-5.143
					S427.345,253.869,426.869,257.757z"/>
				<path style="fill:#8E35FF;" d="M424.989,261.156c2.786-0.777,5.336-2.381,7.243-4.557c-0.112,2.344-0.059,5.471,1.77,6.941
					c0.804,0.646,1.846,0.94,2.646,1.591c1.434,1.168,1.783,3.202,1.834,5.05c0.051,1.849-0.078,3.791,0.742,5.449
					c1.403,2.837,5.239,3.77,8.246,2.784c3.007-0.986,5.307-3.409,7.239-5.915c0.424-4.644-0.556-9.399-2.416-13.676
					c-1.86-4.276-5.173-8.003-9.441-9.882c-4.268-1.879-9.489-1.737-13.401,0.801C425.538,252.281,423.882,256.626,424.989,261.156z
					"/>
				
					<rect x="342.848" y="334.008" transform="matrix(1 -0.0028 0.0028 1 -0.9236 1.062)" style="fill:#FF9675;" width="84.971" height="4.068"/>
				<g>
					<polygon style="fill:#FF9675;" points="330.659,429.608 327.709,429.617 351.547,338.182 366.05,338.139 					"/>
					<polygon style="fill:#FF9675;" points="440.49,429.285 443.44,429.277 419.131,337.983 404.628,338.026 					"/>
				</g>
				
					<rect x="359.44" y="331.917" transform="matrix(1 -0.0028 0.0028 1 -0.915 1.0619)" style="fill:#FFFFFF;" width="51.77" height="2.091"/>
				<polygon style="fill:#FFFFFF;" points="333.081,287.38 363.375,333.023 359.437,331.988 331.325,288.516 				"/>
			</g>
			<g>
				<path style="fill:#231B57;" d="M71.295,415.476c-0.062,2.384,1.914,4.356,4.036,5.444c2.122,1.088,4.514,1.618,6.54,2.875
					c2.027,1.256,3.692,3.623,3.058,5.922H61.151c-1.05-4.856-0.644-10.362,1.621-14.784
					C65.66,413.684,68.219,414.813,71.295,415.476z"/>
				<path style="fill:#231B57;" d="M113.203,417.061c-0.055,2.118,1.701,3.871,3.587,4.838c1.886,0.967,4.011,1.438,5.812,2.555
					c1.801,1.117,3.281,3.22,2.718,5.263h-21.132c-0.933-4.315-0.572-9.209,1.44-13.138
					C108.195,415.469,110.469,416.472,113.203,417.061z"/>
				<path style="fill:#FF89CE;" d="M100.022,176.23c7.567,5.366,18.326,5.78,26.284,1.013c2.528-1.515,4.862-3.628,5.81-6.418
					c0.948-2.791,0.122-6.317-2.432-7.787c-2.038-1.173-4.608-0.827-6.843-0.097c-2.235,0.73-4.391,1.814-6.731,2.043
					c-6.72,0.657-12.28-5.747-19.013-6.244c-5.006-0.369-10.044,3.046-11.553,7.834c-2.515-0.109-4.178,1.964-5.257,4.238
					c-1.079,2.275-0.999,4.973-0.234,7.372c0.765,2.399,2.163,4.543,3.668,6.562c1.412,1.894,2.979,3.747,5.027,4.925
					c2.048,1.178,4.675,1.582,6.779,0.507C93.03,185.441,95.934,179.689,100.022,176.23z"/>
				<path style="fill:#5645D7;" d="M113.488,293.584c2.968,41.452,3.233,83.098,0.791,124.584h-9.989
					c-2.173-37.159-9.609-74.41-23.285-109.029c1.63-7.758,6.445-14.029,11.866-19.813c2.25-2.401,5.102-4.673,8.392-4.612
					c2.447,0.045,4.717,1.418,6.378,3.215C109.302,289.725,113.313,291.143,113.488,293.584z"/>
				<path style="opacity:0.2;" d="M113.488,293.584c2.968,41.452,3.233,83.098,0.791,124.584h-9.989
					c-2.173-37.159-9.609-74.41-23.285-109.029c1.63-7.758,6.445-14.029,11.866-19.813c2.25-2.401,5.102-4.673,8.392-4.612
					c2.447,0.045,4.717,1.418,6.378,3.215C109.302,289.725,113.313,291.143,113.488,293.584z"/>
				<path style="fill:#8E35FF;" d="M167.82,216.854c0.792-0.333,1.197-1.218,1.385-2.056c0.189-0.839,0.243-1.729,0.658-2.482
					c0.414-0.753,1.361-1.319,2.136-0.947c0.236-2.01,2.458-3.664,4.457-3.352c0.643,0.1,1.29,0.397,1.644,0.943
					c0.325,0.501,0.361,1.133,0.338,1.73c-0.173,4.52-3.411,8.763-7.725,10.123C169.34,219.938,168.428,218.363,167.82,216.854z"/>
				<path style="fill:#FFA93A;" d="M107.721,200.36c4.563,11.195,14.718,19.943,26.465,22.8c11.747,2.856,24.785-0.253,33.979-8.102
					c2.027,1.17,3.604,2.894,4.265,5.139c-7.863,9.546-18.748,16.844-30.784,19.688c-12.036,2.844-24.992,1.639-36.296-3.378
					C103.799,223.735,106.014,213.113,107.721,200.36z"/>
				<path style="fill:#5645D7;" d="M64.744,293.185c1.108,41.84-0.193,83.744-3.896,125.435h12.423
					c3.148-42.789,13.438-87.616,31.509-126.53C91.661,292.057,77.829,292.224,64.744,293.185z"/>
				<path style="fill:#FFA93A;" d="M114.824,303.42c-16.79,2.865-34.869,3.145-51.572-0.193
					c-0.808-31.591-1.476-64.073,9.443-93.727c2.604-7.073,6.276-14.378,12.932-17.914c6.285-3.34,18.368,1.354,22.531,7.127
					c4.163,5.773,5.32,13.127,6.162,20.194C117.755,247.72,118.113,274.589,114.824,303.42z"/>
				<path style="fill:#8E35FF;" d="M77.739,292.606c0.353,0.85,1.299,1.286,2.196,1.492c0.897,0.205,1.849,0.268,2.654,0.715
					c0.805,0.447,1.406,1.463,1.005,2.291c2.151,0.261,3.913,2.646,3.57,4.786c-0.11,0.688-0.43,1.379-1.016,1.756
					c-0.537,0.346-1.214,0.382-1.853,0.355c-4.838-0.204-9.367-3.689-10.806-8.313C74.43,294.221,76.12,293.251,77.739,292.606z"/>
				<path style="fill:#FFA93A;" d="M93.81,199.633c-0.874-1.166-1.749-2.331-2.623-3.497c-4.173-5.565-14.436-0.058-19.89,4.26
					c-14.813,11.727-23.691,30.596-23.283,49.485c0.407,18.888,10.091,37.357,25.396,48.434c3.278-1.671,4.493-1.767,5.973-5.136
					c-11.166-14.998-12.348-36.974-4.464-53.929C80.758,226.694,92.518,213.419,93.81,199.633z"/>
				<g>
					<path style="fill:#8E35FF;" d="M100.513,186.061c-1.346,3.972-2.692,7.944-4.039,11.916c-2.101-1.953-5.418-2.819-6.775-5.347
						c0.57-3.118,1.936-8.167,2.506-11.285C95.609,181.508,98.313,183.46,100.513,186.061z"/>
					<path style="opacity:0.3;" d="M90.171,190.357c0.658-2.955,1.588-6.57,2.035-9.011c3.403,0.162,6.108,2.114,8.307,4.716
						c-1.023,3.018-2.046,6.036-3.069,9.054C94.787,193.884,92.229,192.318,90.171,190.357z"/>
					<path style="fill:#8E35FF;" d="M105.384,171.914c0.894,7.139-0.691,14.565-4.423,20.716
						c-6.116-2.179-12.638-5.974-14.717-12.125c-1.221-3.611-0.887-7.783,1.162-10.997c2.049-3.214,5.856-5.313,9.658-5.033
						C100.865,164.756,104.91,168.132,105.384,171.914z"/>
				</g>
				<path style="fill:#FF89CE;" d="M109.338,176.642c-1.767,0.482-3.694,0.357-5.384-0.348c-2.205-0.921-3.947-2.762-6.194-3.578
					c-0.976,0.517-1.359,1.692-1.614,2.767c-0.254,1.075-0.371,2.213-0.935,3.163c-0.563,0.95-1.771,1.649-2.779,1.196
					c-0.105-0.919,0.317-1.723,0.472-2.635c0.155-0.912-0.152-2.074-1.054-2.281c-0.471-0.108-0.975,0.097-1.321,0.434
					c-0.347,0.337-0.558,0.789-0.713,1.247c-0.884,2.604-0.028,5.708,2.067,7.49c-0.396,1.488-0.712,2.914-0.662,4.453
					c0.024,0.742-1.11,1.226-1.818,1.005c-0.709-0.222-1.238-0.801-1.722-1.364c-3.158-3.677-6.062-8.258-5.277-13.041
					c0.448-2.729,2.065-5.133,3.927-7.178c2.932-3.219,6.907-5.888,11.259-5.793c3.282,0.072,6.429,1.771,8.54,4.285
					C108.243,168.977,109.138,173.365,109.338,176.642z"/>
			</g>
		</g>
	</g>
</g>
<g id="DESIGNED_BY_FREEPIK">
	<g>
		<g id="XMLID_1_">
			<g id="XMLID_20_">
				<path id="XMLID_28_" style="fill:#1D262D;" d="M260.104,465.464c-0.432,0.443-0.803,0.931-1.108,1.453l-0.465-0.241
					c-0.067-0.298-0.349-0.503-0.659-0.466c-0.331,0.039-0.568,0.339-0.529,0.67s0.339,0.568,0.67,0.529
					c0.065-0.008,0.127-0.026,0.184-0.052l0.451,0.234c-0.251,0.554-0.433,1.139-0.539,1.744l0.746,0.132
					c0.23-1.306,0.85-2.507,1.792-3.473L260.104,465.464z"/>
				<path id="XMLID_27_" style="fill:#1D262D;" d="M265.592,463.162c-0.171,0-0.341,0.006-0.51,0.017l-0.074-0.626
					c0.188-0.149,0.296-0.389,0.266-0.645c-0.046-0.393-0.402-0.674-0.795-0.628s-0.674,0.402-0.628,0.795
					c0.03,0.254,0.189,0.461,0.405,0.564l0.073,0.624c-0.714,0.116-1.403,0.332-2.06,0.646l0.327,0.684
					c0.934-0.447,1.942-0.673,2.995-0.673c0.496,0,0.993,0.053,1.475,0.158l0.161-0.741
					C266.693,463.221,266.142,463.162,265.592,463.162z"/>
				<path id="XMLID_26_" style="fill:#1D262D;" d="M272.194,465.71c0.331-0.04,0.566-0.341,0.525-0.672
					c-0.04-0.331-0.341-0.566-0.672-0.526c-0.309,0.038-0.535,0.304-0.53,0.609l-0.416,0.363c-0.418-0.43-0.89-0.813-1.408-1.139
					l-0.404,0.641c1.134,0.715,2.021,1.726,2.563,2.925l0.69-0.313c-0.251-0.554-0.568-1.072-0.942-1.545l0.402-0.351
					C272.065,465.714,272.129,465.718,272.194,465.71z"/>
				<path id="XMLID_25_" style="fill:#1D262D;" d="M265.044,473.371c-0.386,0.023-0.775,0.035-1.157,0.035
					c-0.88,0-1.733-0.061-2.478-0.179c-0.39-0.062-0.846-0.155-1.27-0.292c1.046,1.861,3.069,3.125,5.388,3.125
					c2.855,0,5.262-1.916,5.95-4.504c-0.682,0.449-1.505,0.825-2.459,1.123C267.839,473.046,266.464,473.285,265.044,473.371z"/>
				<path id="XMLID_21_" style="fill:#1D262D;" d="M265.592,464.678c-3.352,0-6.08,2.666-6.08,5.943
					c0,0.426,0.046,0.849,0.137,1.261c0.674,0.483,2.706,0.89,5.348,0.731c2.879-0.173,5.297-0.957,6.672-2.159
					c-0.005-0.195-0.021-0.39-0.045-0.582C271.244,466.912,268.65,464.678,265.592,464.678z M263.432,471.193
					c-1.02,0-1.85-0.83-1.85-1.85c0-1.02,0.83-1.85,1.85-1.85c1.02,0,1.85,0.83,1.85,1.85
					C265.282,470.364,264.452,471.193,263.432,471.193z M268.17,470.285c-0.75,0-1.36-0.61-1.36-1.36s0.61-1.361,1.36-1.361
					c0.75,0,1.361,0.61,1.361,1.361S268.92,470.285,268.17,470.285z"/>
			</g>
			<path id="XMLID_18_" style="fill:#1D262D;" d="M281.595,466.546c-0.295-0.116-0.806-0.309-1.382-0.237
				c-0.551,0.069-0.844,0.341-0.844,1.007v0.866h2.228v1.717h-2.228v5.455h-1.932v-5.455h-1.34v-1.717h1.34v-0.888
				c0-1.68,0.895-2.783,2.568-2.783c0.642,0,1.157,0.122,1.59,0.308L281.595,466.546z"/>
			<path id="XMLID_16_" style="fill:#1D262D;" d="M286.298,469.878c-0.177-0.03-0.358-0.046-0.526-0.046
				c-0.896,0-1.51,0.548-1.51,1.613v3.908h-1.932v-7.172h1.873v0.785c0.451-0.673,1.14-0.977,2.021-0.977
				c0.414,0,0.848,0.128,1.094,0.337L286.298,469.878z"/>
			<path id="XMLID_13_" style="fill:#1D262D;" d="M293.965,471.756c0,0.222-0.015,0.489-0.037,0.651h-5.085
				c0.207,1.036,0.933,1.488,1.843,1.488c0.622,0,1.295-0.252,1.813-0.688l1.132,1.243c-0.814,0.748-1.85,1.088-3.057,1.088
				c-2.198,0-3.723-1.495-3.723-3.753c0-2.258,1.48-3.797,3.626-3.797C292.544,467.988,293.958,469.521,293.965,471.756z
				 M288.851,471.09h3.175c-0.178-0.918-0.733-1.436-1.562-1.436C289.554,469.654,289.021,470.202,288.851,471.09z"/>
			<path id="XMLID_10_" style="fill:#1D262D;" d="M301.618,471.756c0,0.222-0.015,0.489-0.037,0.651h-5.085
				c0.207,1.036,0.932,1.488,1.843,1.488c0.622,0,1.295-0.252,1.813-0.688l1.132,1.243c-0.814,0.748-1.85,1.088-3.057,1.088
				c-2.198,0-3.723-1.495-3.723-3.753c0-2.258,1.48-3.797,3.627-3.797C300.197,467.988,301.611,469.521,301.618,471.756z
				 M296.504,471.09h3.175c-0.178-0.918-0.733-1.436-1.562-1.436C297.207,469.654,296.674,470.202,296.504,471.09z"/>
			<path id="XMLID_7_" style="fill:#1D262D;" d="M309.964,471.763c0,2.154-1.495,3.775-3.471,3.775
				c-0.962,0-1.643-0.378-2.109-0.933v3.708h-1.924v-10.133h1.887v0.792c0.466-0.585,1.155-0.984,2.139-0.984
				C308.469,467.988,309.964,469.609,309.964,471.763z M304.287,471.763c0,1.132,0.747,1.976,1.843,1.976
				c1.14,0,1.85-0.881,1.85-1.976c0-1.095-0.711-1.976-1.85-1.976C305.035,469.787,304.287,470.631,304.287,471.763z"/>
			<path id="XMLID_4_" style="fill:#1D262D;" d="M313.068,465.835c0,0.696-0.54,1.229-1.236,1.229c-0.696,0-1.229-0.533-1.229-1.229
				c0-0.696,0.533-1.243,1.229-1.243C312.527,464.591,313.068,465.139,313.068,465.835z M312.809,475.353h-1.932v-7.172h1.932
				V475.353z"/>
			<path id="XMLID_2_" style="fill:#1D262D;" d="M316.032,470.734l2.702-2.554h2.368l-3.479,3.375l3.501,3.797h-2.376l-2.716-2.901
				v2.901H314.1v-10.658h1.932V470.734z"/>
		</g>
		<g>
			<path style="fill:#1D262D;" d="M184.412,475.288v-1.055c-0.527,0.718-1.391,1.23-2.387,1.23c-1.846,0-3.149-1.406-3.149-3.706
				c0-2.256,1.289-3.721,3.149-3.721c0.952,0,1.816,0.469,2.387,1.245v-3.765h1.099v9.77H184.412z M184.412,473.369v-3.208
				c-0.395-0.615-1.245-1.143-2.124-1.143c-1.421,0-2.27,1.172-2.27,2.739c0,1.567,0.85,2.724,2.27,2.724
				C183.168,474.482,184.017,473.984,184.412,473.369z"/>
			<path style="fill:#1D262D;" d="M186.932,471.743c0-2.051,1.465-3.706,3.486-3.706c2.139,0,3.398,1.67,3.398,3.794v0.279h-5.727
				c0.088,1.333,1.025,2.446,2.549,2.446c0.805,0,1.626-0.322,2.182-0.894l0.527,0.718c-0.703,0.703-1.655,1.084-2.812,1.084
				C188.441,475.464,186.932,473.955,186.932,471.743z M190.404,468.946c-1.509,0-2.256,1.274-2.314,2.358h4.643
				C192.718,470.249,192.015,468.946,190.404,468.946z"/>
			<path style="fill:#1D262D;" d="M194.607,474.35l0.571-0.791c0.469,0.542,1.362,1.011,2.329,1.011c1.084,0,1.67-0.513,1.67-1.216
				c0-1.714-4.38-0.659-4.38-3.281c0-1.098,0.952-2.036,2.636-2.036c1.201,0,2.051,0.454,2.622,1.026l-0.513,0.762
				c-0.424-0.513-1.201-0.894-2.109-0.894c-0.967,0-1.567,0.483-1.567,1.113c0,1.552,4.38,0.527,4.38,3.281
				c0,1.187-0.952,2.138-2.783,2.138C196.306,475.464,195.325,475.112,194.607,474.35z"/>
			<path style="fill:#1D262D;" d="M201.477,466.47c0-0.41,0.337-0.747,0.732-0.747c0.41,0,0.747,0.337,0.747,0.747
				c0,0.41-0.337,0.732-0.747,0.732C201.814,467.202,201.477,466.88,201.477,466.47z M201.667,475.288v-7.075h1.099v7.075H201.667z"
				/>
			<path style="fill:#1D262D;" d="M204.582,477.104l0.556-0.82c0.586,0.703,1.289,0.967,2.3,0.967c1.172,0,2.27-0.571,2.27-2.124
				v-1.011c-0.513,0.718-1.377,1.26-2.373,1.26c-1.845,0-3.149-1.377-3.149-3.662c0-2.27,1.289-3.676,3.149-3.676
				c0.952,0,1.802,0.469,2.373,1.245v-1.069h1.098v6.87c0,2.344-1.641,3.076-3.369,3.076
				C206.237,478.159,205.417,477.924,204.582,477.104z M209.709,473.252v-3.091c-0.381-0.615-1.23-1.143-2.109-1.143
				c-1.421,0-2.27,1.128-2.27,2.695c0,1.553,0.849,2.695,2.27,2.695C208.478,474.409,209.328,473.867,209.709,473.252z"/>
			<path style="fill:#1D262D;" d="M217.413,475.288v-4.629c0-1.245-0.63-1.641-1.582-1.641c-0.864,0-1.685,0.527-2.095,1.099v5.17
				h-1.099v-7.075h1.099v1.025c0.498-0.586,1.464-1.201,2.519-1.201c1.48,0,2.256,0.747,2.256,2.285v4.966H217.413z"/>
			<path style="fill:#1D262D;" d="M219.932,471.743c0-2.051,1.465-3.706,3.486-3.706c2.139,0,3.398,1.67,3.398,3.794v0.279h-5.727
				c0.088,1.333,1.025,2.446,2.549,2.446c0.806,0,1.626-0.322,2.183-0.894l0.527,0.718c-0.703,0.703-1.655,1.084-2.812,1.084
				C221.441,475.464,219.932,473.955,219.932,471.743z M223.404,468.946c-1.509,0-2.256,1.274-2.314,2.358h4.643
				C225.718,470.249,225.015,468.946,223.404,468.946z"/>
			<path style="fill:#1D262D;" d="M233.35,475.288v-1.055c-0.527,0.718-1.391,1.23-2.388,1.23c-1.846,0-3.149-1.406-3.149-3.706
				c0-2.256,1.289-3.721,3.149-3.721c0.952,0,1.817,0.469,2.388,1.245v-3.765h1.099v9.77H233.35z M233.35,473.369v-3.208
				c-0.396-0.615-1.245-1.143-2.124-1.143c-1.421,0-2.27,1.172-2.27,2.739c0,1.567,0.849,2.724,2.27,2.724
				C232.105,474.482,232.954,473.984,233.35,473.369z"/>
			<path style="fill:#1D262D;" d="M239.692,475.288v-9.77h1.098v3.765c0.572-0.776,1.421-1.245,2.388-1.245
				c1.845,0,3.149,1.465,3.149,3.721c0,2.299-1.304,3.706-3.149,3.706c-0.996,0-1.86-0.513-2.388-1.23v1.055H239.692z
				 M242.9,474.482c1.436,0,2.286-1.157,2.286-2.724c0-1.568-0.85-2.739-2.286-2.739c-0.864,0-1.728,0.527-2.109,1.143v3.208
				C241.171,473.984,242.036,474.482,242.9,474.482z"/>
			<path style="fill:#1D262D;" d="M247.529,477.06c0.161,0.073,0.425,0.117,0.601,0.117c0.483,0,0.805-0.161,1.055-0.747
				l0.469-1.069l-2.959-7.148h1.187l2.358,5.8l2.344-5.8h1.201l-3.545,8.51c-0.425,1.025-1.143,1.421-2.08,1.435
				c-0.234,0-0.601-0.044-0.805-0.103L247.529,477.06z"/>
		</g>
	</g>
</g>
</svg>
