<?xml version="1.0" encoding="utf-8"?>
<!-- Generator: Adobe Illustrator 27.5.0, SVG Export Plug-In . SVG Version: 6.00 Build 0)  -->
<svg version="1.1" id="Layer_1" xmlns="http://www.w3.org/2000/svg" xmlns:xlink="http://www.w3.org/1999/xlink" x="0px" y="0px"
	 viewBox="0 0 2000 2000" style="enable-background:new 0 0 2000 2000;" xml:space="preserve">
<g>
	<rect style="fill:#FFFFFF;" width="2000" height="2000"/>
	<path style="opacity:0.2;fill:#93E3F1;" d="M351.523,930.88c68.281-2.693,36.975,101.887,27.458,129.703
		c19.631,15.844,36.372,32.126,50.535,48.053c-1.723-35.729-24.923-60.196-19.427-83.012c6.165-25.581,28.625-48.253,50.87-6.463
		c17.625,33.112-12.65,78.372-25.989,95.752c23.99,28.105,40.123,54.696,50.537,75.231c3.74-41.573-19.948-73.088-11.023-98.359
		c9.77-27.65,36.938-49.724,56.172,0.069c15.898,41.159-26.55,89.602-41.759,105.176c9.092,19.009,12.789,31.487,13.173,32.826
		c7.579,25.149,13.577,49.804,18.235,73.861c4.099-36.554-10.785-67.824,0.12-89.709c13.087-26.265,42.443-44.251,54.815,8.717
		c9.788,41.906-33.457,82.288-51.955,97.337c8.61,50.498,11.342,98.137,10.333,141.872c14.608-31.237,15.314-85.397,37.531-109.618
		c14.576-15.888,28.353-13.925,37.396-9.423c7.729,3.848,12.94,11.449,14.484,20.769c8.732,52.676-66.512,94.859-89.634,106.489
		c-1.832,53.837-9.268,101.473-18.255,140.819c7.679-16.094,19.171-40.438,24.64-53.326c8.622-20.318,29.607-43.777,48.538-47.378
		c0.789-0.15,1.56-0.27,2.313-0.358c14.418-1.717,26.342,9.027,28.881,24.202c9.937,59.357-86.926,86.56-107.93,91.737
		c-0.068,0.27-0.134,0.552-0.202,0.821c-24.854,98.648-60.844,157.772-62.361,160.239l-7.814-5.256
		c0.352-0.572,34.575-56.884,58.865-148.875c-71.387-53.014-65.397-115.711-44.881-128.718c21.199-13.439,54.813-3.737,48.786,40.57
		c-3.497,25.698-1.765,52.992,0.304,71.401c9.421-39.515,17.423-88.173,19.43-143.555c-114.46-29.688-84.041-107.622-54.49-113.142
		c29.91-5.588,40.847,14.349,42.31,51.225c0.974,24.495,7.875,44.184,12.409,54.681c1.132-42.898-1.402-89.696-9.656-139.33
		c-20.631,8.972-74.585,28.015-98.367-5.912c-29.722-42.4-0.292-60.217,25.524-57.645c23.736,2.364,37.329,41.457,71.608,56.355
		c-4.851-27.47-11.44-55.768-20.171-84.744c-0.134-0.473-7.547-25.512-28.466-60.211c-19.905,11.736-71.529,37.48-99.227,7.712
		c-34.785-37.388-7.282-58.925,18.954-59.995c23.411-0.955,41.239,33.29,75.332,44.294c-18.428-28.91-45.902-63.31-85.556-95.565
		c-20.724,12.021-70.888,36.186-98.034,7.009c-34.784-37.388-7.282-58.926,18.956-59.995c23.74-0.968,41.727,34.281,76.77,44.763
		l0.647-0.926c-7.958-11.518-24.919-35.885-33.629-47.025c-11.623-14.868-18.888-42.321-11.234-61.186
		C335.047,933.973,351.523,930.88,351.523,930.88z"/>
	<g>
		<g>
			<g>
				<path style="fill:#9FEEF7;" d="M481.136,1760.068c0,0,157.103-145.016,102.978-193.135c0,0-6.822-21.405-65.713,33.807
					c0,0-29.391,2.643-23.404-31.67c5.985-34.313,62.209-74.46,40.209-111.168c-22-36.71-48.494,12.432-70.842,17.336
					c-22.347,4.904,17.237-127.875-7.429-149.52c-24.666-21.643-44.116,29.759-61.112,31.989s-28.101-167.135-109.23-156.944
					c-81.131,10.19-8.999,90.992,18.688,136.663c27.688,45.672-41.691,6.382-59.785,51.082
					c-18.093,44.701,122.157,40.861,100.118,83.196c-22.039,42.336-54.087,6.795-68.668,38.897
					c-23.572,51.902,118.818,32.652,107.48,69.64c-9.041,29.496-52.027-2.428-62.248,19.546S375.465,1726.146,481.136,1760.068z"/>
				<path style="opacity:0.64;fill:#FFFFFF;" d="M587.687,1570.611c-0.451-0.54-0.927-1.068-1.421-1.59
					c-3.845,6.63-8.36,13.788-13.575,21.103c-19.154,26.875-51.906,61.391-99.334,73.841c-5.214-27.829-12.716-57.486-22.481-88.83
					c26.444-65.648,57.348-98.194,78.617-113.938c1.845-1.364,3.643-2.619,5.403-3.792c-0.376-0.613-0.754-1.2-1.133-1.765
					c-1.712,1.145-3.462,2.366-5.256,3.69c-21.289,15.715-52.095,48.015-78.573,112.78c-0.042-0.132-0.081-0.262-0.123-0.394
					c-10.147-32.155-22.66-66.102-37.408-101.527c0.274-3.128,3.026-32.936,10.942-67.511c5.685-24.833,14.972-55.938,29.238-80.068
					c-0.61-0.34-1.219-0.633-1.822-0.891c-14.331,24.354-23.648,55.539-29.351,80.449c-6.626,28.946-9.65,54.58-10.634,64.134
					c-11.318-26.973-23.919-54.789-37.758-83.324c-38.591-79.575-77.877-146.156-98.581-179.874
					c-0.691,0.189-1.363,0.387-2.022,0.591c20.576,33.479,60.055,100.301,98.838,180.271c6.521,13.448,13.191,27.629,19.861,42.38
					c-6.975-3.228-27.874-12.482-55.785-21.058c-23.517-7.224-55.731-15.045-89.699-17.102c-0.044,0.108-0.091,0.213-0.136,0.321
					c-0.24,0.599-0.449,1.188-0.637,1.77c34.016,1.981,66.334,9.82,89.889,17.055c31.943,9.81,54.645,20.506,57.701,21.974
					c14.727,32.737,29.4,68.211,42.419,104.716c-44.541-17.887-121.417-19.623-159.5-19.265c-0.222,0.729-0.406,1.442-0.558,2.141
					c38.221-0.388,116.824,1.303,161.013,19.802c18.401,51.992,33.362,105.976,40.277,157.04
					c-39.907-3.13-81.437-33.093-109.376-57.842c-17.284-15.31-31.614-30.535-40.869-40.959c-0.522,0.429-1.015,0.907-1.477,1.434
					c9.295,10.471,23.689,25.77,41.052,41.151c28.273,25.048,70.389,55.398,110.966,58.385c2.881,21.964,4.253,43.371,3.749,63.829
					c0.332,0.109,0.659,0.225,0.991,0.331c0,0,0.351-0.324,1.012-0.945c0.637-28.113-2.177-59.218-8.397-93.054
					c3.093-0.81,6.162-1.716,9.205-2.727c17.732-5.894,34.597-15.207,50.256-27.769c14.877-11.931,28.704-26.805,41.1-44.203
					C579.43,1584.184,583.879,1577.15,587.687,1570.611z"/>
			</g>
			<path style="fill:#C4F3FB;" d="M499.602,1740.332c0,0-23.43-136.009-163.871-219.113l3.883,50.653l-20.076-57.163
				c0,0-83.457-44.593-149.355-58.984c0,0,79.223,141.428,105.344,166.306l46.284,12.995l-39.004,17.635
				c0,0,42.456,79.821,112.727,114.826C465.805,1802.49,499.602,1740.332,499.602,1740.332z"/>
			<g>
				<g>
					<g>
						<path style="fill:#C4F3FB;" d="M109.156,1640.115c18.766,43.191,43.541,74.307,71.276,96.417
							c16.109-10.529,35.516-22.659,35.516-22.659l-15.749,36.64c113.06,70.662,260.467,14.737,260.467,14.737
							c-39.775-95.705-89.7-143.258-139.331-163.597c-8.706,11.083-21.484,27.73-21.484,27.73l5.248-33.458
							c-24.905-7.378-49.446-8.425-72.288-5.818c-2.63,17.405-6.035,37.086-6.035,37.086l-15.82-33.444
							C152.112,1606.605,109.156,1640.115,109.156,1640.115z"/>
					</g>
					<g>
						<path style="fill:#9FEEF7;" d="M321.335,1601.653c-8.706,11.083-21.484,27.73-21.484,27.73l5.248-33.458
							c-24.905-7.378-49.446-8.425-72.288-5.818c-2.63,17.405-6.035,37.086-6.035,37.086l-15.82-33.444
							c-58.843,12.856-101.799,46.366-101.799,46.366c125.54,95.52,351.51,125.135,351.51,125.135
							C420.891,1669.545,370.966,1621.992,321.335,1601.653z"/>
					</g>
				</g>
			</g>
		</g>
		<g>
			<path style="fill:#C4F3FB;" d="M1364.841,1767.04c0,0-100.295-207.277,20.009-467.282l44.325,72.076l-27.427-97.932
				c0,0,76.213-148.079,156.903-237.063c0,0,25.31,273.54,12.219,334.538l-53.83,66.375l73.532-17.576
				c0,0,17.534,152-49.142,273.269C1474.754,1814.713,1364.841,1767.04,1364.841,1767.04z"/>
			<g>
				<path style="fill:#C4F3FB;" d="M1843.257,1288.337c5.778,79.124-7.618,145.927-32.937,202.215
					c-33.669-1.28-73.78-2.019-73.78-2.019l54.296,39.552c-119.006,201.153-394.3,248.191-394.3,248.191
					c-15.62-173.756,23.664-286.35,84.571-359.126c22.573,8.531,56.009,21.608,56.009,21.608l-35.335-44.07
					c32.861-32.407,70.287-55.296,108.029-71.392c18.227,23.011,39.507,48.656,39.507,48.656l-2.462-62.391
					C1749.065,1277.021,1843.257,1288.337,1843.257,1288.337z"/>
				<path style="fill:#9FEEF7;" d="M1481.107,1417.15c22.573,8.531,56.009,21.608,56.009,21.608l-35.335-44.07
					c32.861-32.407,70.287-55.296,108.029-71.392c18.227,23.011,39.507,48.656,39.507,48.656l-2.462-62.391
					c102.21-32.542,196.401-21.226,196.401-21.226c-118.302,248.153-446.721,487.939-446.721,487.939
					C1380.916,1602.521,1420.2,1489.927,1481.107,1417.15z"/>
			</g>
			<g>
				<path style="fill:#9FEEF7;" d="M1856.267,1565.313c-48.789-8.892-93.627-6.455-134.207,3.232
					c-5.91,18.413-13.447,40.293-13.447,40.293l-14.133-32.418c-150.709,50.144-235.328,196.523-235.328,196.523
					c106.558,21.122,185.462,7.925,243.55-19.929c-0.88-12.903-2.462-32.047-2.462-32.047l20.766,22.43
					c27.011-15.527,48.927-34.23,66.616-53.598c-10.888-11.59-22.827-25.031-22.827-25.031l38.887,5.872
					C1844.616,1617.389,1856.267,1565.313,1856.267,1565.313z"/>
				<path style="fill:#C4F3FB;" d="M1702.702,1753.015c-0.88-12.903-2.462-32.047-2.462-32.047l20.766,22.43
					c27.011-15.527,48.927-34.23,66.616-53.598c-10.888-11.59-22.827-25.031-22.827-25.031l38.887,5.872
					c40.935-53.252,52.586-105.328,52.586-105.328c-180.235,46.346-397.115,207.631-397.115,207.631
					C1565.71,1794.065,1644.614,1780.868,1702.702,1753.015z"/>
			</g>
		</g>
		<path style="fill:#73CABE;" d="M1801.537,1768.809c0,0-37.123,42.631-118.907,47.318c-81.784,4.688-109.459-11.769-231.086,2.581
			c-121.629,14.351-162.493,58.48-312.281,67.615c-210.817,12.856-293.729-22.632-485.144-30.579
			c-128.025-5.314-190.59,9.924-291.495-5.314c-120.585-18.21-153.373-79.964-153.373-79.964h84.538L1801.537,1768.809z"/>
		<path style="fill:#10115A;" d="M146.637,1760.391h1707.869c4.648,0,8.417,3.768,8.417,8.418l0,0c0,4.649-3.769,8.418-8.417,8.418
			H146.637c-4.648,0-8.418-3.769-8.418-8.418l0,0C138.219,1764.158,141.988,1760.391,146.637,1760.391z"/>
	</g>
	<g>
		<g>
			<g>
				<g>
					<g>
						<defs>
							<ellipse id="SVGID_1_" cx="991.477" cy="346.714" rx="321.037" ry="220.551"/>
						</defs>
						<clipPath id="SVGID_00000170255379866857948080000015414576099687721640_">
							<use xlink:href="#SVGID_1_"  style="overflow:visible;"/>
						</clipPath>
					</g>
				</g>
			</g>
			<g>
				<g>
					<g style="opacity:0.2;">
						<ellipse style="fill:#93E3F1;" cx="991.477" cy="346.714" rx="321.037" ry="220.551"/>
					</g>
					<g>
						<defs>
							
								<ellipse id="SVGID_00000159454868239869459400000004407757915321971134_" cx="991.477" cy="346.714" rx="321.037" ry="220.551"/>
						</defs>
						<clipPath id="SVGID_00000097463012372358383220000011476156505683760553_">
							<use xlink:href="#SVGID_00000159454868239869459400000004407757915321971134_"  style="overflow:visible;"/>
						</clipPath>
						<g style="clip-path:url(#SVGID_00000097463012372358383220000011476156505683760553_);">
							<path style="fill:#07085B;" d="M965.076,464.688l4.394,10.131c0,0-41.091,46.746-46.162,50.946
								c-5.069,4.201-87.593-61.904-84.888-66.989c2.703-5.086,36.683-53.08,38.817-56.741
								C879.372,398.373,960.589,458.68,965.076,464.688z"/>
							<path style="fill:#FFE44D;" d="M920.565,241.873c47.03-59.597,133.659-68.515,187.1-16.543
								c43.855,42.649,48.836,111.781,12.045,164.027c-25.772,36.598-65.741,56.146-105.608,56.692
								c-11.536,0.158-22.656,5.309-29.999,14.614l-14.633,14.156l-92.232-72.784l9.789-16.79
								c7.435-9.422,10.475-21.611,7.887-33.001C886.559,315.478,894.71,274.64,920.565,241.873z"/>
							<path style="fill:#8694A1;" d="M860.501,428.434l87.184,68.8c5.633,4.445,13.804,3.482,18.248-2.15l0,0
								c4.445-5.633,3.482-13.803-2.15-18.247l-87.184-68.8c-5.633-4.445-13.802-3.483-18.248,2.15l0,0
								C853.905,415.819,854.868,423.989,860.501,428.434z"/>
							<path style="fill:#8694A1;" d="M840.782,453.422l87.185,68.8c5.632,4.445,13.802,3.482,18.247-2.15l0,0
								c4.445-5.633,3.482-13.803-2.15-18.248l-87.184-68.8c-5.633-4.445-13.804-3.483-18.248,2.15l0,0
								C834.187,440.807,835.149,448.977,840.782,453.422z"/>
							<path style="fill:#8694A1;" d="M862.169,515.961c29.259,23.09,53.286,19.754,61.139,9.803l0,0l-84.888-66.989l0,0
								C830.567,468.727,832.908,492.872,862.169,515.961z"/>
							<g>
								<path style="fill:#FFFFFF;" d="M937.313,445.59l0.078,0.042c1.761,0.94,4.014,0.288,5.133-1.511
									c9.598-15.437,53.836-80.686,110.832-72.107c2,0.301,3.963-1.129,4.478-3.163l0,0c0.542-2.141-0.724-4.26-2.828-4.583
									c-62.557-9.59-108.707,59.146-118.989,75.979C934.841,442.169,935.439,444.589,937.313,445.59z"/>
							</g>
							<g>
								<path style="fill:#FFFFFF;" d="M912.988,426.394l-0.06-0.066c-1.324-1.494-1.214-3.837,0.276-5.343
									c12.783-12.923,65.96-71.119,44.365-124.559c-0.758-1.875,0.176-4.117,2.034-5.091l0,0c1.957-1.025,4.313-0.287,5.116,1.685
									c23.869,58.612-32.253,119.479-46.235,133.393C916.89,428.003,914.396,427.983,912.988,426.394z"/>
							</g>
							<g>
								<path style="fill:#FFFFFF;" d="M1037.495,370.413l14.708,2.013c1.836,0.251,2.655-0.972,1.821-2.719l0,0
									c-0.766-1.604-2.771-3.106-4.457-3.336l-8.24-1.128c-0.589-0.081-1.264-0.603-1.498-1.16l-5.54-13.16
									c-0.217-0.511-0.849-1.028-1.407-1.148l-15.867-3.415c-0.558-0.12-1.19-0.637-1.406-1.148l-5.744-13.645
									c-0.227-0.54-0.888-1.061-1.466-1.157l-14.718-2.433c-0.551-0.091-1.163-0.55-1.426-1.069l-7.77-15.387
									c-0.271-0.538-0.948-1.025-1.504-1.085l-12.908-1.367c-0.565-0.06-1.242-0.556-1.504-1.102l-4.534-9.468
									c-0.764-1.596-2.762-3.088-4.438-3.315l0,0c-1.822-0.248-2.634,0.97-1.803,2.706l7.424,15.503
									c0.265,0.55,0.946,1.05,1.516,1.11l13.07,1.384c0.556,0.059,1.232,0.546,1.504,1.084l7.571,14.988
									c0.254,0.503,0.897,0.986,1.432,1.075l14.168,2.341c0.579,0.096,1.238,0.616,1.466,1.157l5.597,13.292
									c0.223,0.527,0.831,1.025,1.406,1.148l15.871,3.417c0.574,0.123,1.181,0.619,1.401,1.144l5.776,13.72
									C1036.231,369.81,1036.906,370.332,1037.495,370.413z"/>
							</g>
						</g>
					</g>
				</g>
				<g style="opacity:0.2;">
					<ellipse style="fill:#93E3F1;" cx="559.893" cy="525.59" rx="83.349" ry="41.675"/>
				</g>
				<g style="opacity:0.2;">
					<path style="fill:#93E3F1;" d="M1360.695,525.59c0,23.017,37.317,41.675,83.351,41.675c46.032,0,83.349-18.658,83.349-41.675
						c0-23.016-37.316-41.675-83.349-41.675C1398.013,483.915,1360.695,502.574,1360.695,525.59z"/>
				</g>
				<g style="opacity:0.2;">
					<path style="fill:#93E3F1;" d="M571.465,627.359c0,9.474,10.743,17.154,23.995,17.154c13.251,0,23.994-7.68,23.994-17.154
						c0-9.474-10.743-17.154-23.994-17.154C582.208,610.205,571.465,617.885,571.465,627.359z"/>
				</g>
				<g style="opacity:0.2;">
					<path style="fill:#93E3F1;" d="M1378.838,627.359c0,9.814,11.211,17.769,25.042,17.769c13.83,0,25.041-7.955,25.041-17.769
						c0-9.813-11.211-17.769-25.041-17.769C1390.049,609.59,1378.838,617.545,1378.838,627.359z"/>
				</g>
			</g>
			<g>
				<g>
					<g>
						<defs>
							
								<ellipse id="SVGID_00000081647678625948901530000016953352085031918499_" cx="991.477" cy="346.714" rx="321.037" ry="220.551"/>
						</defs>
						<clipPath id="SVGID_00000057830251675922940120000000528927982399942566_">
							<use xlink:href="#SVGID_00000081647678625948901530000016953352085031918499_"  style="overflow:visible;"/>
						</clipPath>
					</g>
				</g>
			</g>
		</g>
		<g>
			<g>
				<path style="fill:#FFC0BB;" d="M753.404,1203.503c4.208,11.787,8.224,20.339,0.435,23.602c-6.905,2.893-25.15,0.631-25.15,0.631
					c-5.893-6.314,2.614-23.391,2.614-23.391C742.037,1202.24,753.404,1203.503,753.404,1203.503z"/>
				<path style="fill:#E8A33B;" d="M709.961,861.549c0,0,63.615,42.421,55.855,342.984c-12.208,7.576-30.514,3.811-30.514,3.811
					s-8.712-154.209-22.88-216.371C697.416,926.128,709.961,861.549,709.961,861.549z"/>
				<path style="fill:#FF5B7E;" d="M662.786,1221h149.062c2.429,0,4.398-1.969,4.398-4.398v-106.787c0-2.429-1.97-4.398-4.398-4.398
					H662.786c-2.429,0-4.398,1.97-4.398,4.398v106.787C658.388,1219.031,660.357,1221,662.786,1221z"/>
				<path style="fill:#FFC0BB;" d="M758.254,1221c-0.731-11.997-15.482-18.696-24.523-16.926
					c-9.042,1.771-16.935,21.662-12.831,24.503C725.005,1231.419,758.036,1226.999,758.254,1221z"/>
				<path style="fill:#A3A3A3;" d="M812.931,1191.639h6.631c1.656,0,2.999-1.343,2.999-2.999v-50.862c0-1.656-1.343-3-2.999-3
					h-6.631c-1.656,0-2.999,1.344-2.999,3v50.862C809.932,1190.296,811.274,1191.639,812.931,1191.639z"/>
				<polygon style="fill:#FFC0BB;" points="683.184,1727.041 683.184,1700.4 713.65,1691.96 720.431,1694.939 721.588,1727.041 
					711.993,1755.012 				"/>
				<polygon style="fill:#122F5B;" points="749.439,1180.715 727.823,1707.762 677.481,1707.762 633.124,1309.396 691.281,1130.92 
									"/>
				<polygon style="fill:#FFC0BB;" points="488.505,1727.041 488.505,1700.4 518.97,1691.96 525.75,1694.939 526.906,1727.041 
					517.313,1755.012 				"/>
				<path style="fill:#FFC0BB;" d="M882.816,1040.548c-0.889,0.788-0.559,2.256,0.589,2.566
					c8.891,2.407,36.811,10.163,36.712,12.564c-0.116,2.855-25.234-3.465-26.705-1.257c-1.47,2.208,23.185,7.755,22.568,10.788
					c-0.616,3.032-22.929-2.78-23.634-1.593c-0.707,1.188,20.075,9.043,20.783,11.045c0.707,2.001-22.497-3.684-23.763-2.485
					c-1.266,1.197,13.443,10.446,12.796,11.802c-0.646,1.354-0.853,2.365-39.932-8.966l-15.195-5.119l-10.15-10.879l7.597-16.196
					c0,0,48.949-18.613,50.705-17.358C896.863,1026.658,896.514,1028.4,882.816,1040.548z"/>
				<path style="fill:#224887;" d="M727.823,1181.834l-197.215,525.928l-48.299-3.945c0,0,60.128-482.18,96.107-528.03
					c35.979-45.853,114.838-35.992,114.838-35.992L727.823,1181.834z"/>
				<path style="fill:#FFC0BB;" d="M705.938,869.839c0,0-24.362,14.445-43.341,0l0,0l4.475-35.257l37.761-7.784L705.938,869.839
					L705.938,869.839z"/>
				<path style="fill:#FC8D84;" d="M705.424,849.796l-0.591-22.998l-38.308,11.918l-1.077,8.62
					C673.948,850.422,690.102,854.171,705.424,849.796z"/>
				<path style="fill:#FEB546;" d="M852.447,1022.947c-19.305,4.612-64.729,2.314-99.141-0.391
					c-0.279-28.468-1.37-54.964-3.867-73.563c-8.872-66.066-39.479-87.445-39.479-87.445c-30.509,3.629-51.701-12.64-51.701-12.64
					c-40.907,0.493-64.564,22.679-64.564,22.679c-62.848,54.228-15.278,165.164-15.278,165.164l-17.252,146.568
					c38.938,13.311,198.132,5.309,198.132,5.309s-7.782-46.679-6.643-94.182c50.45-2.832,99.793-10.858,99.793-10.858
					C854.419,1072.742,852.447,1022.947,852.447,1022.947z"/>
				<path style="fill:#FFFFFF;" d="M642.324,924.178c-0.104,21.944,9.511,43.083,24.681,58.169
					c7.584,7.595,16.386,13.924,25.89,18.946c9.499,5.018,19.526,9.153,29.954,12.015c1.296,0.38,2.57,0.833,3.88,1.164l3.941,0.969
					c2.63,0.628,5.243,1.334,7.89,1.9l7.987,1.5l3.994,0.75l4.029,0.56c5.373,0.767,10.74,1.584,16.165,1.975l8.118,0.753
					c2.712,0.204,5.431,0.307,8.147,0.465c21.739,1.128,43.589,0.71,65.446-0.394c-21.692,2.821-43.616,4.411-65.584,3.854
					c-21.926-0.598-44.024-2.943-65.268-9.242c-10.639-3.013-20.961-7.272-30.706-12.589c-9.693-5.397-18.795-12.055-26.373-20.237
					c-3.852-4.023-7.198-8.511-10.212-13.177c-2.897-4.752-5.392-9.731-7.367-14.912c-1.867-5.22-3.266-10.589-4.09-16.039
					C642.018,935.167,641.708,929.625,642.324,924.178z"/>
				<path style="fill:#FFFFFF;" d="M852.447,1083.589c-23.82,5.339-48.051,8.895-72.405,11.049
					c-24.355,2.155-48.894,2.795-73.373,1.288c-24.418-1.669-48.997-5.31-72.146-13.914c-11.546-4.259-22.668-9.922-32.497-17.387
					c-9.748-7.506-18.2-16.889-23.609-27.873c6.286,10.48,14.907,19.335,24.889,26.114c9.918,6.887,20.971,11.99,32.384,15.886
					c11.43,3.889,23.228,6.689,35.162,8.683c11.934,2.013,23.996,3.331,36.101,4.065c24.211,1.579,48.558,1.138,72.834-0.302
					c12.14-0.751,24.273-1.76,36.385-3.035C828.296,1086.971,840.38,1085.391,852.447,1083.589z"/>
				<g>
					<path style="fill:#122F5B;" d="M766.384,1760.976l-88.682-0.257c-2.739-0.01-4.955-2.238-4.947-4.979l0,0
						c0.008-2.741,2.235-4.958,4.977-4.949l88.682,0.258c2.741,0.008,4.955,2.237,4.947,4.979l0,0
						C771.352,1758.768,769.127,1760.983,766.384,1760.976z"/>
					<path style="fill:#FEB546;" d="M677.371,1720.631l-3.348,27.601c-0.412,3.402,1.482,6.499,3.983,6.507l86.893,0.252
						c2.257,0.007,4.493-1.396,5.686-4.042c1.223-2.712,1.478-6.804-2.396-12.315c-7.667-10.909-32.775-13.724-45.385-22.919
						c-0.258-0.188-0.561-0.29-0.88-0.291l-39.985-0.116C679.678,1715.301,677.744,1717.555,677.371,1720.631z"/>
					<g>
						<path style="fill:#FFFFFF;" d="M716.223,1731.438L716.223,1731.438c-0.627-0.387-0.852-1.446-0.487-2.25
							c1.717-3.777,7.077-12.972,17.922-11.049c0.627,0.11,1.049,0.945,0.94,1.804l-0.003,0.027
							c-0.107,0.831-0.673,1.375-1.279,1.269c-9.72-1.687-14.277,6.417-15.667,9.583
							C717.352,1731.497,716.744,1731.761,716.223,1731.438z"/>
					</g>
					<g>
						<path style="fill:#FFFFFF;" d="M725.237,1735.018L725.237,1735.018c-0.627-0.388-0.854-1.446-0.488-2.25
							c1.718-3.777,7.077-12.972,17.922-11.049c0.627,0.11,1.05,0.945,0.94,1.804l-0.003,0.027
							c-0.105,0.831-0.673,1.375-1.279,1.269c-9.72-1.688-14.277,6.417-15.666,9.583
							C726.366,1735.077,725.758,1735.342,725.237,1735.018z"/>
					</g>
					<g>
						<path style="fill:#FFFFFF;" d="M733.621,1738.359L733.621,1738.359c-0.628-0.389-0.854-1.448-0.488-2.252
							c1.718-3.777,7.077-12.972,17.922-11.048c0.627,0.11,1.049,0.944,0.94,1.803l-0.004,0.028
							c-0.106,0.832-0.672,1.374-1.277,1.27c-9.721-1.688-14.279,6.415-15.667,9.582
							C734.751,1738.417,734.143,1738.681,733.621,1738.359z"/>
					</g>
				</g>
				<g>
					<path style="fill:#122F5B;" d="M573.683,1760.976l-88.682-0.257c-2.74-0.01-4.954-2.238-4.947-4.979l0,0
						c0.008-2.741,2.235-4.958,4.976-4.949l88.684,0.258c2.739,0.008,4.956,2.237,4.947,4.979l0,0
						C578.652,1758.768,576.424,1760.983,573.683,1760.976z"/>
					<path style="fill:#FEB546;" d="M484.671,1720.631l-3.349,27.601c-0.412,3.402,1.483,6.499,3.983,6.507l86.893,0.252
						c2.257,0.007,4.491-1.396,5.685-4.042c1.225-2.712,1.479-6.804-2.395-12.315c-7.668-10.909-32.774-13.724-45.386-22.919
						c-0.257-0.188-0.559-0.29-0.879-0.291l-39.986-0.116C486.978,1715.301,485.044,1717.555,484.671,1720.631z"/>
					<g>
						<path style="fill:#FFFFFF;" d="M523.521,1731.438L523.521,1731.438c-0.627-0.387-0.852-1.446-0.487-2.25
							c1.717-3.777,7.077-12.972,17.922-11.049c0.627,0.11,1.05,0.945,0.94,1.804l-0.003,0.027
							c-0.106,0.831-0.672,1.375-1.278,1.269c-9.72-1.687-14.276,6.417-15.667,9.583
							C524.651,1731.497,524.044,1731.761,523.521,1731.438z"/>
					</g>
					<g>
						<path style="fill:#FFFFFF;" d="M532.536,1735.018L532.536,1735.018c-0.628-0.388-0.853-1.446-0.488-2.25
							c1.718-3.777,7.077-12.972,17.922-11.049c0.627,0.11,1.05,0.945,0.939,1.804l-0.003,0.027
							c-0.105,0.831-0.672,1.375-1.277,1.269c-9.721-1.688-14.278,6.417-15.668,9.583
							C533.665,1735.077,533.058,1735.342,532.536,1735.018z"/>
					</g>
					<g>
						<path style="fill:#FFFFFF;" d="M540.921,1738.359L540.921,1738.359c-0.627-0.389-0.854-1.448-0.489-2.252
							c1.717-3.777,7.077-12.972,17.922-11.048c0.627,0.11,1.049,0.944,0.94,1.803l-0.004,0.028
							c-0.106,0.832-0.673,1.374-1.278,1.27c-9.72-1.688-14.277,6.415-15.667,9.582
							C542.049,1738.417,541.44,1738.681,540.921,1738.359z"/>
					</g>
				</g>
				<g>
					<path style="fill:#333333;" d="M741.5,744.947l-0.058,33.178l-17.698-41.432c0,0,14.106-9.824,15.204-7.234
						C740.048,732.051,741.5,744.947,741.5,744.947z"/>
					<path style="fill:#F99893;" d="M731.754,779.238c-2,6.607,0.661,13.262,5.946,14.862c5.283,1.601,11.188-2.458,13.189-9.066
						c2-6.607-0.663-13.263-5.947-14.863C739.658,768.571,733.754,772.63,731.754,779.238z"/>
					<path style="fill:#FFC0BB;" d="M739.623,782.606c0.007-1.643,0.107-3.279,0.24-4.917c0.532-6.608-0.136-13.5-2.322-20.448
						c-7.04-22.353-28.327-37.701-51.751-37.257c-31.556,0.601-55.156,27.763-52.303,58.361c-3.499-1.538-7.273-1.616-10.424,0.16
						c-6.046,3.406-7.495,12.297-3.236,19.857c4.259,7.559,12.61,10.924,18.656,7.517c0.839-0.472,1.58-1.06,2.239-1.727
						c5.079,25.788,28.28,43.893,53.816,41.084C719.659,842.473,739.471,822.782,739.623,782.606z"/>
					<path style="fill:#F99893;" d="M698.513,771.751c0.577,3.006,1.065,5.953,1.677,8.819c0.634,2.796,1.417,5.769,2.864,7.583
						l0.276,0.281c0.104,0.106,0.135,0.165,0.343,0.352c0.328,0.337,0.704,0.603,0.977,1.012c0.586,0.75,1.056,1.66,1.224,2.647
						c0.385,1.988-0.39,3.944-1.532,5.247c-2.336,2.691-5.794,3.457-8.796,3.2c2.866-0.985,5.532-2.446,6.875-4.632
						c0.61-1.077,0.946-2.227,0.612-3.2c-0.134-0.486-0.379-0.945-0.74-1.352c-0.137-0.228-0.406-0.388-0.594-0.593l-0.458-0.44
						l-0.514-0.52c-1.199-1.463-1.76-3.05-2.188-4.599c-0.397-1.563-0.618-3.105-0.713-4.655
						C697.64,777.815,697.82,774.747,698.513,771.751z"/>
					<path style="fill:#333333;" d="M681.646,778.505c0.282,2.559-1.564,4.862-4.122,5.143c-2.559,0.282-4.86-1.564-5.143-4.124
						c-0.281-2.56,1.565-4.862,4.123-5.143C679.063,774.099,681.365,775.946,681.646,778.505z"/>
					<path style="fill:#333333;" d="M721.716,776.737c0.281,2.559-1.565,4.863-4.123,5.144c-2.559,0.281-4.861-1.565-5.143-4.124
						c-0.28-2.559,1.564-4.863,4.123-5.144C719.133,772.332,721.435,774.178,721.716,776.737z"/>
					<path style="fill:#F99893;" d="M678.839,810.901c1.375,0.863,2.789,1.64,4.259,2.292c1.454,0.68,2.948,1.268,4.475,1.728
						c3.049,0.922,6.21,1.45,9.366,1.336c3.156-0.097,6.262-0.864,9.166-2.145c2.89-1.326,5.547-3.171,8.011-5.281
						c-1.065,1.225-2.229,2.372-3.493,3.413c-1.263,1.043-2.664,1.913-4.105,2.714c-1.466,0.759-3.014,1.37-4.618,1.8
						c-1.609,0.408-3.26,0.648-4.919,0.723c-3.321,0.09-6.638-0.505-9.71-1.673C684.2,814.643,681.297,813.037,678.839,810.901z"/>
					<path style="fill:#333333;" d="M685.787,767.194c-2.458-0.355-4.751-0.559-6.985-0.554c-2.232,0.007-4.376,0.286-6.417,0.867
						c-2.024,0.605-4.035,1.377-5.893,2.601c-1.01,0.499-1.837,1.274-2.841,1.892c-0.954,0.68-1.812,1.487-2.892,2.179
						c0.412-1.159,0.923-2.311,1.56-3.394c0.732-1.004,1.408-2.115,2.391-2.946c1.78-1.859,4.186-3.145,6.7-3.87
						c2.533-0.718,5.232-0.756,7.724-0.186C681.614,764.372,683.973,765.459,685.787,767.194z"/>
					<path style="fill:#333333;" d="M706.426,766.28c1.601-1.936,3.815-3.292,6.21-4.167c2.408-0.857,5.092-1.134,7.692-0.719
						c2.582,0.426,5.121,1.421,7.107,3.06c1.07,0.711,1.873,1.734,2.717,2.646c0.761,1,1.402,2.084,1.946,3.188
						c-1.154-0.561-2.1-1.263-3.127-1.826c-1.068-0.496-1.98-1.169-3.041-1.545c-1.988-1-4.075-1.531-6.157-1.894
						c-2.095-0.338-4.257-0.364-6.474-0.11C711.079,765.169,708.826,765.64,706.426,766.28z"/>
					<path style="fill:#333333;" d="M737.665,714.171c0,0,15.563-1.942-2.752-12.479c-18.314-10.536-64.363-19.016-90,0.167
						c0,0-7.466-11.01-15.103-6.896c-7.637,4.114,6.993,10.192,6.993,10.192s-10.376,1.294-12.728,6.857
						c-1.737,4.111,4.608,3.279,8.038,2.565c-5.719,1.926-26.005,19.713-7.537,63.372c3.881-1.517,21.547-38.35,21.547-38.35
						s56.961,20.847,48.134-1.48c0,0,59.598,25.316,47.49-1.45C741.748,736.669,762.972,734.899,737.665,714.171z"/>
					<path style="fill:#333333;" d="M624.575,778.231c0,0,4.099-2.209,9.346,0.758c5.248,2.966,6.782,16.058,6.782,16.058
						s24.526,10.851,12.602-49.549c-12.685-64.256-17.755,8.114-17.755,8.114L624.575,778.231z"/>
				</g>
			</g>
			<g>
				<polygon style="fill:#FFC0BB;" points="1295.318,1727.56 1295.318,1704.854 1269.354,1697.662 1263.576,1700.201 
					1262.59,1727.56 1270.767,1751.396 				"/>
				<path style="fill:#333333;" d="M1211.178,1760.116l89.869,0.856c1.529,0.015,2.782-1.214,2.796-2.744l0.038-3.928
					c0.014-1.531-1.214-2.783-2.745-2.798l-89.867-0.856c-1.53-0.016-2.783,1.215-2.798,2.744l-0.037,3.928
					C1208.421,1758.849,1209.647,1760.102,1211.178,1760.116z"/>
				<path style="fill:#FF5B7E;" d="M1299.813,1722.721l2.91,26.366c0.358,3.251-1.513,6.183-3.93,6.159l-84.077-0.802
					c-2.184-0.021-4.331-1.385-5.453-3.924c-1.151-2.603-1.35-6.509,2.464-11.719c7.49-10.233,31.497-12.659,43.894-21.116
					c0.444-0.302,0.963-0.47,1.502-0.464l38.333,0.365C1297.645,1717.607,1299.488,1719.782,1299.813,1722.721z"/>
				<g>
					<path style="fill:#333333;" d="M1262.094,1732.563L1262.094,1732.563c0.611-0.362,0.843-1.369,0.499-2.141
						c-1.616-3.625-6.693-12.459-17.21-10.754c-0.607,0.099-1.025,0.889-0.931,1.709l0.004,0.027
						c0.092,0.794,0.634,1.318,1.222,1.226c9.425-1.495,13.737,6.291,15.045,9.328
						C1261.001,1732.605,1261.586,1732.865,1262.094,1732.563z"/>
				</g>
				<g>
					<path style="fill:#333333;" d="M1253.329,1735.869L1253.329,1735.869c0.611-0.363,0.844-1.37,0.499-2.141
						c-1.615-3.624-6.692-12.459-17.208-10.755c-0.608,0.099-1.027,0.89-0.932,1.71l0.003,0.027
						c0.093,0.794,0.634,1.318,1.222,1.225c9.425-1.493,13.738,6.29,15.044,9.328
						C1252.235,1735.912,1252.821,1736.172,1253.329,1735.869z"/>
				</g>
				<g>
					<path style="fill:#333333;" d="M1245.178,1738.955L1245.178,1738.955c0.611-0.363,0.844-1.371,0.499-2.143
						c-1.616-3.623-6.693-12.457-17.209-10.753c-0.607,0.099-1.025,0.89-0.931,1.709l0.003,0.027
						c0.093,0.793,0.635,1.318,1.222,1.225c9.425-1.492,13.738,6.292,15.045,9.329
						C1244.086,1738.998,1244.67,1739.257,1245.178,1738.955z"/>
				</g>
				<path style="opacity:0.3;fill:#E87B50;" d="M1277.58,1751.543c6.032-15.706,14.81-19.184,20.847-19.464
					c1.362-0.063,2.525,0.965,2.674,2.302l1.623,14.706c0.358,3.251-1.513,6.183-3.93,6.159l-18.805-0.18
					C1278.158,1755.049,1276.932,1753.232,1277.58,1751.543z"/>
				<polygon style="fill:#FFC0BB;" points="1476.49,1727.56 1476.49,1704.854 1450.526,1697.662 1444.748,1700.201 
					1443.762,1727.56 1451.938,1751.396 				"/>
				<path style="fill:#333333;" d="M1392.35,1760.116l89.867,0.856c1.531,0.015,2.783-1.214,2.797-2.744l0.038-3.928
					c0.015-1.529-1.214-2.783-2.745-2.798l-89.867-0.856c-1.53-0.016-2.782,1.215-2.797,2.744l-0.037,3.928
					C1389.591,1758.849,1390.819,1760.102,1392.35,1760.116z"/>
				<path style="fill:#FF5B7E;" d="M1480.985,1722.721l2.91,26.366c0.359,3.251-1.512,6.183-3.931,6.159l-84.076-0.802
					c-2.184-0.021-4.33-1.385-5.452-3.924c-1.152-2.603-1.349-6.509,2.463-11.719c7.49-10.233,31.497-12.659,43.896-21.116
					c0.443-0.302,0.961-0.47,1.502-0.464l38.333,0.365C1478.817,1717.607,1480.661,1719.782,1480.985,1722.721z"/>
				<g>
					<path style="fill:#333333;" d="M1443.266,1732.563L1443.266,1732.563c0.612-0.362,0.843-1.369,0.499-2.141
						c-1.617-3.625-6.693-12.459-17.209-10.754c-0.607,0.099-1.026,0.889-0.931,1.709l0.004,0.027
						c0.092,0.794,0.633,1.318,1.222,1.226c9.424-1.495,13.737,6.291,15.044,9.328
						C1442.173,1732.605,1442.758,1732.865,1443.266,1732.563z"/>
				</g>
				<g>
					<path style="fill:#333333;" d="M1434.501,1735.869L1434.501,1735.869c0.611-0.363,0.844-1.37,0.5-2.141
						c-1.616-3.624-6.693-12.459-17.209-10.755c-0.608,0.099-1.026,0.89-0.932,1.71l0.004,0.027
						c0.092,0.794,0.633,1.318,1.222,1.225c9.424-1.493,13.737,6.29,15.044,9.328
						C1433.408,1735.912,1433.994,1736.172,1434.501,1735.869z"/>
				</g>
				<g>
					<path style="fill:#333333;" d="M1426.35,1738.955L1426.35,1738.955c0.61-0.363,0.843-1.371,0.498-2.143
						c-1.616-3.623-6.692-12.457-17.209-10.753c-0.607,0.099-1.026,0.89-0.93,1.709l0.004,0.027
						c0.091,0.793,0.633,1.318,1.221,1.225c9.424-1.492,13.738,6.292,15.044,9.329
						C1425.258,1738.998,1425.842,1739.257,1426.35,1738.955z"/>
				</g>
				<path style="opacity:0.3;fill:#E87B50;" d="M1458.754,1751.543c6.03-15.706,14.809-19.184,20.845-19.464
					c1.362-0.063,2.526,0.965,2.674,2.302l1.623,14.706c0.359,3.251-1.512,6.183-3.931,6.159l-18.802-0.18
					C1459.331,1755.049,1458.104,1753.232,1458.754,1751.543z"/>
				<path style="fill:#FFC0BB;" d="M985.833,1040.932c0.878,0.917,0.396,2.447-0.853,2.677c-9.669,1.774-40.057,7.556-40.165,10.117
					c-0.126,3.047,27.152-1.457,28.523,1.021c1.369,2.479-25.351,6.199-24.961,9.478c0.388,3.278,24.637-0.931,25.282,0.394
					c0.646,1.325-22.154,7.841-23.084,9.906c-0.928,2.066,24.26-1.929,25.5-0.544c1.239,1.385-15.225,9.921-14.655,11.418
					c0.568,1.496,0.698,2.59,43.273-6.008l16.617-4.101l11.758-10.671l-6.654-17.888c0,0-50.432-24.11-52.412-22.931
					C972.116,1024.925,972.335,1026.809,985.833,1040.932z"/>
				<g>
					<g>
						<path style="fill:#F44E7A;" d="M1260.563,874.493l-117.177,130.295l-127.18,31.964c0,0-3.836,17.687,3.175,42.229
							c0.115,0.404,125.899-3.354,143.24-10.265c22.247-8.866,112.706-100.215,112.706-100.215L1260.563,874.493z"/>
					</g>
				</g>
				<path style="fill:#07085B;" d="M1391.774,774.487c0,0,12.453-52.291-16.438-72.131c-28.894-19.839-59.637-17.891-80.634-6.294
					c-20.997,11.595-33.75,52.484-24.489,75.974l69.601-21.833L1391.774,774.487z"/>
				<polygon style="fill:#FFC0BB;" points="1358.292,821.11 1360.696,880.214 1308.857,875.471 1317.113,823.584 				"/>
				<path style="fill:#F99893;" d="M1313.187,848.26l3.927-24.676l41.178-2.474l0.833,20.469
					C1350.62,849.347,1335.598,857.131,1313.187,848.26z"/>
				<path style="fill:#F99893;" d="M1284.323,778.141c2.842,6.598,0.869,13.79-4.407,16.064c-5.277,2.275-11.858-1.228-14.701-7.828
					c-2.843-6.597-0.868-13.791,4.406-16.065C1274.898,768.038,1281.48,771.542,1284.323,778.141z"/>
				<path style="fill:#FFC0BB;" d="M1276.579,782.545c-0.199-1.697-0.494-3.377-0.823-5.055c-1.325-6.771-1.443-13.975,0.005-21.415
					c4.659-23.939,24.872-42.306,49.144-44.593c32.698-3.08,60.285,22.239,60.922,54.211c3.436-2,7.33-2.524,10.796-1.057
					c6.651,2.814,9.191,11.837,5.675,20.153c-3.517,8.316-11.76,12.775-18.41,9.961c-0.923-0.391-1.758-0.913-2.519-1.524
					c-2.229,27.26-24.097,48.705-50.832,48.793C1304.25,842.107,1281.448,824.091,1276.579,782.545z"/>
				<path style="fill:#F99893;" d="M1317.815,766.501c-0.243,3.177-0.403,6.28-0.699,9.314c-0.328,2.966-0.79,6.132-2.074,8.177
					l-0.253,0.323c-0.094,0.122-0.118,0.187-0.313,0.403c-0.3,0.387-0.656,0.706-0.889,1.162c-0.521,0.845-0.897,1.84-0.958,2.878
					c-0.164,2.103,0.864,4.034,2.199,5.247c2.731,2.508,6.396,2.896,9.472,2.278c-3.08-0.684-6.009-1.881-7.652-3.983
					c-0.758-1.042-1.24-2.192-1.01-3.237c0.082-0.518,0.282-1.021,0.608-1.485c0.114-0.252,0.375-0.449,0.545-0.683l0.422-0.509
					l0.47-0.598c1.069-1.653,1.461-3.358,1.723-5.012c0.228-1.663,0.275-3.283,0.192-4.896
					C1319.429,772.667,1318.883,769.516,1317.815,766.501z"/>
				<path style="fill:#333333;" d="M1336.047,771.507c0.009,2.679,2.188,4.843,4.865,4.834c2.679-0.008,4.843-2.188,4.834-4.867
					c-0.01-2.679-2.188-4.843-4.866-4.835C1338.201,766.648,1336.037,768.827,1336.047,771.507z"/>
				<path style="fill:#333333;" d="M1294.408,774.378c0.009,2.679,2.188,4.843,4.866,4.834c2.678-0.009,4.842-2.188,4.833-4.868
					c-0.009-2.679-2.187-4.843-4.865-4.834C1296.563,769.519,1294.399,771.698,1294.408,774.378z"/>
				<path style="fill:#07085B;" d="M1330.439,760.296c2.5-0.655,4.847-1.136,7.159-1.393c2.309-0.254,4.558-0.217,6.737,0.145
					c2.163,0.387,4.334,0.949,6.396,1.999c1.104,0.396,2.049,1.101,3.159,1.622c1.065,0.592,2.048,1.326,3.247,1.915
					c-0.563-1.151-1.226-2.282-2.012-3.327c-0.873-0.952-1.705-2.021-2.816-2.766c-2.06-1.713-4.697-2.761-7.383-3.215
					c-2.703-0.445-5.498-0.169-8.007,0.713C1334.425,756.889,1332.113,758.288,1330.439,760.296z"/>
				<path style="fill:#07085B;" d="M1308.992,761.773c-1.881-1.816-4.331-2.956-6.909-3.582c-2.591-0.604-5.399-0.576-8.037,0.159
					c-2.621,0.743-5.129,2.069-6.992,3.996c-1.024,0.862-1.733,2.014-2.499,3.056c-0.669,1.123-1.205,2.32-1.638,3.525
					c1.128-0.714,2.022-1.552,3.017-2.254c1.048-0.639,1.912-1.443,2.965-1.956c1.938-1.267,4.034-2.061,6.146-2.68
					c2.125-0.596,4.357-0.875,6.68-0.873C1304.051,761.168,1306.436,761.392,1308.992,761.773z"/>
				<path style="fill:#07085B;" d="M1385.021,766.443c3.202-2.748,5.649-2.531,5.649-2.531l-1.371-16.939l-5.212-10.225
					c0,0-20.485-27.544-21.208-28.229c-0.723-0.684-16.409-9.63-17.374-10.09c-0.967-0.46-23.012,2.768-23.012,2.768
					s-38.707-8.093-32.26,12.203c6.447,20.296,34.69,31.046,36.148,30.152c-4.575-4.562-4.991-17.467-4.991-17.467
					C1341.327,747.904,1379.132,764.017,1385.021,766.443z"/>
				<path style="fill:#FFFFFF;" d="M1305.599,803.283c1.094,6.081,6.736,10.806,13.655,10.988
					c6.917,0.181,12.792-4.241,14.19-10.257L1305.599,803.283z"/>
				<path style="fill:#FFC0BB;" d="M1373.882,866.238l-72.985-0.202l-9.241,43.14l40.045,104.769c0,0,40.046-43.14,40.046-49.304
					c0-6.162,18.481-52.384,15.401-58.547C1384.067,899.931,1373.882,866.238,1373.882,866.238z"/>
				<path style="fill:#1E1E1E;" d="M1241.071,1163.712c30.89,45.434,92.614,110.973,92.614,110.973l0,0l-28.454,440.243
					c0,0-41.212,4.353-55.378-6.341C1249.854,1708.587,1239.055,1291.219,1241.071,1163.712z"/>
				<path style="fill:#3A2645;" d="M1252.756,1180.6c0.102-6.441-11.93,12.55-11.702,7.406
					c4.722-106.935,154.648-17.273,154.648-17.273l31.49-6.467l57.85,548.889c0,0-37.635,8.114-59.186,0l-92.171-433.103
					C1333.686,1280.052,1300.705,1266.228,1252.756,1180.6z"/>
				<g>
					<path style="fill:#4F2305;" d="M1388.642,1438.122c221.551-9.538,180.448,28.091,181.404-127.63l-210.081,4.682
						C1363.607,1410.103,1353.461,1435.406,1388.642,1438.122z"/>
					<path style="fill:#4F2305;" d="M1493.289,1271.28l0.61,25.331c0.066,2.744-2.104,5.022-4.849,5.089h-0.001
						c-2.744,0.066-5.022-2.105-5.089-4.85l-0.589-24.402c-0.172-7.145-6.103-12.797-13.247-12.624l-20.545,0.495
						c-7.144,0.173-12.796,6.104-12.624,13.248l0.59,24.403c0.065,2.744-2.106,5.022-4.851,5.089l0,0
						c-2.744,0.066-5.024-2.105-5.089-4.85l-0.611-25.331c-0.304-12.55,9.626-22.97,22.177-23.272l20.843-0.503
						C1482.566,1248.801,1492.985,1258.729,1493.289,1271.28z"/>
					<path style="fill:#632D07;" d="M1363.801,1340.878c0.037-0.015,174.205-3.874,200.39-4.467
						c14.672-0.826,12.377-3.978,11.752-35.476c0.692-32.736,3.182-17.383-196.859-16.26c-20.367,0.974-27.567-3.979-25.299,22.975
						C1354.945,1327.047,1350.772,1339.875,1363.801,1340.878z"/>
					
						<rect x="1423.696" y="1333.616" transform="matrix(0.9998 -0.0223 0.0223 0.9998 -29.5171 32.9138)" style="fill:#FEB546;" width="76.644" height="14.426"/>
				</g>
				<path style="fill:#FFC0BB;" d="M1446.02,1267.805c1.104-0.625,2.293-0.572,2.741,0.615c2.431,6.427,4.729,8.617,6.693,8.726
					c3.045,0.168,3.511-2.448,5.09-2.606c2.074-0.207,3.445,1.487,5.735,1.132c2.743-0.426,2.524-2.529,3.788-3.289
					c1.264-0.76,2.881,1.079,5.209,0.158c1.316-0.521,1.46-2.275,2.223-2.735c1.088-0.655,2.25,1.788,4.303,0.525
					c1.364-0.839,3.274-16.226-1.232-31.731l-5.54-16.194l-11.659-10.778l-17.236,8.195c0,0-8.111,23.409-8.111,32.407
					C1438.022,1263.91,1440.447,1270.96,1446.02,1267.805z"/>
				<path style="fill:#3C2340;" d="M1367.409,873.024c0,0-36.423,22.063-65.308,0c0,0-16.425,43.375-14.867,44.934
					c1.558,1.558,18.691,48.3,18.691,49.857c0,1.559,20.247,20.255,29.593,6.233c9.346-14.023,15.575-12.465,28.035-42.068
					c12.461-29.604,21.806-38.952,18.69-42.068C1379.13,886.796,1367.409,873.024,1367.409,873.024z"/>
				<path style="fill:#FF5B7E;" d="M1371.746,866.036c0,0,73.929,6.163,89.331,30.813c15.401,24.652,52.366,166.398,49.286,209.539
					c-3.08,43.14-30.805,126.338-30.805,126.338s-24.643,3.081-33.884-12.326c0,0,18.482-117.094,15.402-126.339
					c-3.08-9.244-36.965-104.769-36.965-104.769l6.161,187.968c0,0-73.93,46.222-190.984,9.244c0,0-15.402-305.063,24.643-314.306
					l36.965-6.163l15.401,89.361L1371.746,866.036z"/>
			</g>
		</g>
	</g>
</g>
</svg>
